<?xml version="1.0" standalone="no"?><!DOCTYPE svg PUBLIC "-//W3C//DTD SVG 1.1//EN" "http://www.w3.org/Graphics/SVG/1.1/DTD/svg11.dtd"><svg height="1500" node-id="1" sillyvg="true" template-height="1500" template-width="1736" version="1.1" viewBox="0 0 1736 1500" width="1736" xmlns="http://www.w3.org/2000/svg" xmlns:xlink="http://www.w3.org/1999/xlink"><defs node-id="86"><linearGradient gradientUnits="objectBoundingBox" id="未命名的渐变_49" node-id="5" spreadMethod="pad" x1="544" x2="684" y1="757.77" y2="757.77"><stop offset="0" stop-color="#ebf4ff"></stop><stop offset="1" stop-color="#ebebff"></stop></linearGradient><linearGradient gradientUnits="objectBoundingBox" id="未命名的渐变_94" node-id="8" spreadMethod="pad" x1="407" x2="534" y1="753.77" y2="753.77"><stop offset="0" stop-color="#ebf4ff"></stop><stop offset="1" stop-color="#ebe1ff"></stop></linearGradient><linearGradient gradientUnits="objectBoundingBox" id="未命名的渐变_49-2" node-id="11" spreadMethod="pad" x1="534" x2="534" y1="781.27" y2="781.27"><stop offset="0" stop-color="#ebf4ff"></stop><stop offset="1" stop-color="#ebebff"></stop></linearGradient><linearGradient gradientUnits="objectBoundingBox" id="未命名的渐变_49-3" node-id="12" spreadMethod="pad" x1="415" x2="415" y1="753.27" y2="753.27"><stop offset="0" stop-color="#ebf4ff"></stop><stop offset="1" stop-color="#ebebff"></stop></linearGradient><linearGradient gradientUnits="objectBoundingBox" id="未命名的渐变_49-4" node-id="13" spreadMethod="pad" x1="666" x2="666" y1="479.77" y2="479.77"><stop offset="0" stop-color="#ebf4ff"></stop><stop offset="1" stop-color="#ebebff"></stop></linearGradient><linearGradient gradientUnits="objectBoundingBox" id="未命名的渐变_49-5" node-id="14" spreadMethod="pad" x1="415" x2="666" y1="309.27" y2="309.27"><stop offset="0" stop-color="#ebf4ff"></stop><stop offset="1" stop-color="#ebebff"></stop></linearGradient><linearGradient gradientUnits="objectBoundingBox" id="未命名的渐变_49-6" node-id="15" spreadMethod="pad" x1="353" x2="488" y1="941.27" y2="941.27"><stop offset="0" stop-color="#ebf4ff"></stop><stop offset="1" stop-color="#ebebff"></stop></linearGradient><linearGradient gradientUnits="objectBoundingBox" id="未命名的渐变_94-2" node-id="16" spreadMethod="pad" x1="603" x2="730" y1="937.77" y2="937.77"><stop offset="0" stop-color="#ebf4ff"></stop><stop offset="1" stop-color="#ebe1ff"></stop></linearGradient><linearGradient gradientUnits="objectBoundingBox" id="未命名的渐变_49-7" node-id="17" spreadMethod="pad" x1="729" x2="729" y1="964.27" y2="964.27"><stop offset="0" stop-color="#ebf4ff"></stop><stop offset="1" stop-color="#ebebff"></stop></linearGradient><linearGradient gradientUnits="objectBoundingBox" id="未命名的渐变_49-8" node-id="18" spreadMethod="pad" x1="610" x2="610" y1="940.77" y2="940.77"><stop offset="0" stop-color="#ebf4ff"></stop><stop offset="1" stop-color="#ebebff"></stop></linearGradient><linearGradient gradientUnits="objectBoundingBox" id="未命名的渐变_49-9" node-id="19" spreadMethod="pad" x1="861" x2="861" y1="940.77" y2="940.77"><stop offset="0" stop-color="#ebf4ff"></stop><stop offset="1" stop-color="#ebebff"></stop></linearGradient><linearGradient gradientUnits="objectBoundingBox" id="未命名的渐变_49-10" node-id="20" spreadMethod="pad" x1="610" x2="861" y1="672.27" y2="672.27"><stop offset="0" stop-color="#ebf4ff"></stop><stop offset="1" stop-color="#ebebff"></stop></linearGradient><linearGradient gradientUnits="objectBoundingBox" id="未命名的渐变_49-11" node-id="21" spreadMethod="pad" x1="-37" x2="98" y1="1223.81" y2="1223.81"><stop offset="0" stop-color="#ebf4ff"></stop><stop offset="1" stop-color="#ebebff"></stop></linearGradient><linearGradient gradientUnits="objectBoundingBox" id="未命名的渐变_94-3" node-id="22" spreadMethod="pad" x1="993" x2="1120" y1="1085.77" y2="1085.77"><stop offset="0" stop-color="#ebf4ff"></stop><stop offset="1" stop-color="#ebe1ff"></stop></linearGradient><linearGradient gradientUnits="objectBoundingBox" id="未命名的渐变_49-12" node-id="23" spreadMethod="pad" x1="1118" x2="1118" y1="1111.77" y2="1111.77"><stop offset="0" stop-color="#ebf4ff"></stop><stop offset="1" stop-color="#ebebff"></stop></linearGradient><linearGradient gradientUnits="objectBoundingBox" id="未命名的渐变_49-13" node-id="24" spreadMethod="pad" x1="999" x2="999" y1="1084.27" y2="1084.27"><stop offset="0" stop-color="#ebf4ff"></stop><stop offset="1" stop-color="#ebebff"></stop></linearGradient><linearGradient gradientUnits="objectBoundingBox" id="未命名的渐变_49-14" node-id="25" spreadMethod="pad" x1="1250" x2="1250" y1="1084.77" y2="1084.77"><stop offset="0" stop-color="#ebf4ff"></stop><stop offset="1" stop-color="#ebebff"></stop></linearGradient><linearGradient gradientUnits="objectBoundingBox" id="未命名的渐变_49-15" node-id="26" spreadMethod="pad" x1="999" x2="1250" y1="963.27" y2="963.27"><stop offset="0" stop-color="#ebf4ff"></stop><stop offset="1" stop-color="#ebebff"></stop></linearGradient><linearGradient gradientUnits="objectBoundingBox" id="未命名的渐变_49-16" node-id="27" spreadMethod="pad" x1="1106.41" x2="1301.53" y1="662.58" y2="662.58"><stop offset="0" stop-color="#ebf4ff"></stop><stop offset="1" stop-color="#ebebff"></stop></linearGradient><linearGradient gradientUnits="objectBoundingBox" id="未命名的渐变_23" node-id="28" spreadMethod="pad" x1="3149.26" x2="3151.83" y1="2177.49" y2="2177.49"><stop offset="0" stop-color="#548fff"></stop><stop offset="1" stop-color="#949fff"></stop></linearGradient><linearGradient gradientUnits="objectBoundingBox" id="未命名的渐变_49-17" node-id="31" spreadMethod="pad" x1="273.95" x2="351.67" y1="1063.08" y2="1063.08"><stop offset="0" stop-color="#ebf4ff"></stop><stop offset="1" stop-color="#ebebff"></stop></linearGradient><linearGradient gradientUnits="objectBoundingBox" id="未命名的渐变_17" node-id="32" spreadMethod="pad" x1="3185.77" x2="3188.36" y1="2178.81" y2="2178.81"><stop offset="0" stop-color="#eaeff5"></stop><stop offset="0.99" stop-color="#dee1f0"></stop></linearGradient><linearGradient gradientUnits="objectBoundingBox" id="未命名的渐变_23-2" node-id="35" spreadMethod="pad" x1="3233.35" x2="3235.91" y1="2178.33" y2="2178.33"><stop offset="0" stop-color="#548fff"></stop><stop offset="1" stop-color="#949fff"></stop></linearGradient><linearGradient gradientUnits="objectBoundingBox" id="未命名的渐变_49-18" node-id="36" spreadMethod="pad" x1="1365.48" x2="1526.44" y1="1058.14" y2="1058.14"><stop offset="0" stop-color="#ebf4ff"></stop><stop offset="1" stop-color="#ebebff"></stop></linearGradient></defs><g node-id="298"><path d="M 675.00 1193.36 L 666.00 307.26 L 535.00 370.26 L 543.00 1203.27 L 675.00 1208.27 L 675.00 1193.36 Z" fill="url(#未命名的渐变_49)" fill-rule="nonzero" group-id="1" node-id="235" stroke="none" target-height="901.01" target-width="140" target-x="535" target-y="307.26"></path><path d="M 407.00 1195.36 L 415.00 307.26 L 534.00 353.26 L 534.00 1200.27 L 407.00 1200.27 L 407.00 1195.36 Z" fill="url(#未命名的渐变_94)" fill-rule="nonzero" group-id="1" node-id="237" stroke="none" target-height="893.01" target-width="127" target-x="407" target-y="307.26"></path><path d="M 534.00 1200.27 L 534.00 362.27" fill="url(#未命名的渐变_49-2)" fill-rule="nonzero" group-id="1" node-id="239" stroke="#5d83ff" stroke-linecap="butt" stroke-width="18" target-height="838" target-width="0" target-x="534" target-y="362.27"></path><path d="M 415.00 1199.27 L 415.00 307.27" fill="url(#未命名的渐变_49-3)" fill-rule="nonzero" group-id="1" node-id="241" stroke="#5d83ff" stroke-linecap="butt" stroke-width="18" target-height="892" target-width="0" target-x="415" target-y="307.27"></path><path d="M 666.00 652.27 L 666.00 307.27" fill="url(#未命名的渐变_49-4)" fill-rule="nonzero" group-id="1" node-id="243" stroke="#5d83ff" stroke-linecap="butt" stroke-width="18" target-height="345.00003" target-width="0" target-x="666" target-y="307.27"></path><path d="M 415.00 307.26 L 535.00 371.26 L 666.00 307.26 L 557.00 247.26 L 415.00 307.26 Z" fill="url(#未命名的渐变_49-5)" fill-rule="nonzero" group-id="1" node-id="245" stroke="#5d83ff" stroke-linecap="round" stroke-width="18" target-height="124.000015" target-width="251" target-x="415" target-y="247.26"></path></g><g node-id="299"><path d="M 404.00 428.27 C 395.84 426.54 387.57 425.40 379.25 424.85" fill="none" group-id="2" node-id="249" stroke="#fe9f39" stroke-linecap="butt" stroke-width="24" target-height="3.4199524" target-width="24.75" target-x="379.25" target-y="424.85004"></path><path d="M 339.75 426.07 C 306.83 430.93 270.82 447.35 257.00 493.27 C 229.00 586.27 459.00 583.27 539.00 561.27 C 539.00 561.27 1205.56 300.09 1369.00 585.27 C 1514.00 838.27 1256.00 958.27 1256.00 958.27 C 1256.00 958.27 1085.82 1034.27 796.00 989.27 C 545.00 950.27 514.00 1078.27 524.00 1129.27 C 532.16 1170.89 574.30 1193.87 636.28 1200.90" fill="none" group-id="2" node-id="251" stroke="#fe9f39" stroke-dasharray="49.5 39.6" stroke-linecap="butt" stroke-width="24" target-height="900.81006" target-width="1285" target-x="229" target-y="300.09"></path><path d="M 656.00 1202.57 C 664.06 1203.04 672.39 1203.28 681.00 1203.27" fill="none" group-id="2" node-id="253" stroke="#fe9f39" stroke-linecap="butt" stroke-width="24" target-height="0.70666504" target-width="25" target-x="656" target-y="1202.57"></path></g><g node-id="300"><path d="M 866.00 1195.36 L 862.00 672.26 L 731.00 731.26 L 734.00 1205.27 L 866.00 1210.27 L 866.00 1195.36 Z" fill="url(#未命名的渐变_49-6)" fill-rule="nonzero" group-id="3" node-id="257" stroke="none" target-height="538.01" target-width="135" target-x="731" target-y="672.26"></path><path d="M 603.00 1198.36 L 611.00 672.26 L 730.00 718.26 L 730.00 1203.27 L 603.00 1203.27 L 603.00 1198.36 Z" fill="url(#未命名的渐变_94-2)" fill-rule="nonzero" group-id="3" node-id="259" stroke="none" target-height="531.01" target-width="127" target-x="603" target-y="672.26"></path><path d="M 729.00 1203.27 L 729.00 725.27" fill="url(#未命名的渐变_49-7)" fill-rule="nonzero" group-id="3" node-id="261" stroke="#5d83ff" stroke-linecap="butt" stroke-width="18" target-height="478" target-width="0" target-x="729" target-y="725.27"></path><path d="M 610.00 1211.27 L 610.00 670.27" fill="url(#未命名的渐变_49-8)" fill-rule="nonzero" group-id="3" node-id="263" stroke="#5d83ff" stroke-linecap="butt" stroke-width="18" target-height="541" target-width="0" target-x="610" target-y="670.27"></path><path d="M 861.00 1211.27 L 861.00 670.27" fill="url(#未命名的渐变_49-9)" fill-rule="nonzero" group-id="3" node-id="265" stroke="#5d83ff" stroke-linecap="butt" stroke-width="18" target-height="541" target-width="0" target-x="861" target-y="670.27"></path><path d="M 610.00 670.26 L 730.00 734.26 L 861.00 670.26 L 752.00 610.26 L 610.00 670.26 Z" fill="url(#未命名的渐变_49-10)" fill-rule="nonzero" group-id="3" node-id="267" stroke="#5d83ff" stroke-linecap="round" stroke-width="18" target-height="124" target-width="251" target-x="610" target-y="610.26"></path></g><g node-id="301"><path d="M 1256.00 1485.36 L 1252.00 962.26 L 1121.00 1021.26 L 1124.00 1201.27 L 1256.00 1206.27 L 1256.00 1485.36 Z" fill="url(#未命名的渐变_49-11)" fill-rule="nonzero" group-id="4" node-id="271" stroke="none" target-height="523.1" target-width="135" target-x="1121" target-y="962.26"></path><path d="M 993.00 1204.36 L 1001.00 962.26 L 1120.00 1008.26 L 1120.00 1209.27 L 993.00 1209.27 L 993.00 1204.36 Z" fill="url(#未命名的渐变_94-3)" fill-rule="nonzero" group-id="4" node-id="273" stroke="#5d83ff" stroke-linecap="butt" stroke-width="18" target-height="247.01001" target-width="127" target-x="993" target-y="962.26"></path><path d="M 1118.00 1208.27 L 1118.00 1015.27" fill="url(#未命名的渐变_49-12)" fill-rule="nonzero" group-id="4" node-id="275" stroke="#5d83ff" stroke-linecap="butt" stroke-width="18" target-height="193" target-width="0" target-x="1118" target-y="1015.27"></path><path d="M 999.00 1208.27 L 999.00 960.27" fill="url(#未命名的渐变_49-13)" fill-rule="nonzero" group-id="4" node-id="277" stroke="#5d83ff" stroke-linecap="butt" stroke-width="18" target-height="248" target-width="0" target-x="999" target-y="960.27"></path><path d="M 1250.00 1208.27 L 1250.00 961.27" fill="url(#未命名的渐变_49-14)" fill-rule="nonzero" group-id="4" node-id="279" stroke="#5d83ff" stroke-linecap="butt" stroke-width="18" target-height="247" target-width="0" target-x="1250" target-y="961.27"></path><path d="M 999.00 961.26 L 1119.00 1025.27 L 1250.00 961.26 L 1141.00 901.26 L 999.00 961.26 Z" fill="url(#未命名的渐变_49-15)" fill-rule="nonzero" group-id="4" node-id="281" stroke="#5d83ff" stroke-linecap="round" stroke-width="18" target-height="124.01001" target-width="251" target-x="999" target-y="901.26"></path></g><g node-id="302"><path d="M 1118.82 741.92 C 1111.82 717.44 1111.82 688.98 1122.51 665.51 C 1132.67 643.28 1155.27 624.65 1180.85 632.38 C 1195.52 636.81 1219.27 658.31 1201.85 672.69 C 1197.36 676.41 1192.23 675.95 1188.32 671.69 C 1184.23 667.24 1183.32 661.90 1185.04 656.25 C 1189.10 642.59 1199.93 630.52 1210.04 620.89 C 1220.95 610.73 1233.60 602.60 1247.37 596.89 C 1263.63 589.97 1282.04 585.98 1299.46 590.58 C 1308.18 592.88 1311.90 579.38 1303.18 577.08 C 1268.46 567.91 1228.89 585.21 1203.10 608.24 C 1190.10 619.89 1177.10 634.97 1171.72 651.90 C 1166.85 667.31 1175.52 686.80 1192.72 689.11 C 1208.09 691.17 1221.04 676.39 1221.63 661.89 C 1222.15 648.97 1213.90 636.89 1204.16 629.21 C 1192.07 619.49 1176.54 615.12 1161.16 617.11 C 1145.16 619.33 1130.74 628.99 1120.83 641.52 C 1098.23 670.09 1095.54 711.58 1105.28 745.63 C 1107.75 754.27 1121.28 750.63 1118.78 741.91 Z" fill="url(#未命名的渐变_49-16)" fill-rule="nonzero" group-id="5" node-id="285" stroke="none" target-height="186.36005" target-width="216.35999" target-x="1095.54" target-y="567.91"></path><path d="M 1437.50 392.76 L 1372.50 488.76 L 1477.50 429.76 L 1437.50 392.76 Z" fill="#d3dcf4" fill-rule="nonzero" group-id="5" node-id="287" stroke="none" target-height="96" target-width="105" target-x="1372.5" target-y="392.75998"></path><path d="M 1525.50 492.76 L 1398.50 509.76 L 1522.50 551.76 L 1525.50 492.76 Z" fill="#d3dcf4" fill-rule="nonzero" group-id="5" node-id="289" stroke="none" target-height="59" target-width="126.99988" target-x="1398.5001" target-y="492.76"></path></g><path d="M 1491.50 1253.27 L 213.50 1253.27 C 201.09 1253.23 191.04 1243.18 191.00 1230.77 L 191.00 1230.77 C 191.03 1218.36 201.09 1208.30 213.50 1208.27 L 1491.50 1208.27 C 1503.91 1208.30 1513.97 1218.36 1514.00 1230.77 L 1514.00 1230.77 C 1513.96 1243.18 1503.91 1253.23 1491.50 1253.27 Z" fill="none" node-id="292" stroke="#d3dcf4" stroke-linecap="butt" stroke-width="20" target-height="45" target-width="1323" target-x="191" target-y="1208.27"></path><path d="M 1127.00 1294.27 L 1201.85 1294.27 C 1225.37 1294.27 1249.48 1292.60 1272.90 1295.12 C 1280.27 1295.92 1288.97 1296.57 1295.73 1300.22 C 1302.06 1303.63 1301.15 1309.05 1298.65 1314.74 C 1295.07 1322.89 1291.25 1330.42 1291.87 1339.60 C 1292.54 1349.39 1300.60 1353.31 1309.37 1355.16 C 1335.37 1360.64 1362.73 1357.08 1389.00 1356.28 C 1400.56 1355.92 1400.61 1337.92 1389.00 1338.28 C 1365.19 1339.00 1340.89 1341.89 1317.17 1338.36 C 1316.38 1338.24 1306.93 1335.36 1307.01 1335.27 C 1306.57 1335.67 1310.85 1338.78 1309.87 1339.60 C 1309.91 1338.84 1309.89 1338.07 1309.80 1337.31 C 1309.81 1335.38 1310.15 1333.47 1310.80 1331.65 C 1313.32 1323.88 1318.14 1317.26 1318.72 1308.87 C 1320.20 1287.52 1298.27 1280.51 1281.30 1278.20 C 1257.92 1275.02 1234.30 1276.28 1210.71 1276.27 L 1127.00 1276.27 C 1115.42 1276.27 1115.40 1294.27 1127.00 1294.27 Z" fill="#d3dcf4" fill-rule="nonzero" node-id="294" stroke="none" target-height="85.619995" target-width="285.20996" target-x="1115.4" target-y="1275.02"></path><path d="M 379.00 1302.27 L 639.00 1302.27 C 650.58 1302.27 650.60 1284.27 639.00 1284.27 L 379.00 1284.27 C 367.42 1284.27 367.40 1302.27 379.00 1302.27 Z" fill="#d3dcf4" fill-rule="nonzero" node-id="296" stroke="none" target-height="18" target-width="283.2" target-x="367.39996" target-y="1284.27"></path><g node-id="303"><g node-id="304"><g node-id="307"><path d="M 308.46 1216.29 L 275.61 1197.37 C 273.14 1195.95 273.46 1193.45 276.31 1191.80 L 307.56 1173.80 C 310.42 1172.16 314.80 1171.98 317.21 1173.41 L 350.05 1192.32 C 352.53 1193.75 352.22 1196.24 349.36 1197.89 L 318.12 1215.89 C 315.25 1217.54 310.94 1217.72 308.46 1216.29 Z" fill="#a0b3f8" fill-opacity="0.3" fill-rule="nonzero" group-id="6,7,10" id="路径" node-id="74" stroke="none" target-height="45.73999" target-width="79.38995" target-x="273.14" target-y="1171.98"></path></g><path d="M 351.66 1179.28 C 351.67 1179.18 351.67 1179.08 351.66 1178.98 L 351.66 1063.00 L 274.00 1063.00 L 274.00 1179.38 C 274.07 1180.43 274.71 1181.35 275.66 1181.79 L 308.51 1200.70 C 310.99 1202.13 315.30 1201.91 318.15 1200.31 L 349.34 1182.31 C 350.54 1181.77 351.41 1180.69 351.69 1179.41 L 351.69 1179.41 Z" fill="url(#未命名的渐变_23)" fill-rule="nonzero" group-id="6,7" id="路径-2" node-id="75" stroke="none" target-height="139.13" target-width="77.69" target-x="274" target-y="1063"></path><path d="M 308.46 1084.50 L 275.61 1065.59 C 273.14 1064.17 273.46 1061.68 276.31 1060.03 L 307.50 1042.03 C 310.36 1040.39 314.74 1040.21 317.15 1041.63 L 350.00 1060.57 C 352.48 1062.00 352.17 1064.49 349.31 1066.14 L 318.12 1084.14 C 315.25 1085.74 310.94 1085.92 308.46 1084.50 Z" fill="url(#未命名的渐变_49-17)" fill-rule="nonzero" group-id="6,7" id="路径-3" node-id="76" stroke="none" target-height="45.710083" target-width="79.34" target-x="273.14" target-y="1040.21"></path></g><g node-id="305"><g node-id="308"><path d="M 1349.70 1225.40 L 1316.91 1206.49 C 1314.50 1205.06 1314.75 1202.57 1317.60 1200.93 L 1348.75 1182.93 C 1351.60 1181.28 1355.97 1181.10 1358.37 1182.53 L 1391.17 1201.44 C 1393.65 1202.87 1393.33 1205.36 1390.48 1207.00 L 1359.34 1225.00 C 1356.49 1226.60 1352.18 1226.81 1349.70 1225.40 Z" fill="#c9cfe5" fill-opacity="0.3" fill-rule="nonzero" group-id="6,8,11" id="路径-4" node-id="78" stroke="none" target-height="45.710083" target-width="79.150024" target-x="1314.5" target-y="1181.1"></path></g><path d="M 1392.84 1188.40 C 1392.85 1188.30 1392.85 1188.20 1392.84 1188.10 L 1392.84 845.10 L 1315.25 845.10 L 1315.25 1188.48 C 1315.32 1189.52 1315.96 1190.44 1316.91 1190.88 L 1349.70 1209.79 C 1352.18 1211.21 1356.49 1210.99 1359.33 1209.38 L 1390.47 1191.38 C 1391.66 1190.84 1392.53 1189.77 1392.82 1188.49 Z" fill="url(#未命名的渐变_17)" fill-rule="nonzero" group-id="6,8" id="路径-5" node-id="79" stroke="none" target-height="366.11" target-width="77.6001" target-x="1315.25" target-y="845.1"></path><path d="M 1349.70 866.61 L 1316.91 847.71 C 1314.50 846.28 1314.75 843.79 1317.60 842.14 L 1348.75 824.19 C 1351.60 822.54 1355.97 822.36 1358.37 823.78 C 1359.98 824.72 1370.92 831.02 1391.17 842.69 C 1393.65 844.11 1393.33 846.60 1390.48 848.25 L 1359.34 866.25 C 1356.49 867.86 1352.18 868.00 1349.70 866.61 Z" fill="#fafbfd" fill-rule="nonzero" group-id="6,8" id="路径-6" node-id="80" stroke="none" target-height="45.640015" target-width="79.150024" target-x="1314.5" target-y="822.36"></path></g><g node-id="306"><g node-id="309"><path d="M 1436.94 1276.68 L 1368.94 1237.50 C 1363.80 1234.50 1364.44 1229.39 1370.37 1225.98 L 1434.96 1188.77 C 1440.88 1185.35 1449.83 1184.99 1454.96 1187.94 L 1522.96 1227.12 C 1528.08 1230.12 1527.44 1235.23 1521.52 1238.64 L 1456.92 1275.85 C 1451.00 1279.27 1442.07 1279.63 1436.94 1276.68 Z" fill="#a0b3f8" fill-opacity="0.3" fill-rule="nonzero" group-id="6,9,12" id="路径-7" node-id="82" stroke="none" target-height="94.640015" target-width="164.2799" target-x="1363.8" target-y="1184.99"></path></g><path d="M 1526.41 1206.05 C 1526.43 1205.84 1526.43 1205.63 1526.41 1205.42 L 1526.41 1058.00 L 1365.49 1058.00 L 1365.49 1206.21 C 1365.49 1208.07 1366.62 1209.82 1368.95 1211.21 L 1436.95 1250.38 C 1442.07 1253.38 1451.03 1252.97 1456.95 1249.55 L 1521.56 1212.34 C 1524.56 1210.62 1526.18 1208.44 1526.38 1206.34 L 1526.38 1206.34 Z" fill="url(#未命名的渐变_23-2)" fill-rule="nonzero" group-id="6,9" id="路径-8" node-id="83" stroke="none" target-height="195.38" target-width="160.94006" target-x="1365.49" target-y="1058"></path><path d="M 1436.94 1102.56 L 1368.94 1063.35 C 1363.80 1060.35 1364.44 1055.23 1370.37 1051.83 L 1434.96 1014.54 C 1440.88 1011.14 1449.84 1010.77 1454.96 1013.73 L 1522.96 1052.90 C 1528.08 1055.85 1527.44 1061.01 1521.53 1064.42 L 1456.92 1101.70 C 1451.00 1105.15 1442.07 1105.52 1436.94 1102.56 Z" fill="url(#未命名的渐变_49-18)" fill-rule="nonzero" group-id="6,9" id="路径-9" node-id="84" stroke="none" target-height="94.75" target-width="164.2799" target-x="1363.8" target-y="1010.77"></path></g></g></svg>