<?xml version="1.0" standalone="no"?><!DOCTYPE svg PUBLIC "-//W3C//DTD SVG 1.1//EN" "http://www.w3.org/Graphics/SVG/1.1/DTD/svg11.dtd"><svg height="1500" node-id="1" sillyvg="true" template-height="1500" template-width="1726" version="1.1" viewBox="0 0 1726 1500" width="1726" xmlns="http://www.w3.org/2000/svg" xmlns:xlink="http://www.w3.org/1999/xlink"><defs node-id="72"><linearGradient gradientUnits="objectBoundingBox" id="未命名的渐变_23" node-id="5" spreadMethod="pad" x1="-324.47" x2="-321.91" y1="-1014.98" y2="-1014.98"><stop offset="0" stop-color="#548fff"></stop><stop offset="1" stop-color="#949fff"></stop></linearGradient><linearGradient gradientUnits="objectBoundingBox" id="未命名的渐变_49" node-id="8" spreadMethod="pad" x1="701.4" x2="859.71" y1="327.98" y2="327.98"><stop offset="0" stop-color="#ebf4ff"></stop><stop offset="1" stop-color="#ebebff"></stop></linearGradient><linearGradient gradientUnits="objectBoundingBox" id="未命名的渐变_23-2" node-id="11" spreadMethod="pad" x1="-315.85" x2="-313.29" y1="-1047.6" y2="-1047.6"><stop offset="0" stop-color="#548fff"></stop><stop offset="1" stop-color="#949fff"></stop></linearGradient><linearGradient gradientUnits="objectBoundingBox" id="未命名的渐变_49-2" node-id="12" spreadMethod="pad" x1="871.95" x2="949.67" y1="394.82" y2="394.82"><stop offset="0" stop-color="#ebf4ff"></stop><stop offset="1" stop-color="#ebebff"></stop></linearGradient><linearGradient gradientUnits="objectBoundingBox" id="未命名的渐变_94" node-id="13" spreadMethod="pad" x1="629" x2="1347" y1="801" y2="801"><stop offset="0" stop-color="#ebf4ff"></stop><stop offset="1" stop-color="#ebe1ff"></stop></linearGradient><linearGradient gradientUnits="objectBoundingBox" id="未命名的渐变_49-3" node-id="16" spreadMethod="pad" x1="343.4" x2="418.53" y1="537.85" y2="537.85"><stop offset="0" stop-color="#ebf4ff"></stop><stop offset="1" stop-color="#ebebff"></stop></linearGradient><linearGradient gradientUnits="objectBoundingBox" id="未命名的渐变_49-4" node-id="17" spreadMethod="pad" x1="238" x2="523" y1="363" y2="363"><stop offset="0" stop-color="#ebf4ff"></stop><stop offset="1" stop-color="#ebebff"></stop></linearGradient><linearGradient gradientUnits="objectBoundingBox" id="未命名的渐变_49-5" node-id="18" spreadMethod="pad" x1="496.7" x2="523.96" y1="610.32" y2="624.21"><stop offset="0" stop-color="#ebf4ff"></stop><stop offset="1" stop-color="#ebebff"></stop></linearGradient><linearGradient gradientUnits="objectBoundingBox" id="未命名的渐变_49-6" node-id="19" spreadMethod="pad" x1="439.15" x2="492.15" y1="485.88" y2="485.88"><stop offset="0" stop-color="#ebf4ff"></stop><stop offset="1" stop-color="#ebebff"></stop></linearGradient><linearGradient gradientUnits="objectBoundingBox" id="未命名的渐变_17" node-id="20" spreadMethod="pad" x1="-297.33" x2="-294.74" y1="-1021.72" y2="-1021.72"><stop offset="0" stop-color="#eaeff5"></stop><stop offset="0.99" stop-color="#dee1f0"></stop></linearGradient><linearGradient gradientUnits="objectBoundingBox" id="未命名的渐变_23-3" node-id="23" spreadMethod="pad" x1="-316.09" x2="-313.53" y1="-1041.76" y2="-1041.76"><stop offset="0" stop-color="#548fff"></stop><stop offset="1" stop-color="#949fff"></stop></linearGradient><linearGradient gradientUnits="objectBoundingBox" id="未命名的渐变_49-7" node-id="24" spreadMethod="pad" x1="1217.48" x2="1378.44" y1="1022.88" y2="1022.88"><stop offset="0" stop-color="#ebf4ff"></stop><stop offset="1" stop-color="#ebebff"></stop></linearGradient><linearGradient gradientUnits="objectBoundingBox" id="未命名的渐变_23-4" node-id="25" spreadMethod="pad" x1="-332.13" x2="-329.56" y1="-1058.08" y2="-1058.08"><stop offset="0" stop-color="#548fff"></stop><stop offset="1" stop-color="#949fff"></stop></linearGradient><linearGradient gradientUnits="objectBoundingBox" id="未命名的渐变_49-8" node-id="26" spreadMethod="pad" x1="382.95" x2="460.67" y1="956.82" y2="956.82"><stop offset="0" stop-color="#ebf4ff"></stop><stop offset="1" stop-color="#ebebff"></stop></linearGradient></defs><g node-id="216"><g node-id="221"><path d="M 771.70 792.11 L 704.81 753.63 C 699.81 750.72 700.40 745.63 706.22 742.29 L 769.75 705.69 C 775.57 702.34 784.38 701.97 789.43 704.87 L 856.31 743.42 C 861.36 746.32 860.72 751.42 854.90 754.75 L 791.37 791.28 C 785.55 794.65 776.74 795.00 771.70 792.11 Z" fill="#a0b3f8" fill-opacity="0.3" fill-rule="nonzero" group-id="1,6" id="路径" node-id="31" stroke="none" target-height="93.03003" target-width="161.54993" target-x="699.81006" target-y="701.97"></path></g><path d="M 859.69 716.72 C 859.71 716.52 859.71 716.31 859.69 716.11 L 859.69 327.72 L 701.41 327.72 L 701.41 716.84 C 701.41 718.68 702.53 720.45 704.81 721.75 L 771.70 760.23 C 776.70 763.14 785.55 762.78 791.37 759.42 L 854.90 722.82 C 857.84 721.12 859.45 718.99 859.72 716.91 Z" fill="url(#未命名的渐变_23)" fill-rule="nonzero" group-id="1" id="路径-2" node-id="32" stroke="none" target-height="435.42" target-width="158.31012" target-x="701.4099" target-y="327.72"></path><path d="M 771.70 371.59 L 704.81 333.11 C 699.81 330.21 700.40 325.11 706.22 321.78 L 769.75 285.17 C 775.57 281.82 784.38 281.46 789.43 284.37 L 856.31 322.85 C 861.36 325.75 860.72 330.85 854.90 334.18 L 791.37 370.79 C 785.55 374.14 776.74 374.50 771.70 371.59 Z" fill="url(#未命名的渐变_49)" fill-rule="nonzero" group-id="1" id="路径-3" node-id="33" stroke="none" target-height="93.03998" target-width="161.54993" target-x="699.81006" target-y="281.46"></path></g><g node-id="217"><g node-id="222"><path d="M 906.46 548.00 L 873.61 529.09 C 871.14 527.67 871.46 525.16 874.31 523.52 L 905.56 505.52 C 908.42 503.87 912.80 503.69 915.21 505.12 L 948.05 524.04 C 950.53 525.47 950.22 527.96 947.36 529.61 L 916.12 547.61 C 913.25 549.27 908.94 549.45 906.46 548.00 Z" fill="#a0b3f8" fill-opacity="0.3" fill-rule="nonzero" group-id="2,7" id="路径-4" node-id="35" stroke="none" target-height="45.76001" target-width="79.390076" target-x="871.13995" target-y="503.69"></path></g><path d="M 949.66 511.00 C 949.67 510.90 949.67 510.80 949.66 510.70 L 949.66 394.70 L 872.00 394.70 L 872.00 511.07 C 872.07 512.11 872.71 513.03 873.66 513.47 L 906.51 532.39 C 908.99 533.82 913.30 533.59 916.15 531.99 L 947.34 513.99 C 948.54 513.45 949.41 512.38 949.69 511.09 L 949.69 511.09 Z" fill="url(#未命名的渐变_23-2)" fill-rule="nonzero" group-id="2" id="路径-5" node-id="36" stroke="none" target-height="139.12" target-width="77.69006" target-x="872" target-y="394.7"></path><path d="M 906.46 416.24 L 873.61 397.32 C 871.14 395.90 871.46 393.41 874.31 391.77 L 905.50 373.77 C 908.36 372.12 912.74 371.94 915.15 373.36 L 948.00 392.31 C 950.48 393.74 950.17 396.23 947.31 397.88 L 916.12 415.88 C 913.25 417.48 908.94 417.66 906.46 416.24 Z" fill="url(#未命名的渐变_49-2)" fill-rule="nonzero" group-id="2" id="路径-6" node-id="37" stroke="none" target-height="45.72" target-width="79.34003" target-x="871.13995" target-y="371.93997"></path></g><path d="M 1347.00 801.00 C 1347.00 999.27 1186.27 1160.00 988.00 1160.00 C 789.73 1160.00 629.00 999.27 629.00 801.00 C 629.00 602.73 789.73 442.00 988.00 442.00 C 1186.27 442.00 1347.00 602.73 1347.00 801.00 Z" fill="url(#未命名的渐变_94)" fill-rule="nonzero" node-id="176" stroke="#5d83ff" stroke-linecap="butt" stroke-width="18" target-height="718" target-width="718" target-x="629" target-y="442"></path><path d="M 1609.50 1270.00 L 331.50 1270.00 C 319.09 1269.97 309.03 1259.91 309.00 1247.50 L 309.00 1247.50 C 309.03 1235.09 319.09 1225.03 331.50 1225.00 L 1609.50 1225.00 C 1621.91 1225.03 1631.97 1235.09 1632.00 1247.50 L 1632.00 1247.50 C 1631.97 1259.91 1621.91 1269.97 1609.50 1270.00 Z" fill="none" node-id="178" stroke="#d3dcf4" stroke-linecap="butt" stroke-width="20" target-height="45" target-width="1323" target-x="309" target-y="1225"></path><path d="M 1245.00 1311.00 L 1319.85 1311.00 C 1343.37 1311.00 1367.48 1309.32 1390.90 1311.85 C 1398.27 1312.64 1406.97 1313.30 1413.73 1316.94 C 1420.06 1320.35 1419.15 1325.78 1416.65 1331.47 C 1413.07 1339.61 1409.25 1347.14 1409.87 1356.32 C 1410.54 1366.12 1418.60 1370.03 1427.37 1371.88 C 1453.37 1377.37 1480.73 1373.80 1507.00 1373.00 C 1518.56 1372.65 1518.61 1354.64 1507.00 1355.00 C 1483.19 1355.73 1458.89 1358.61 1435.17 1355.08 C 1434.38 1354.96 1424.93 1352.08 1425.01 1352.00 C 1424.57 1352.39 1428.85 1355.50 1427.87 1356.32 C 1427.91 1355.56 1427.89 1354.80 1427.80 1354.04 C 1427.81 1352.11 1428.15 1350.19 1428.80 1348.37 C 1431.32 1340.61 1436.14 1333.99 1436.72 1325.60 C 1438.20 1304.25 1416.27 1297.23 1399.30 1294.92 C 1375.92 1291.75 1352.30 1293.00 1328.71 1293.00 L 1245.00 1293.00 C 1233.42 1293.00 1233.40 1311.00 1245.00 1311.00 Z" fill="#d3dcf4" fill-rule="nonzero" node-id="180" stroke="none" target-height="85.619995" target-width="285.20996" target-x="1233.4" target-y="1291.75"></path><path d="M 497.00 1319.00 L 757.00 1319.00 C 768.58 1319.00 768.60 1301.00 757.00 1301.00 L 497.00 1301.00 C 485.42 1301.00 485.40 1319.00 497.00 1319.00 Z" fill="#d3dcf4" fill-rule="nonzero" node-id="182" stroke="none" target-height="18" target-width="283.19998" target-x="485.4" target-y="1301"></path><path d="M 1101.00 631.00 C 1101.00 655.85 1080.85 676.00 1056.00 676.00 C 1031.15 676.00 1011.00 655.85 1011.00 631.00 C 1011.00 606.15 1031.15 586.00 1056.00 586.00 C 1080.85 586.00 1101.00 606.15 1101.00 631.00 Z" fill="#3a3a77" fill-rule="nonzero" node-id="184" stroke="none" target-height="90" target-width="90" target-x="1011" target-y="586"></path><path d="M 1085.00 827.00 C 1085.00 866.76 1052.76 899.00 1013.00 899.00 C 973.24 899.00 941.00 866.76 941.00 827.00 C 941.00 787.24 973.24 755.00 1013.00 755.00 C 1052.76 755.00 1085.00 787.24 1085.00 827.00 Z" fill="#3a3a77" fill-rule="nonzero" node-id="186" stroke="none" target-height="144" target-width="144" target-x="941" target-y="755"></path><path d="M 813.00 829.00 C 813.00 852.75 793.75 872.00 770.00 872.00 C 746.25 872.00 727.00 852.75 727.00 829.00 C 727.00 805.25 746.25 786.00 770.00 786.00 C 793.75 786.00 813.00 805.25 813.00 829.00 Z" fill="#3a3a77" fill-rule="nonzero" node-id="188" stroke="none" target-height="86" target-width="86" target-x="727" target-y="786"></path><path d="M 885.00 559.00 C 885.00 569.49 876.49 578.00 866.00 578.00 C 855.51 578.00 847.00 569.49 847.00 559.00 C 847.00 548.51 855.51 540.00 866.00 540.00 C 876.49 540.00 885.00 548.51 885.00 559.00 Z" fill="#3a3a77" fill-rule="nonzero" node-id="190" stroke="none" target-height="38" target-width="38" target-x="847" target-y="540"></path><path d="M 1220.00 989.00 C 1220.00 1005.57 1206.57 1019.00 1190.00 1019.00 C 1173.43 1019.00 1160.00 1005.57 1160.00 989.00 C 1160.00 972.43 1173.43 959.00 1190.00 959.00 C 1206.57 959.00 1220.00 972.43 1220.00 989.00 Z" fill="#3a3a77" fill-rule="nonzero" node-id="192" stroke="none" target-height="60" target-width="60" target-x="1160" target-y="959"></path><path d="M 977.00 1064.00 C 977.00 1090.51 955.51 1112.00 929.00 1112.00 C 902.49 1112.00 881.00 1090.51 881.00 1064.00 C 881.00 1037.49 902.49 1016.00 929.00 1016.00 C 955.51 1016.00 977.00 1037.49 977.00 1064.00 Z" fill="#d3dcf4" fill-rule="nonzero" node-id="194" stroke="none" target-height="96" target-width="96" target-x="881" target-y="1016"></path><path d="M 1296.57 636.69 C 1276.71 640.43 1260.92 655.54 1256.33 675.23 C 1251.74 694.92 1259.21 715.45 1275.38 727.59 C 1291.54 739.73 1313.35 741.18 1330.97 731.28 C 1324.04 698.28 1312.45 666.43 1296.57 636.69 Z" fill="#d3dcf4" fill-rule="nonzero" node-id="196" stroke="none" target-height="104.486206" target-width="79.226685" target-x="1251.7433" target-y="636.69"></path><path d="M 709.50 1039.65 C 704.26 1039.65 699.08 1039.60 693.97 1039.49 C 644.11 1038.40 603.15 1032.01 572.24 1020.49 C 537.79 1007.66 516.73 988.79 509.64 964.39 C 502.83 940.99 509.64 914.94 529.81 886.96 C 547.92 861.88 581.81 832.54 620.00 805.96 L 621.00 828.96 C 550.61 877.86 523.10 924.69 532.68 957.65 C 537.54 974.36 553.68 987.93 580.62 997.96 C 609.01 1008.54 647.32 1014.42 694.49 1015.45 C 699.49 1015.56 704.49 1015.62 709.58 1015.62 C 805.66 1015.62 924.39 996.40 1046.09 961.02 C 1174.23 923.76 1290.00 873.13 1372.09 818.45 C 1411.36 792.29 1440.54 766.78 1458.83 742.64 C 1476.20 719.71 1482.54 699.64 1477.68 682.91 C 1467.12 646.59 1412.13 624.91 1312.07 624.91 L 1311.07 624.91 L 1297.07 600.91 L 1301.15 600.91 C 1415.78 600.91 1486.65 627.62 1500.77 676.18 C 1507.86 700.57 1500.20 727.80 1478.00 757.10 C 1458.09 783.39 1426.94 810.74 1385.44 838.40 C 1301.44 894.40 1183.28 946.11 1052.86 984.03 C 929.00 1020.10 807.84 1039.65 709.50 1039.65 Z" fill="#fe9f39" fill-rule="nonzero" node-id="198" stroke="none" target-height="438.74005" target-width="1005.03" target-x="502.83" target-y="600.91"></path><path d="M 1358.00 358.00 L 1320.00 322.00 L 1273.00 397.00 L 1358.00 358.00 Z" fill="#d3dcf4" fill-rule="nonzero" node-id="200" stroke="none" target-height="75" target-width="85" target-x="1273" target-y="322"></path><path d="M 1285.00 437.00 L 1414.00 418.00 L 1405.00 477.00 L 1285.00 437.00 Z" fill="#d3dcf4" fill-rule="nonzero" node-id="202" stroke="none" target-height="59" target-width="129" target-x="1285" target-y="418"></path><path d="M 377.90 560.87 C 385.10 561.87 386.18 564.77 384.42 571.56 C 382.34 579.56 378.04 586.85 374.15 594.05 C 371.37 599.17 366.78 605.60 366.92 611.70 C 367.12 620.51 377.71 624.90 384.92 625.83 C 393.14 626.83 401.86 625.04 409.92 627.01 C 417.23 628.79 417.25 635.26 413.50 640.43 C 407.56 648.63 398.68 654.99 390.92 661.33 C 383.80 667.14 375.52 673.00 370.50 680.86 C 363.03 692.58 363.06 708.63 363.83 721.97 C 364.75 737.78 367.77 753.47 367.88 769.33 C 367.93 776.28 378.73 776.33 378.68 769.33 C 378.59 755.02 376.08 740.85 374.95 726.60 C 373.95 714.00 372.71 698.26 379.48 686.89 C 384.16 679.02 393.48 673.13 400.41 667.45 C 408.56 660.79 417.41 654.02 423.32 645.17 C 428.24 637.82 428.39 627.95 421.86 621.39 C 415.50 615.02 405.29 615.39 396.99 615.50 C 392.91 615.50 388.67 615.74 384.65 614.93 C 382.97 614.67 381.36 614.09 379.90 613.21 C 379.28 612.79 378.90 612.21 378.31 611.80 C 378.06 611.61 377.95 611.06 377.72 610.92 C 377.78 610.92 376.46 610.42 377.72 611.70 C 377.52 611.48 377.40 612.18 377.67 611.70 C 377.87 611.20 378.03 610.67 378.13 610.14 C 378.56 608.92 379.09 607.74 379.71 606.61 C 381.50 603.00 383.49 599.49 385.39 595.94 C 389.94 587.46 395.04 578.26 395.86 568.49 C 396.68 558.72 390.32 551.77 380.77 550.49 C 373.97 549.56 371.03 559.96 377.90 560.90 Z" fill="#d3dcf4" fill-rule="nonzero" node-id="204" stroke="none" target-height="226.77002" target-width="65.36005" target-x="363.03" target-y="549.56"></path><path d="M 365.00 521.00 C 365.00 521.00 358.00 545.00 350.00 548.00 C 342.00 551.00 334.00 562.00 373.00 558.00 C 412.00 554.00 421.00 550.00 418.00 543.00 C 415.00 536.00 392.56 536.09 390.00 522.00 C 388.00 511.00 365.00 521.00 365.00 521.00 Z" fill="url(#未命名的渐变_49-3)" fill-rule="nonzero" node-id="206" stroke="#d3dcf4" stroke-linecap="butt" stroke-width="12" target-height="51" target-width="87" target-x="334" target-y="511"></path><path d="M 523.00 363.00 C 523.00 450.81 459.20 522.00 380.50 522.00 C 301.80 522.00 238.00 450.81 238.00 363.00 C 238.00 275.19 301.80 204.00 380.50 204.00 C 459.20 204.00 523.00 275.19 523.00 363.00 Z" fill="url(#未命名的渐变_49-4)" fill-rule="nonzero" node-id="208" stroke="#d3dcf4" stroke-linecap="butt" stroke-width="12" target-height="318" target-width="285" target-x="238" target-y="204"></path><path d="M 510.00 607.00 C 510.09 606.92 501.65 616.61 493.00 621.00 C 487.00 624.00 485.00 633.00 510.00 638.00 C 526.67 641.33 510.00 628.00 517.00 607.00 C 524.00 586.00 510.00 607.00 510.00 607.00 Z" fill="url(#未命名的渐变_49-5)" fill-rule="nonzero" node-id="210" stroke="#d3dcf4" stroke-linecap="butt" stroke-width="8" target-height="55.330017" target-width="41.669983" target-x="485" target-y="586"></path><path d="M 491.48 494.50 C 517.36 443.71 569.16 418.25 607.19 437.62 C 645.22 456.99 655.06 513.88 629.19 564.62 C 603.32 615.36 545.53 623.46 516.00 610.00 C 487.72 597.10 465.60 545.28 491.48 494.50 Z" fill="url(#未命名的渐变_49-6)" fill-rule="nonzero" node-id="212" stroke="#d3dcf4" stroke-linecap="butt" stroke-width="8" target-height="205.21002" target-width="189.45999" target-x="465.6" target-y="418.25"></path><path d="M 495.36 638.77 C 508.07 656.77 487.47 674.13 480.43 690.01 C 477.44 696.56 475.85 703.66 475.75 710.86 C 475.75 714.20 476.13 717.53 476.20 720.86 C 476.20 723.10 476.78 727.71 475.07 729.56 C 471.14 733.80 477.49 740.18 481.43 735.92 C 486.43 730.50 485.29 721.73 484.93 714.92 C 484.37 706.73 486.05 698.54 489.78 691.22 C 499.14 673.34 517.66 654.76 503.14 634.22 C 499.82 629.52 492.01 634.02 495.36 638.76 Z" fill="#d3dcf4" fill-rule="nonzero" node-id="214" stroke="none" target-height="110.65997" target-width="46.51996" target-x="471.14" target-y="629.52"></path><g node-id="218"><g node-id="223"><g node-id="226"><path d="M 1401.70 1195.13 L 1368.91 1176.22 C 1366.50 1174.79 1366.75 1172.31 1369.60 1170.66 L 1400.75 1152.66 C 1403.60 1151.02 1407.97 1150.84 1410.37 1152.27 L 1443.17 1171.17 C 1445.65 1172.60 1445.33 1175.09 1442.48 1176.74 L 1411.34 1194.74 C 1408.49 1196.33 1404.18 1196.55 1401.70 1195.13 Z" fill="#c9cfe5" fill-opacity="0.3" fill-rule="nonzero" group-id="3,8,11" id="路径-7" node-id="60" stroke="none" target-height="45.710083" target-width="79.15015" target-x="1366.5" target-y="1150.84"></path></g><path d="M 1444.84 1158.14 C 1444.85 1158.04 1444.85 1157.94 1444.84 1157.84 L 1444.84 814.84 L 1367.25 814.84 L 1367.25 1158.21 C 1367.32 1159.26 1367.96 1160.18 1368.91 1160.62 L 1401.70 1179.52 C 1404.18 1180.94 1408.49 1180.73 1411.33 1179.12 L 1442.47 1161.12 C 1443.66 1160.57 1444.53 1159.50 1444.82 1158.22 Z" fill="url(#未命名的渐变_17)" fill-rule="nonzero" group-id="3,8" id="路径-8" node-id="61" stroke="none" target-height="366.0999" target-width="77.59985" target-x="1367.25" target-y="814.84"></path><path d="M 1401.70 836.35 L 1368.91 817.44 C 1366.50 816.01 1366.75 813.52 1369.60 811.88 L 1400.75 793.88 C 1403.60 792.23 1407.97 792.05 1410.37 793.47 C 1411.98 794.42 1422.92 800.73 1443.17 812.39 C 1445.65 813.81 1445.33 816.30 1442.48 817.94 L 1411.34 835.94 C 1408.49 837.60 1404.18 837.76 1401.70 836.35 Z" fill="#fafbfd" fill-rule="nonzero" group-id="3,8" id="路径-9" node-id="62" stroke="none" target-height="45.710083" target-width="79.15015" target-x="1366.5" target-y="792.05"></path></g></g><g node-id="219"><g node-id="224"><path d="M 1288.94 1241.41 L 1220.94 1202.23 C 1215.80 1199.29 1216.44 1194.13 1222.37 1190.71 L 1287.00 1153.50 C 1292.92 1150.09 1301.87 1149.73 1307.00 1152.67 L 1375.00 1191.85 C 1380.12 1194.85 1379.48 1199.96 1373.56 1203.38 L 1308.96 1240.58 C 1303.00 1244.00 1294.07 1244.36 1288.94 1241.41 Z" fill="#a0b3f8" fill-opacity="0.3" fill-rule="nonzero" group-id="4,9" id="路径-10" node-id="64" stroke="none" target-height="94.630005" target-width="164.31995" target-x="1215.8" target-y="1149.73"></path></g><path d="M 1378.41 1170.78 C 1378.43 1170.57 1378.43 1170.37 1378.41 1170.16 L 1378.41 1022.69 L 1217.49 1022.69 L 1217.49 1170.90 C 1217.49 1172.77 1218.62 1174.51 1220.95 1175.90 L 1288.95 1215.06 C 1294.07 1218.06 1303.03 1217.65 1308.95 1214.24 L 1373.56 1177.03 C 1376.56 1175.31 1378.18 1173.13 1378.38 1171.03 L 1378.38 1171.03 Z" fill="url(#未命名的渐变_23-3)" fill-rule="nonzero" group-id="4" id="路径-11" node-id="65" stroke="none" target-height="195.37006" target-width="160.94006" target-x="1217.49" target-y="1022.69"></path><path d="M 1288.94 1067.30 L 1220.94 1028.08 C 1215.80 1025.08 1216.44 1019.96 1222.37 1016.56 L 1287.00 979.28 C 1292.92 975.88 1301.88 975.50 1307.00 978.46 L 1375.00 1017.63 C 1380.12 1020.63 1379.48 1025.75 1373.57 1029.15 L 1308.96 1066.43 C 1303.00 1069.88 1294.07 1070.26 1288.94 1067.30 Z" fill="url(#未命名的渐变_49-7)" fill-rule="nonzero" group-id="4" id="路径-12" node-id="66" stroke="none" target-height="94.76001" target-width="164.31995" target-x="1215.8" target-y="975.5"></path></g><g node-id="220"><g node-id="225"><path d="M 417.46 1110.00 L 384.61 1091.09 C 382.14 1089.67 382.46 1087.16 385.31 1085.52 L 416.56 1067.52 C 419.42 1065.87 423.80 1065.69 426.21 1067.12 L 459.05 1086.04 C 461.53 1087.47 461.22 1089.96 458.36 1091.61 L 427.12 1109.61 C 424.25 1111.27 419.94 1111.45 417.46 1110.00 Z" fill="#a0b3f8" fill-opacity="0.3" fill-rule="nonzero" group-id="5,10" id="路径-13" node-id="68" stroke="none" target-height="45.76001" target-width="79.389984" target-x="382.14" target-y="1065.69"></path></g><path d="M 460.66 1073.00 C 460.67 1072.90 460.67 1072.80 460.66 1072.70 L 460.66 956.70 L 383.00 956.70 L 383.00 1073.08 C 383.07 1074.12 383.71 1075.04 384.66 1075.48 L 417.51 1094.40 C 419.99 1095.83 424.30 1095.60 427.15 1094.00 L 458.34 1076.00 C 459.54 1075.46 460.41 1074.38 460.69 1073.10 L 460.69 1073.10 Z" fill="url(#未命名的渐变_23-4)" fill-rule="nonzero" group-id="5" id="路径-14" node-id="69" stroke="none" target-height="139.12994" target-width="77.69003" target-x="383" target-y="956.7"></path><path d="M 417.46 978.24 L 384.61 959.32 C 382.14 957.90 382.46 955.41 385.31 953.77 L 416.50 935.77 C 419.36 934.12 423.74 933.94 426.15 935.36 L 459.00 954.31 C 461.48 955.74 461.17 958.23 458.31 959.88 L 427.12 977.88 C 424.25 979.48 419.94 979.66 417.46 978.24 Z" fill="url(#未命名的渐变_49-8)" fill-rule="nonzero" group-id="5" id="路径-15" node-id="70" stroke="none" target-height="45.71997" target-width="79.34" target-x="382.14" target-y="933.94"></path></g></svg>