<?xml version="1.0" standalone="no"?><!DOCTYPE svg PUBLIC "-//W3C//DTD SVG 1.1//EN" "http://www.w3.org/Graphics/SVG/1.1/DTD/svg11.dtd"><svg height="1500" node-id="1" sillyvg="true" template-height="1500" template-width="1716" version="1.1" viewBox="0 0 1716 1500" width="1716" xmlns="http://www.w3.org/2000/svg" xmlns:xlink="http://www.w3.org/1999/xlink"><defs node-id="56"><linearGradient gradientUnits="objectBoundingBox" id="未命名的渐变_17" node-id="5" spreadMethod="pad" x1="1400.45" x2="1403.03" y1="2182.5" y2="2182.5"><stop offset="0" stop-color="#eaeff5"></stop><stop offset="0.99" stop-color="#dee1f0"></stop></linearGradient><linearGradient gradientUnits="objectBoundingBox" id="未命名的渐变_23" node-id="8" spreadMethod="pad" x1="1430.64" x2="1433.2" y1="2181.74" y2="2181.74"><stop offset="0" stop-color="#548fff"></stop><stop offset="1" stop-color="#949fff"></stop></linearGradient><linearGradient gradientUnits="objectBoundingBox" id="未命名的渐变_49" node-id="11" spreadMethod="pad" x1="548.21" x2="706.52" y1="361.98" y2="361.98"><stop offset="0" stop-color="#ebf4ff"></stop><stop offset="1" stop-color="#ebebff"></stop></linearGradient><linearGradient gradientUnits="objectBoundingBox" id="未命名的渐变_49-2" node-id="14" spreadMethod="pad" x1="472.43" x2="1240.77" y1="727.12" y2="727.12"><stop offset="0" stop-color="#ebf4ff"></stop><stop offset="1" stop-color="#ebebff"></stop></linearGradient><linearGradient gradientUnits="objectBoundingBox" id="未命名的渐变_82" node-id="15" spreadMethod="pad" x1="374.81" x2="1299.81" y1="862.5" y2="862.5"><stop offset="0" stop-color="#ebf4ff"></stop><stop offset="1" stop-color="#ebb9ff"></stop></linearGradient><linearGradient gradientUnits="objectBoundingBox" id="未命名的渐变_78" node-id="18" spreadMethod="pad" x1="161.81" x2="1086.81" y1="862.5" y2="862.5"><stop offset="0" stop-color="#ebf4ff"></stop><stop offset="1" stop-color="#ebb9ff"></stop></linearGradient><linearGradient gradientUnits="objectBoundingBox" id="未命名的渐变_49-3" node-id="19" spreadMethod="pad" x1="369.49" x2="1371.81" y1="967.77" y2="967.77"><stop offset="0" stop-color="#ebf4ff"></stop><stop offset="1" stop-color="#ebebff"></stop></linearGradient><linearGradient gradientUnits="objectBoundingBox" id="未命名的渐变_49-4" node-id="20" spreadMethod="pad" x1="344.14" x2="466.68" y1="1040.21" y2="1040.21"><stop offset="0" stop-color="#ebf4ff"></stop><stop offset="1" stop-color="#ebebff"></stop></linearGradient><linearGradient gradientUnits="objectBoundingBox" id="未命名的渐变_49-5" node-id="21" spreadMethod="pad" x1="364.14" x2="441.47" y1="1097.5" y2="1097.5"><stop offset="0" stop-color="#ebf4ff"></stop><stop offset="1" stop-color="#ebebff"></stop></linearGradient><linearGradient gradientUnits="objectBoundingBox" id="未命名的渐变_49-6" node-id="22" spreadMethod="pad" x1="195.07" x2="317.01" y1="870.05" y2="870.05"><stop offset="0" stop-color="#ebf4ff"></stop><stop offset="1" stop-color="#ebebff"></stop></linearGradient></defs><g node-id="186"><g node-id="192"><path d="M 517.50 666.13 L 484.71 647.22 C 482.31 645.79 482.56 643.31 485.41 641.66 L 516.55 623.66 C 519.41 622.02 523.77 621.84 526.18 623.27 L 559.00 642.21 C 561.48 643.64 561.17 646.13 558.32 647.78 L 527.17 665.78 C 524.29 667.33 520.00 667.55 517.50 666.13 Z" fill="#c9cfe5" fill-opacity="0.3" fill-rule="nonzero" group-id="1,7" id="路径" node-id="27" stroke="none" target-height="45.70996" target-width="79.17001" target-x="482.30997" target-y="621.84"></path></g><path d="M 560.65 629.14 L 560.65 285.81 L 483.05 285.81 L 483.05 629.18 C 483.13 630.22 483.76 631.15 484.71 631.59 L 517.50 650.49 C 519.98 651.91 524.29 651.70 527.13 650.09 L 558.28 632.09 C 559.47 631.54 560.34 630.47 560.62 629.19 Z" fill="url(#未命名的渐变_17)" fill-rule="nonzero" group-id="1" id="路径-2" node-id="28" stroke="none" target-height="366.09998" target-width="77.600006" target-x="483.05002" target-y="285.81"></path><path d="M 517.50 307.35 L 484.71 288.44 C 482.31 287.01 482.56 284.52 485.41 282.88 L 516.55 264.88 C 519.41 263.23 523.77 263.05 526.18 264.47 C 527.79 265.42 538.72 271.72 558.97 283.39 C 561.45 284.81 561.14 287.30 558.29 288.94 L 527.14 306.94 C 524.29 308.60 520.00 308.76 517.50 307.35 Z" fill="#fafbfd" fill-rule="nonzero" group-id="1" id="路径-3" node-id="29" stroke="none" target-height="45.710022" target-width="79.140045" target-x="482.30997" target-y="263.05"></path></g><g node-id="187"><g node-id="193"><path d="M 618.50 826.11 L 551.61 787.63 C 546.56 784.72 547.20 779.63 553.02 776.29 L 616.55 739.69 C 622.37 736.34 631.18 735.97 636.23 738.87 L 703.11 777.42 C 708.11 780.32 707.52 785.42 701.70 788.75 L 638.17 825.28 C 632.35 828.65 623.54 829.00 618.50 826.11 Z" fill="#a0b3f8" fill-opacity="0.3" fill-rule="nonzero" group-id="2,8" id="路径-4" node-id="31" stroke="none" target-height="93.03009" target-width="161.54999" target-x="546.56" target-y="735.9699"></path></g><path d="M 706.50 750.72 C 706.50 750.51 706.50 750.31 706.50 750.11 L 706.50 361.72 L 548.21 361.72 L 548.21 750.84 C 548.21 752.68 549.33 754.45 551.61 755.75 L 618.50 794.23 C 623.50 797.14 632.35 796.78 638.17 793.42 L 701.70 756.82 C 704.64 755.12 706.26 752.99 706.52 750.91 Z" fill="url(#未命名的渐变_23)" fill-rule="nonzero" group-id="2" id="路径-5" node-id="32" stroke="none" target-height="435.42" target-width="158.31" target-x="548.21" target-y="361.72"></path><path d="M 618.50 405.59 L 551.61 367.11 C 546.56 364.21 547.20 359.11 553.02 355.78 L 616.55 319.17 C 622.37 315.82 631.18 315.46 636.23 318.37 L 703.11 356.85 C 708.11 359.75 707.52 364.85 701.70 368.18 L 638.17 404.79 C 632.35 408.14 623.54 408.50 618.50 405.59 Z" fill="url(#未命名的渐变_49)" fill-rule="nonzero" group-id="2" id="路径-6" node-id="33" stroke="none" target-height="93.04004" target-width="161.54999" target-x="546.56" target-y="315.46"></path></g><path d="M 395.31 593.50 C 395.31 593.50 807.31 386.50 869.31 386.50 C 929.31 386.50 1343.31 593.50 1343.31 593.50 C 1359.31 599.50 1371.31 606.10 1371.31 621.50 L 1371.31 1100.50 C 1371.27 1115.95 1358.76 1128.46 1343.31 1128.50 L 395.31 1128.50 C 379.86 1128.46 367.35 1115.95 367.31 1100.50 L 367.31 621.50 C 367.31 606.10 379.31 599.50 395.31 593.50 Z" fill="#ffffff" fill-rule="nonzero" node-id="136" stroke="none" target-height="742" target-width="1004.00006" target-x="367.31" target-y="386.5"></path><path d="M 395.81 590.00 C 395.81 590.00 825.81 383.00 869.81 383.00 C 914.81 383.00 1343.81 590.00 1343.81 590.00 C 1359.81 596.00 1371.81 602.60 1371.81 618.00 L 1371.81 1097.00 C 1371.77 1112.45 1359.26 1124.96 1343.81 1125.00 L 395.81 1125.00 C 380.36 1124.96 367.85 1112.45 367.81 1097.00 L 367.81 618.00 C 367.81 602.60 379.81 596.00 395.81 590.00 Z" fill="none" node-id="138" stroke="#5d83ff" stroke-linecap="butt" stroke-width="18" target-height="742" target-width="1004.00006" target-x="367.81" target-y="383"></path><g node-id="188"><path d="M 509.73 559.33 L 1095.87 425.08 C 1121.71 419.16 1147.45 435.31 1153.37 461.16 L 1239.55 837.41 C 1245.47 863.25 1229.32 889.00 1203.48 894.92 L 617.33 1029.16 C 591.49 1035.08 565.75 1018.93 559.83 993.09 L 473.65 616.83 C 467.73 590.99 483.88 565.25 509.73 559.33 Z" fill="url(#未命名的渐变_49-2)" fill-rule="nonzero" group-id="3" node-id="142" stroke="none" target-height="615.91626" target-width="777.7317" target-x="467.73425" target-y="419.16418"></path></g><g node-id="189"><path d="M 638.00 655.97 L 1035.60 574.79 C 1057.24 570.37 1078.37 584.33 1082.79 605.98 L 1082.79 605.98 C 1087.21 627.62 1073.25 648.75 1051.60 653.17 L 654.01 734.35 C 632.36 738.77 611.23 724.81 606.81 703.16 L 606.81 703.16 C 602.39 681.52 616.36 660.39 638.00 655.97 Z" fill="#ffffff" fill-rule="nonzero" group-id="4" node-id="147" stroke="#fe9f39" stroke-linecap="butt" stroke-width="24" target-height="168.40277" target-width="484.8186" target-x="602.39294" target-y="570.3696"></path></g><g node-id="190"><path d="M 670.99 794.97 L 1068.59 713.79 C 1090.23 709.37 1111.36 723.33 1115.78 744.98 L 1115.78 744.98 C 1120.20 766.62 1106.24 787.75 1084.59 792.17 L 687.00 873.35 C 665.35 877.77 644.22 863.81 639.80 842.16 L 639.80 842.16 C 635.38 820.52 649.35 799.39 670.99 794.97 Z" fill="#ffffff" fill-rule="nonzero" group-id="5" node-id="152" stroke="#fe9f39" stroke-linecap="butt" stroke-width="24" target-height="168.40271" target-width="484.8186" target-x="635.38306" target-y="709.36804"></path></g><path d="M 1299.81 1122.00 L 374.81 1122.00 L 374.81 603.00 L 1299.81 1122.00 Z" fill="url(#未命名的渐变_82)" fill-rule="nonzero" node-id="155" stroke="none" target-height="519" target-width="925.00006" target-x="374.81" target-y="603"></path><path d="M 437.81 1122.00 L 1362.81 1122.00 L 1362.81 603.00 L 437.81 1122.00 Z" fill="url(#未命名的渐变_78)" fill-rule="nonzero" node-id="157" stroke="none" target-height="519" target-width="925.00006" target-x="437.81" target-y="603"></path><path d="M 1373.81 603.00 L 932.81 849.00" fill="none" node-id="159" stroke="#5d83ff" stroke-linecap="butt" stroke-width="18" target-height="246" target-width="441.00006" target-x="932.81" target-y="603"></path><path d="M 374.81 603.00 L 815.81 849.00" fill="none" node-id="161" stroke="#5d83ff" stroke-linecap="butt" stroke-width="18" target-height="246" target-width="441" target-x="374.81" target-y="603"></path><path d="M 1371.81 1096.00 L 1371.81 1092.35 C 1365.70 1082.11 1356.11 1073.09 1342.24 1066.14 L 953.00 835.92 C 901.79 807.00 869.79 800.00 811.58 835.92 L 406.88 1072.65 C 389.30 1084.02 377.24 1094.97 369.49 1105.53 C 373.53 1116.59 384.03 1123.96 395.81 1124.00 L 1343.81 1124.00 C 1359.26 1123.96 1371.77 1111.45 1371.81 1096.00 Z" fill="url(#未命名的渐变_49-3)" fill-rule="nonzero" node-id="163" stroke="#5d83ff" stroke-linecap="butt" stroke-width="18" target-height="324" target-width="1002.32007" target-x="369.49" target-y="800"></path><path d="M 546.63 1126.57 L 270.00 1142.23 C 260.58 1145.38 250.39 1140.34 247.18 1130.94 L 221.65 1047.41 C 218.51 1037.99 223.55 1027.80 232.95 1024.59 L 483.56 939.93 C 492.98 936.78 503.17 941.82 506.38 951.22 L 557.91 1103.75 C 561.06 1113.16 556.02 1123.35 546.63 1126.57 Z" fill="#3a3a77" fill-rule="nonzero" node-id="165" stroke="none" target-height="208.60016" target-width="342.5485" target-x="218.50668" target-y="936.77997"></path><path d="M 1484.31 1182.00 L 206.31 1182.00 C 193.90 1181.97 183.84 1171.91 183.81 1159.50 L 183.81 1159.50 C 183.84 1147.09 193.90 1137.03 206.31 1137.00 L 1484.31 1137.00 C 1496.72 1137.04 1506.77 1147.09 1506.81 1159.50 L 1506.81 1159.50 C 1506.77 1171.91 1496.72 1181.96 1484.31 1182.00 Z" fill="none" node-id="167" stroke="#d3dcf4" stroke-linecap="butt" stroke-width="20" target-height="45" target-width="1323" target-x="183.81001" target-y="1137"></path><path d="M 1119.81 1223.00 L 1194.65 1223.00 C 1218.17 1223.00 1242.29 1221.32 1265.71 1223.85 C 1273.08 1224.64 1281.78 1225.30 1288.54 1228.94 C 1294.87 1232.35 1293.95 1237.78 1291.45 1243.47 C 1287.88 1251.61 1284.05 1259.14 1284.68 1268.32 C 1285.35 1278.12 1293.40 1282.03 1302.18 1283.88 C 1328.18 1289.37 1355.53 1285.80 1381.81 1285.00 C 1393.36 1284.65 1393.41 1266.64 1381.81 1267.00 C 1357.99 1267.73 1333.70 1270.61 1309.98 1267.08 C 1309.19 1266.96 1299.74 1264.08 1299.82 1264.00 C 1299.37 1264.39 1303.66 1267.50 1302.68 1268.32 C 1302.72 1267.56 1302.69 1266.80 1302.60 1266.04 C 1302.61 1264.11 1302.95 1262.19 1303.60 1260.37 C 1306.11 1252.61 1310.94 1245.99 1311.52 1237.60 C 1312.99 1216.25 1291.07 1209.23 1274.10 1206.92 C 1250.71 1203.75 1227.04 1205.00 1203.50 1205.00 L 1119.80 1205.00 C 1108.21 1205.00 1108.19 1223.00 1119.80 1223.00 Z" fill="#d3dcf4" fill-rule="nonzero" node-id="169" stroke="none" target-height="85.619995" target-width="285.2201" target-x="1108.19" target-y="1203.75"></path><path d="M 371.81 1231.00 L 631.81 1231.00 C 643.39 1231.00 643.41 1213.00 631.81 1213.00 L 371.81 1213.00 C 360.22 1213.00 360.20 1231.00 371.81 1231.00 Z" fill="#d3dcf4" fill-rule="nonzero" node-id="171" stroke="none" target-height="18" target-width="283.20993" target-x="360.20004" target-y="1213"></path><path d="M 1299.81 336.00 L 1266.81 268.00 L 1206.81 357.00 L 1299.81 336.00 Z" fill="#d3dcf4" fill-rule="nonzero" node-id="173" stroke="none" target-height="89" target-width="93" target-x="1206.81" target-y="268"></path><path d="M 1355.81 383.00 L 1217.81 386.00 L 1335.81 469.00 L 1355.81 383.00 Z" fill="#d3dcf4" fill-rule="nonzero" node-id="175" stroke="none" target-height="86" target-width="138" target-x="1217.81" target-y="383"></path><g node-id="191"><path d="M 346.70 1071.18 C 387.46 1056.40 428.13 1041.38 468.90 1026.60 C 473.47 1024.94 476.55 1020.48 475.18 1015.53 C 473.97 1011.12 468.71 1007.58 464.11 1009.24 C 423.35 1024.02 382.68 1039.05 341.91 1053.82 C 337.35 1055.48 334.27 1059.94 335.63 1064.89 C 336.84 1069.30 342.11 1072.84 346.70 1071.18 Z" fill="url(#未命名的渐变_49-4)" fill-rule="nonzero" group-id="6" node-id="178" stroke="none" target-height="65.25995" target-width="142.28" target-x="334.27" target-y="1007.58"></path><path d="M 366.70 1119.18 C 392.32 1110.38 418.08 1101.98 443.70 1093.18 C 454.59 1089.44 449.91 1072.04 438.91 1075.82 C 413.29 1084.62 387.53 1093.02 361.91 1101.82 C 351.02 1105.56 355.70 1122.96 366.70 1119.18 Z" fill="url(#未命名的渐变_49-5)" fill-rule="nonzero" group-id="6" node-id="180" stroke="none" target-height="50.91992" target-width="103.57004" target-x="351.02" target-y="1072.04"></path><path d="M 195.14 818.30 C 221.05 816.11 248.44 829.93 262.40 851.87 C 273.10 868.69 274.51 893.35 265.03 911.29 C 260.58 919.72 253.28 923.73 243.78 921.23 C 236.78 919.39 232.87 913.78 232.03 906.90 C 231.03 898.70 233.67 889.98 238.37 883.28 C 243.78 875.55 251.98 872.72 261.14 871.86 C 273.22 870.74 285.33 874.04 294.25 882.49 C 304.64 892.34 309.06 906.49 310.01 920.49 C 310.55 928.49 323.16 928.60 322.61 920.49 C 321.53 904.60 316.92 889.05 306.31 876.86 C 297.02 866.43 283.99 860.08 270.05 859.17 C 257.45 858.22 243.05 860.92 233.57 869.69 C 225.20 877.42 220.44 888.81 219.43 900.03 C 218.50 910.30 221.56 921.38 229.83 928.03 C 239.24 935.60 254.56 937.08 264.78 930.30 C 275.44 923.23 280.27 910.05 282.26 897.93 C 284.25 885.81 284.49 873.11 280.73 861.38 C 269.65 826.88 230.90 802.65 195.14 805.68 C 187.14 806.36 187.05 818.97 195.14 818.28 Z" fill="url(#未命名的渐变_49-6)" fill-rule="nonzero" group-id="6" node-id="182" stroke="none" target-height="134.43" target-width="136.11" target-x="187.05" target-y="802.65"></path><path d="M 265.00 1078.79 C 269.00 1085.33 274.08 1093.13 282.00 1095.24 C 289.26 1097.18 295.30 1092.68 299.25 1087.05 C 302.81 1081.99 304.99 1075.98 307.54 1070.38 C 308.93 1067.24 310.48 1064.17 312.18 1061.18 C 313.45 1058.64 315.21 1056.37 317.36 1054.51 C 325.46 1047.13 313.41 1035.13 305.36 1042.51 C 296.72 1050.38 293.14 1062.03 288.16 1072.22 C 287.18 1074.29 286.06 1076.30 284.80 1078.22 C 283.89 1079.58 285.26 1077.65 284.67 1078.38 C 284.57 1078.52 283.98 1079.28 283.81 1079.27 C 283.34 1079.27 285.50 1078.84 284.57 1078.86 C 284.91 1078.86 286.50 1078.86 285.33 1078.73 C 286.75 1078.83 286.00 1079.05 286.44 1078.92 C 286.72 1078.84 285.81 1078.40 285.90 1078.48 C 283.30 1076.17 281.50 1073.19 279.71 1070.25 C 274.01 1060.93 259.30 1069.46 265.03 1078.83 Z" fill="#fe9f39" fill-rule="nonzero" group-id="6" node-id="184" stroke="none" target-height="62.05005" target-width="66.16" target-x="259.3" target-y="1035.13"></path></g></svg>