<?xml version="1.0" standalone="no"?><!DOCTYPE svg PUBLIC "-//W3C//DTD SVG 1.1//EN" "http://www.w3.org/Graphics/SVG/1.1/DTD/svg11.dtd"><svg height="1500" node-id="1" sillyvg="true" template-height="1500" template-width="1716" version="1.1" viewBox="0 0 1716 1500" width="1716" xmlns="http://www.w3.org/2000/svg" xmlns:xlink="http://www.w3.org/1999/xlink"><defs node-id="66"><linearGradient gradientUnits="objectBoundingBox" id="未命名的渐变_49" node-id="5" spreadMethod="pad" x1="264.05" x2="1454.4" y1="895.16" y2="895.16"><stop offset="0" stop-color="#ebf4ff"></stop><stop offset="1" stop-color="#ebebff"></stop></linearGradient><linearGradient gradientUnits="objectBoundingBox" id="未命名的渐变_94" node-id="8" spreadMethod="pad" x1="276" x2="776" y1="911" y2="911"><stop offset="0" stop-color="#ebf4ff"></stop><stop offset="1" stop-color="#ebe1ff"></stop></linearGradient><linearGradient gradientUnits="objectBoundingBox" id="未命名的渐变_94-2" node-id="11" spreadMethod="pad" x1="699.5" x2="1257" y1="850.75" y2="850.75"><stop offset="0" stop-color="#ebf4ff"></stop><stop offset="1" stop-color="#ebe1ff"></stop></linearGradient><linearGradient gradientUnits="objectBoundingBox" id="未命名的渐变_49-2" node-id="12" spreadMethod="pad" x1="890" x2="1430" y1="798.5" y2="798.5"><stop offset="0" stop-color="#ebf4ff"></stop><stop offset="1" stop-color="#ebebff"></stop></linearGradient><linearGradient gradientUnits="objectBoundingBox" id="未命名的渐变_17" node-id="13" spreadMethod="pad" x1="1427.81" x2="1430.39" y1="-1021.44" y2="-1021.44"><stop offset="0" stop-color="#eaeff5"></stop><stop offset="0.99" stop-color="#dee1f0"></stop></linearGradient><linearGradient gradientUnits="objectBoundingBox" id="未命名的渐变_23" node-id="16" spreadMethod="pad" x1="1444.59" x2="1447.15" y1="-1041.06" y2="-1041.06"><stop offset="0" stop-color="#548fff"></stop><stop offset="1" stop-color="#949fff"></stop></linearGradient><linearGradient gradientUnits="objectBoundingBox" id="未命名的渐变_49-3" node-id="19" spreadMethod="pad" x1="1366.48" x2="1527.44" y1="938.88" y2="938.88"><stop offset="0" stop-color="#ebf4ff"></stop><stop offset="1" stop-color="#ebebff"></stop></linearGradient><linearGradient gradientUnits="objectBoundingBox" id="未命名的渐变_23-2" node-id="20" spreadMethod="pad" x1="1400.16" x2="1402.72" y1="-1048.27" y2="-1048.27"><stop offset="0" stop-color="#548fff"></stop><stop offset="1" stop-color="#949fff"></stop></linearGradient><linearGradient gradientUnits="objectBoundingBox" id="未命名的渐变_49-4" node-id="21" spreadMethod="pad" x1="525.95" x2="603.67" y1="430.82" y2="430.82"><stop offset="0" stop-color="#ebf4ff"></stop><stop offset="1" stop-color="#ebebff"></stop></linearGradient><linearGradient gradientUnits="objectBoundingBox" id="未命名的渐变_23-3" node-id="22" spreadMethod="pad" x1="1396.83" x2="1399.39" y1="-1048.34" y2="-1048.34"><stop offset="0" stop-color="#548fff"></stop><stop offset="1" stop-color="#949fff"></stop></linearGradient><linearGradient gradientUnits="objectBoundingBox" id="未命名的渐变_49-5" node-id="23" spreadMethod="pad" x1="425.95" x2="503.67" y1="462.82" y2="462.82"><stop offset="0" stop-color="#ebf4ff"></stop><stop offset="1" stop-color="#ebebff"></stop></linearGradient></defs><path d="M 1507.50 1304.00 L 229.50 1304.00 C 217.09 1303.97 207.03 1293.91 207.00 1281.50 L 207.00 1281.50 C 207.03 1269.09 217.09 1259.03 229.50 1259.00 L 1507.50 1259.00 C 1519.91 1259.03 1529.97 1269.09 1530.00 1281.50 L 1530.00 1281.50 C 1529.97 1293.91 1519.91 1303.97 1507.50 1304.00 Z" fill="none" node-id="136" stroke="#d3dcf4" stroke-linecap="butt" stroke-width="20" target-height="45" target-width="1323" target-x="207" target-y="1259"></path><path d="M 1143.00 1345.00 L 1217.85 1345.00 C 1241.37 1345.00 1265.48 1343.32 1288.90 1345.85 C 1296.27 1346.64 1304.97 1347.30 1311.73 1350.94 C 1318.06 1354.35 1317.15 1359.78 1314.65 1365.47 C 1311.07 1373.61 1307.25 1381.14 1307.87 1390.32 C 1308.54 1400.12 1316.60 1404.03 1325.37 1405.88 C 1351.37 1411.37 1378.73 1407.80 1405.00 1407.00 C 1416.56 1406.65 1416.61 1388.64 1405.00 1389.00 C 1381.19 1389.73 1356.89 1392.61 1333.17 1389.08 C 1332.38 1388.96 1322.93 1386.08 1323.01 1386.00 C 1322.57 1386.39 1326.85 1389.50 1325.87 1390.32 C 1325.91 1389.56 1325.89 1388.80 1325.80 1388.04 C 1325.81 1386.11 1326.15 1384.19 1326.80 1382.37 C 1329.32 1374.61 1334.14 1367.99 1334.72 1359.60 C 1336.20 1338.25 1314.27 1331.23 1297.30 1328.92 C 1273.92 1325.75 1250.30 1327.00 1226.71 1327.00 L 1143.00 1327.00 C 1131.42 1327.00 1131.40 1345.00 1143.00 1345.00 Z" fill="#d3dcf4" fill-rule="nonzero" node-id="138" stroke="none" target-height="85.619995" target-width="285.20996" target-x="1131.4" target-y="1325.75"></path><path d="M 395.00 1353.00 L 655.00 1353.00 C 666.58 1353.00 666.60 1335.00 655.00 1335.00 L 395.00 1335.00 C 383.42 1335.00 383.40 1353.00 395.00 1353.00 Z" fill="#d3dcf4" fill-rule="nonzero" node-id="140" stroke="none" target-height="18" target-width="283.2" target-x="383.39996" target-y="1335"></path><path d="M 264.06 690.98 L 458.22 592.30 L 698.06 668.93 L 889.19 558.07 L 1093.26 635.37 L 1454.40 1042.97 L 1259.01 1004.57 L 1059.22 1143.42 L 776.57 1102.32 L 525.93 1232.25 L 264.06 690.98 Z" fill="url(#未命名的渐变_49)" fill-rule="nonzero" node-id="142" stroke="none" target-height="674.18" target-width="1190.3401" target-x="264.06" target-y="558.07"></path><path d="M 890.00 568.00 L 1088.00 643.00 L 1430.00 1029.00 L 1257.00 995.00 L 1057.00 1134.00 L 775.00 1093.00 L 530.00 1220.00 L 276.00 695.00 L 459.00 602.00 L 699.86 679.00 L 699.50 678.55 L 890.00 568.00 M 888.37 548.14 L 880.97 552.43 L 697.00 659.14 L 464.48 584.85 L 457.48 582.60 L 450.85 586.00 L 267.85 679.00 L 252.11 687.00 L 259.80 702.89 L 513.80 1227.89 L 521.86 1244.55 L 538.28 1236.03 L 778.14 1111.70 L 1054.41 1151.86 L 1061.41 1152.86 L 1067.24 1148.86 L 1261.00 1014.13 L 1426.52 1046.66 L 1478.79 1056.94 L 1443.46 1017.06 L 1101.46 631.06 L 1098.52 627.74 L 1094.37 626.17 L 896.37 551.17 L 888.37 548.17 Z" fill="#5d83ff" fill-rule="nonzero" node-id="144" stroke="none" target-height="696.41003" target-width="1226.68" target-x="252.11002" target-y="548.14"></path><path d="M 1142.50 297.50 L 1176.50 334.50 L 1093.50 381.50 L 1142.50 297.50 Z" fill="#d3dcf4" fill-rule="nonzero" node-id="146" stroke="none" target-height="84" target-width="83" target-x="1093.5" target-y="297.5"></path><path d="M 1110.00 415.00 L 1240.00 395.00 L 1228.00 458.00 L 1110.00 415.00 Z" fill="#d3dcf4" fill-rule="nonzero" node-id="148" stroke="none" target-height="63" target-width="130" target-x="1110" target-y="395"></path><path d="M 530.00 1220.00 L 276.00 695.00 L 459.00 602.00 L 776.00 1093.00 L 530.00 1220.00 Z" fill="url(#未命名的渐变_94)" fill-rule="nonzero" node-id="150" stroke="none" target-height="618" target-width="500" target-x="276" target-y="602"></path><path d="M 459.00 602.00 L 700.00 679.00 L 1056.49 1133.50 L 775.49 1093.50 L 459.00 602.00 Z" fill="#d7d7f4" fill-rule="nonzero" node-id="152" stroke="none" target-height="531.5" target-width="597.49" target-x="459" target-y="602"></path><path d="M 425.84 1004.70 L 441.52 1037.11 L 669.76 929.48 L 650.11 898.95 L 425.84 1004.70 Z" fill="#ffffff" fill-rule="nonzero" node-id="154" stroke="none" target-height="138.15997" target-width="243.92001" target-x="425.84" target-y="898.95"></path><path d="M 754.30 748.21 L 530.40 712.94 L 556.50 753.49 L 781.00 782.00 L 754.30 748.21 Z" fill="#ffffff" fill-rule="nonzero" node-id="156" stroke="none" target-height="69.06" target-width="250.59998" target-x="530.4" target-y="712.94"></path><path d="M 484.00 1114.00 L 580.00 969.00 L 458.00 761.00 L 338.00 823.00" fill="none" node-id="158" stroke="#fe9f39" stroke-linecap="butt" stroke-width="18" target-height="353" target-width="242" target-x="338" target-y="761"></path><path d="M 480.00 1116.00 L 712.00 994.00 L 994.00 1044.00" fill="none" node-id="160" stroke="#fe9f39" stroke-linecap="butt" stroke-width="18" target-height="122" target-width="514" target-x="480" target-y="994"></path><path d="M 699.50 678.50 L 890.00 568.00 L 1257.00 995.00 L 1056.50 1133.50 L 699.50 678.50 Z" fill="url(#未命名的渐变_94-2)" fill-rule="nonzero" node-id="162" stroke="none" target-height="565.5" target-width="557.5" target-x="699.5" target-y="568"></path><path d="M 1115.00 829.00 L 938.00 983.00 L 916.00 955.00 L 1091.00 801.00 L 1115.00 829.00 Z" fill="#ffffff" fill-rule="nonzero" node-id="164" stroke="none" target-height="182" target-width="199" target-x="916" target-y="801"></path><path d="M 925.00 966.00 L 911.00 948.00 L 1023.00 723.00 L 1038.00 740.00 L 925.00 966.00 Z" fill="#fe9f39" fill-rule="nonzero" node-id="166" stroke="none" target-height="243" target-width="127" target-x="911" target-y="723"></path><path d="M 890.00 568.00 L 1088.00 643.00 L 1430.00 1029.00 L 1257.00 995.00 L 890.00 568.00 Z" fill="url(#未命名的渐变_49-2)" fill-rule="nonzero" node-id="168" stroke="none" target-height="461" target-width="540" target-x="890" target-y="568"></path><path d="M 1180.00 747.00 L 1023.00 723.00 L 999.00 695.00 L 1159.00 723.00 L 1180.00 747.00 Z" fill="#ffffff" fill-rule="nonzero" node-id="170" stroke="none" target-height="52" target-width="181" target-x="999" target-y="695"></path><path d="M 818.00 832.00 C 818.00 849.67 803.67 864.00 786.00 864.00 C 768.33 864.00 754.00 849.67 754.00 832.00 C 754.00 814.33 768.33 800.00 786.00 800.00 C 803.67 800.00 818.00 814.33 818.00 832.00 Z" fill="#ffffff" fill-rule="nonzero" node-id="172" stroke="#3a3a77" stroke-linecap="butt" stroke-width="24" target-height="64" target-width="64" target-x="754" target-y="800"></path><path d="M 786.00 767.00 L 786.00 568.00" fill="none" node-id="174" stroke="#3a3a77" stroke-dasharray="40 40" stroke-linecap="butt" stroke-width="24" target-height="199" target-width="0" target-x="786" target-y="568"></path><path d="M 936.89 252.68 C 936.00 194.38 894.64 123.93 786.00 123.00 C 677.35 121.17 636.00 194.36 635.11 252.66 C 634.00 328.86 705.81 402.87 730.00 432.58 C 781.50 495.92 784.32 522.88 786.00 522.88 L 786.00 522.94 C 786.00 522.94 786.00 522.88 786.00 522.88 C 787.73 522.98 790.53 495.88 842.00 432.58 C 866.20 402.87 938.00 328.86 936.89 252.68 Z M 786.89 348.57 C 751.18 348.57 722.22 317.90 722.22 280.08 C 722.22 242.26 751.22 211.59 786.89 211.59 C 822.56 211.59 851.56 242.26 851.56 280.08 C 851.56 317.90 822.58 348.57 786.86 348.57 Z" fill="#3a3a77" fill-rule="nonzero" node-id="176" stroke="none" target-height="401.81" target-width="304" target-x="634" target-y="121.17"></path><g node-id="178"><g node-id="179"><g node-id="183"><path d="M 1332.70 1155.13 L 1299.91 1136.22 C 1297.50 1134.79 1297.75 1132.31 1300.60 1130.66 L 1331.75 1112.66 C 1334.60 1111.02 1338.97 1110.84 1341.37 1112.27 L 1374.17 1131.17 C 1376.65 1132.60 1376.33 1135.09 1373.48 1136.74 L 1342.34 1154.74 C 1339.49 1156.33 1335.18 1156.55 1332.70 1155.13 Z" fill="#c9cfe5" fill-opacity="0.3" fill-rule="nonzero" group-id="1,2,6" id="路径" node-id="50" stroke="none" target-height="45.710083" target-width="79.150024" target-x="1297.5" target-y="1110.84"></path></g><path d="M 1375.84 1118.14 C 1375.85 1118.04 1375.85 1117.94 1375.84 1117.84 L 1375.84 774.84 L 1298.25 774.84 L 1298.25 1118.21 C 1298.32 1119.26 1298.96 1120.18 1299.91 1120.62 L 1332.70 1139.52 C 1335.18 1140.94 1339.49 1140.73 1342.33 1139.12 L 1373.47 1121.12 C 1374.66 1120.57 1375.53 1119.50 1375.82 1118.22 Z" fill="url(#未命名的渐变_17)" fill-rule="nonzero" group-id="1,2" id="路径-2" node-id="51" stroke="none" target-height="366.09998" target-width="77.599976" target-x="1298.25" target-y="774.83997"></path><path d="M 1332.70 796.35 L 1299.91 777.44 C 1297.50 776.01 1297.75 773.52 1300.60 771.88 L 1331.75 753.88 C 1334.60 752.23 1338.97 752.05 1341.37 753.47 C 1342.98 754.42 1353.92 760.73 1374.17 772.39 C 1376.65 773.81 1376.33 776.30 1373.48 777.94 L 1342.34 795.94 C 1339.49 797.60 1335.18 797.76 1332.70 796.35 Z" fill="#fafbfd" fill-rule="nonzero" group-id="1,2" id="路径-3" node-id="52" stroke="none" target-height="45.710022" target-width="79.150024" target-x="1297.5" target-y="752.05"></path></g><g node-id="180"><g node-id="184"><path d="M 1437.94 1220.41 L 1369.94 1181.23 C 1364.80 1178.29 1365.44 1173.13 1371.37 1169.71 L 1436.00 1132.50 C 1441.92 1129.09 1450.87 1128.73 1456.00 1131.67 L 1524.00 1170.85 C 1529.12 1173.85 1528.48 1178.96 1522.56 1182.38 L 1457.96 1219.58 C 1452.00 1223.00 1443.07 1223.36 1437.94 1220.41 Z" fill="#a0b3f8" fill-opacity="0.3" fill-rule="nonzero" group-id="1,3,7" id="路径-4" node-id="54" stroke="none" target-height="94.630005" target-width="164.31995" target-x="1364.8" target-y="1128.73"></path></g><path d="M 1527.41 1149.78 C 1527.43 1149.57 1527.43 1149.37 1527.41 1149.16 L 1527.41 938.69 L 1366.49 938.69 L 1366.49 1149.90 C 1366.49 1151.77 1367.62 1153.51 1369.95 1154.90 L 1437.95 1194.06 C 1443.07 1197.06 1452.03 1196.65 1457.95 1193.24 L 1522.56 1156.03 C 1525.56 1154.31 1527.18 1152.13 1527.38 1150.03 L 1527.38 1150.03 Z" fill="url(#未命名的渐变_23)" fill-rule="nonzero" group-id="1,3" id="路径-5" node-id="55" stroke="none" target-height="258.37006" target-width="160.94006" target-x="1366.49" target-y="938.69"></path><path d="M 1437.94 983.30 L 1369.94 944.08 C 1364.80 941.08 1365.44 935.96 1371.37 932.56 L 1436.00 895.28 C 1441.92 891.88 1450.88 891.50 1456.00 894.46 L 1524.00 933.63 C 1529.12 936.63 1528.48 941.75 1522.57 945.15 L 1457.96 982.43 C 1452.00 985.88 1443.07 986.26 1437.94 983.30 Z" fill="url(#未命名的渐变_49-3)" fill-rule="nonzero" group-id="1,3" id="路径-6" node-id="56" stroke="none" target-height="94.76001" target-width="164.31995" target-x="1364.8" target-y="891.5"></path></g><g node-id="181"><g node-id="185"><path d="M 560.46 584.00 L 527.61 565.09 C 525.14 563.67 525.46 561.16 528.31 559.52 L 559.56 541.52 C 562.42 539.87 566.80 539.69 569.21 541.12 L 602.05 560.04 C 604.53 561.47 604.22 563.96 601.36 565.61 L 570.12 583.61 C 567.25 585.27 562.94 585.45 560.46 584.00 Z" fill="#a0b3f8" fill-opacity="0.3" fill-rule="nonzero" group-id="1,4,8" id="路径-7" node-id="58" stroke="none" target-height="45.76001" target-width="79.390015" target-x="525.14" target-y="539.69"></path></g><path d="M 603.66 547.00 C 603.67 546.90 603.67 546.80 603.66 546.70 L 603.66 430.70 L 526.00 430.70 L 526.00 547.07 C 526.07 548.11 526.71 549.03 527.66 549.47 L 560.51 568.39 C 562.99 569.82 567.30 569.59 570.15 567.99 L 601.34 549.99 C 602.54 549.45 603.41 548.38 603.69 547.09 L 603.69 547.09 Z" fill="url(#未命名的渐变_23-2)" fill-rule="nonzero" group-id="1,4" id="路径-8" node-id="59" stroke="none" target-height="139.12" target-width="77.69" target-x="526" target-y="430.7"></path><path d="M 560.46 452.24 L 527.61 433.32 C 525.14 431.90 525.46 429.41 528.31 427.77 L 559.50 409.77 C 562.36 408.12 566.74 407.94 569.15 409.36 L 602.00 428.31 C 604.48 429.74 604.17 432.23 601.31 433.88 L 570.12 451.88 C 567.25 453.48 562.94 453.66 560.46 452.24 Z" fill="url(#未命名的渐变_49-4)" fill-rule="nonzero" group-id="1,4" id="路径-9" node-id="60" stroke="none" target-height="45.72" target-width="79.339966" target-x="525.14" target-y="407.94"></path></g><g node-id="182"><g node-id="186"><path d="M 460.46 559.00 L 427.61 540.09 C 425.14 538.67 425.46 536.16 428.31 534.52 L 459.56 516.52 C 462.42 514.87 466.80 514.69 469.21 516.12 L 502.05 535.04 C 504.53 536.47 504.22 538.96 501.36 540.61 L 470.12 558.61 C 467.25 560.27 462.94 560.45 460.46 559.00 Z" fill="#a0b3f8" fill-opacity="0.3" fill-rule="nonzero" group-id="1,5,9" id="路径-10" node-id="62" stroke="none" target-height="45.76001" target-width="79.389984" target-x="425.14" target-y="514.69"></path></g><path d="M 503.66 522.00 C 503.67 521.90 503.67 521.80 503.66 521.70 L 503.66 462.70 L 426.00 462.70 L 426.00 522.08 C 426.07 523.12 426.71 524.04 427.66 524.48 L 460.51 543.40 C 462.99 544.83 467.30 544.60 470.15 543.00 L 501.34 525.00 C 502.54 524.46 503.41 523.38 503.69 522.10 L 503.69 522.10 Z" fill="url(#未命名的渐变_23-3)" fill-rule="nonzero" group-id="1,5" id="路径-11" node-id="63" stroke="none" target-height="82.130005" target-width="77.69" target-x="426" target-y="462.7"></path><path d="M 460.46 484.24 L 427.61 465.32 C 425.14 463.90 425.46 461.41 428.31 459.77 L 459.50 441.77 C 462.36 440.12 466.74 439.94 469.15 441.36 L 502.00 460.31 C 504.48 461.74 504.17 464.23 501.31 465.88 L 470.12 483.88 C 467.25 485.48 462.94 485.66 460.46 484.24 Z" fill="url(#未命名的渐变_49-5)" fill-rule="nonzero" group-id="1,5" id="路径-12" node-id="64" stroke="none" target-height="45.72" target-width="79.34003" target-x="425.14" target-y="439.94"></path></g></g></svg>