<?xml version="1.0" standalone="no"?><!DOCTYPE svg PUBLIC "-//W3C//DTD SVG 1.1//EN" "http://www.w3.org/Graphics/SVG/1.1/DTD/svg11.dtd"><svg height="1500" node-id="1" sillyvg="true" template-height="1500" template-width="1726" version="1.1" viewBox="0 0 1726 1500" width="1726" xmlns="http://www.w3.org/2000/svg" xmlns:xlink="http://www.w3.org/1999/xlink"><defs node-id="59"><linearGradient gradientUnits="objectBoundingBox" id="未命名的渐变_17" node-id="5" spreadMethod="pad" x1="-329.49" x2="-326.91" y1="563.33" y2="563.33"><stop offset="0" stop-color="#eaeff5"></stop><stop offset="0.99" stop-color="#dee1f0"></stop></linearGradient><linearGradient gradientUnits="objectBoundingBox" id="未命名的渐变_100" node-id="8" spreadMethod="pad" x1="390.56" x2="1353.84" y1="750.94" y2="750.94"><stop offset="0" stop-color="#ebf4ff"></stop><stop offset="1" stop-color="#ebd3ff"></stop></linearGradient><linearGradient gradientUnits="objectBoundingBox" id="未命名的渐变_49" node-id="11" spreadMethod="pad" x1="1393.07" x2="1519.07" y1="690.92" y2="690.92"><stop offset="0" stop-color="#ebf4ff"></stop><stop offset="1" stop-color="#ebebff"></stop></linearGradient><linearGradient gradientUnits="objectBoundingBox" id="未命名的渐变_94" node-id="14" spreadMethod="pad" x1="441" x2="568" y1="858" y2="858"><stop offset="0" stop-color="#ebf4ff"></stop><stop offset="1" stop-color="#ebe1ff"></stop></linearGradient><linearGradient gradientUnits="objectBoundingBox" id="未命名的渐变_94-2" node-id="17" spreadMethod="pad" x1="441" x2="568" y1="920" y2="920"><stop offset="0" stop-color="#ebf4ff"></stop><stop offset="1" stop-color="#ebe1ff"></stop></linearGradient><linearGradient gradientUnits="objectBoundingBox" id="未命名的渐变_23" node-id="18" spreadMethod="pad" x1="-296.98" x2="-294.42" y1="539.64" y2="539.64"><stop offset="0" stop-color="#548fff"></stop><stop offset="1" stop-color="#949fff"></stop></linearGradient><linearGradient gradientUnits="objectBoundingBox" id="未命名的渐变_49-2" node-id="21" spreadMethod="pad" x1="1438.95" x2="1516.67" y1="1149.82" y2="1149.82"><stop offset="0" stop-color="#ebf4ff"></stop><stop offset="1" stop-color="#ebebff"></stop></linearGradient><linearGradient gradientUnits="objectBoundingBox" id="未命名的渐变_23-2" node-id="22" spreadMethod="pad" x1="-315.38" x2="-312.82" y1="563.23" y2="563.23"><stop offset="0" stop-color="#548fff"></stop><stop offset="1" stop-color="#949fff"></stop></linearGradient><linearGradient gradientUnits="objectBoundingBox" id="未命名的渐变_49-3" node-id="23" spreadMethod="pad" x1="1257.4" x2="1415.71" y1="856.98" y2="856.98"><stop offset="0" stop-color="#ebf4ff"></stop><stop offset="1" stop-color="#ebebff"></stop></linearGradient></defs><path d="M 1511.50 1344.00 L 233.50 1344.00 C 221.09 1343.97 211.03 1333.91 211.00 1321.50 L 211.00 1321.50 C 211.03 1309.09 221.09 1299.03 233.50 1299.00 L 1511.50 1299.00 C 1523.91 1299.03 1533.97 1309.09 1534.00 1321.50 L 1534.00 1321.50 C 1533.97 1333.91 1523.91 1343.97 1511.50 1344.00 Z" fill="none" node-id="117" stroke="#d3dcf4" stroke-linecap="butt" stroke-width="20" target-height="45" target-width="1323" target-x="211" target-y="1299"></path><path d="M 1147.00 1385.00 L 1221.85 1385.00 C 1245.37 1385.00 1269.48 1383.32 1292.90 1385.85 C 1300.27 1386.64 1308.97 1387.30 1315.73 1390.94 C 1322.06 1394.35 1321.15 1399.78 1318.65 1405.47 C 1315.07 1413.61 1311.25 1421.14 1311.87 1430.32 C 1312.54 1440.12 1320.60 1444.03 1329.37 1445.88 C 1355.37 1451.37 1382.73 1447.80 1409.00 1447.00 C 1420.56 1446.65 1420.61 1428.64 1409.00 1429.00 C 1385.19 1429.73 1360.89 1432.61 1337.17 1429.08 C 1336.38 1428.96 1326.93 1426.08 1327.01 1426.00 C 1326.57 1426.39 1330.85 1429.50 1329.87 1430.32 C 1329.91 1429.56 1329.89 1428.80 1329.80 1428.04 C 1329.81 1426.11 1330.15 1424.19 1330.80 1422.37 C 1333.32 1414.61 1338.14 1407.99 1338.72 1399.60 C 1340.20 1378.25 1318.27 1371.23 1301.30 1368.92 C 1277.92 1365.75 1254.30 1367.00 1230.71 1367.00 L 1147.00 1367.00 C 1135.42 1367.00 1135.40 1385.00 1147.00 1385.00 Z" fill="#d3dcf4" fill-rule="nonzero" node-id="119" stroke="none" target-height="85.61987" target-width="285.20996" target-x="1135.4" target-y="1365.75"></path><path d="M 399.00 1393.00 L 659.00 1393.00 C 670.58 1393.00 670.60 1375.00 659.00 1375.00 L 399.00 1375.00 C 387.42 1375.00 387.40 1393.00 399.00 1393.00 Z" fill="#d3dcf4" fill-rule="nonzero" node-id="121" stroke="none" target-height="18" target-width="283.19998" target-x="387.4" target-y="1375"></path><g node-id="164"><g node-id="167"><path d="M 436.70 892.13 L 403.91 873.22 C 401.50 871.79 401.75 869.31 404.60 867.66 L 435.75 849.66 C 438.60 848.02 442.97 847.84 445.37 849.27 L 478.17 868.17 C 480.65 869.60 480.33 872.09 477.48 873.74 L 446.34 891.74 C 443.49 893.33 439.18 893.55 436.70 892.13 Z" fill="#c9cfe5" fill-opacity="0.3" fill-rule="nonzero" group-id="1,4" id="路径" node-id="31" stroke="none" target-height="45.710022" target-width="79.149994" target-x="401.5" target-y="847.84"></path></g><path d="M 479.84 855.14 C 479.85 855.04 479.85 854.94 479.84 854.84 L 479.84 570.84 L 402.25 570.84 L 402.25 855.18 C 402.32 856.23 402.96 857.15 403.91 857.59 L 436.70 876.49 C 439.18 877.91 443.49 877.70 446.33 876.09 L 477.47 858.09 C 478.66 857.54 479.53 856.47 479.82 855.19 Z" fill="url(#未命名的渐变_17)" fill-rule="nonzero" group-id="1" id="路径-2" node-id="32" stroke="none" target-height="307.0699" target-width="77.60004" target-x="402.25" target-y="570.84"></path><path d="M 436.70 592.35 L 403.91 573.44 C 401.50 572.01 401.75 569.52 404.60 567.88 L 435.75 549.88 C 438.60 548.23 442.97 548.05 445.37 549.47 C 446.98 550.42 457.92 556.73 478.17 568.39 C 480.65 569.81 480.33 572.30 477.48 573.94 L 446.34 591.94 C 443.49 593.60 439.18 593.76 436.70 592.35 Z" fill="#fafbfd" fill-rule="nonzero" group-id="1" id="路径-3" node-id="33" stroke="none" target-height="45.710022" target-width="79.149994" target-x="401.5" target-y="548.05"></path></g><path d="M 570.07 932.37 L 1174.28 932.37 C 1184.48 932.37 1194.26 928.32 1201.47 921.10 C 1208.68 913.89 1212.73 904.11 1212.73 893.91 L 1212.73 651.68 C 1212.73 482.23 1088.96 341.77 926.96 315.62 C 929.53 308.90 930.85 301.76 930.87 294.56 C 930.88 270.99 916.80 249.70 895.11 240.50 C 873.41 231.29 848.32 235.94 831.37 252.32 C 814.43 268.70 808.92 293.63 817.39 315.62 C 655.39 341.77 531.61 482.35 531.61 651.68 L 531.61 893.91 C 531.65 915.13 548.85 932.33 570.07 932.37 Z M 872.17 1266.00 C 924.64 1266.00 967.17 1223.47 967.17 1171.00 L 777.17 1171.00 C 777.15 1196.20 787.16 1220.37 804.98 1238.19 C 822.80 1256.01 846.97 1266.02 872.17 1266.00 Z M 1344.00 1064.66 L 1324.24 1025.25 C 1306.73 990.11 1267.80 963.60 1236.08 963.60 L 508.30 963.60 C 476.59 963.60 437.66 990.11 420.14 1025.25 L 400.38 1064.66 C 379.68 1106.19 392.57 1142.66 431.03 1142.66 L 1313.32 1142.66 C 1351.77 1142.64 1364.79 1106.19 1344.00 1064.66 Z" fill="url(#未命名的渐变_100)" fill-rule="nonzero" node-id="131" stroke="none" target-height="1034.729" target-width="985.11005" target-x="379.68" target-y="231.28697"></path><path d="M 881.00 1265.61 C 929.85 1261.06 967.20 1220.06 967.19 1171.00 L 881.00 1171.00 Z" fill="#d7d7f4" fill-rule="nonzero" node-id="133" stroke="none" target-height="94.609985" target-width="86.20001" target-x="881" target-y="1171"></path><path d="M 1324.20 1025.25 C 1306.69 990.11 1267.76 963.60 1236.04 963.60 L 881.00 963.60 L 881.00 1142.60 L 1313.32 1142.60 C 1351.77 1142.60 1364.79 1106.15 1343.96 1064.60 Z" fill="#d7d7f4" fill-rule="nonzero" node-id="135" stroke="none" target-height="179" target-width="483.79004" target-x="881" target-y="963.6"></path><path d="M 881.00 236.52 L 881.00 932.37 L 1174.28 932.37 C 1184.48 932.37 1194.26 928.32 1201.47 921.10 C 1208.68 913.89 1212.73 904.11 1212.73 893.91 L 1212.73 651.68 C 1212.73 482.23 1088.96 341.77 926.96 315.62 C 929.53 308.90 930.85 301.76 930.87 294.56 C 930.87 265.55 909.68 240.89 881.00 236.52 Z" fill="#d7d7f4" fill-rule="nonzero" node-id="137" stroke="none" target-height="695.85" target-width="331.73267" target-x="881" target-y="236.52"></path><path d="M 570.07 932.37 L 1174.28 932.37 C 1184.48 932.37 1194.26 928.32 1201.47 921.10 C 1208.68 913.89 1212.73 904.11 1212.73 893.91 L 1212.73 651.68 C 1212.73 482.23 1088.96 341.77 926.96 315.62 C 929.53 308.90 930.85 301.76 930.87 294.56 C 930.88 270.99 916.80 249.70 895.11 240.50 C 873.41 231.29 848.32 235.94 831.37 252.32 C 814.43 268.70 808.92 293.63 817.39 315.62 C 655.39 341.77 531.61 482.35 531.61 651.68 L 531.61 893.91 C 531.65 915.13 548.85 932.33 570.07 932.37 Z M 872.17 1266.00 C 924.64 1266.00 967.17 1223.47 967.17 1171.00 L 777.17 1171.00 C 777.15 1196.20 787.16 1220.37 804.98 1238.19 C 822.80 1256.01 846.97 1266.02 872.17 1266.00 Z M 1344.00 1064.66 L 1324.24 1025.25 C 1306.73 990.11 1267.80 963.60 1236.08 963.60 L 508.30 963.60 C 476.59 963.60 437.66 990.11 420.14 1025.25 L 400.38 1064.66 C 379.68 1106.19 392.57 1142.66 431.03 1142.66 L 1313.32 1142.66 C 1351.77 1142.64 1364.79 1106.19 1344.00 1064.66 Z" fill="none" node-id="139" stroke="#5d83ff" stroke-linecap="butt" stroke-width="18" target-height="1034.729" target-width="985.11005" target-x="379.68" target-y="231.28697"></path><path d="M 1257.00 260.00 L 1316.00 316.00 L 1199.00 358.00 L 1257.00 260.00 Z" fill="#d3dcf4" fill-rule="nonzero" node-id="141" stroke="none" target-height="98" target-width="117" target-x="1199" target-y="260"></path><path d="M 1218.00 389.00 L 1388.00 349.00 L 1388.00 434.00 L 1218.00 389.00 Z" fill="#d3dcf4" fill-rule="nonzero" node-id="143" stroke="none" target-height="85" target-width="170" target-x="1218" target-y="349"></path><path d="M 1561.50 825.70 L 1505.56 780.61 L 1285.12 764.89 C 1262.02 763.18 1244.63 743.12 1246.22 720.01 L 1252.62 630.24 C 1254.33 607.13 1274.38 589.75 1297.50 591.33 L 1536.89 608.40 C 1559.99 610.12 1577.38 630.17 1575.80 653.28 L 1569.40 743.05 C 1567.75 766.09 1563.63 795.77 1561.50 825.70 Z" fill="#3a3a77" fill-rule="nonzero" node-id="145" stroke="none" target-height="235.95154" target-width="332.7433" target-x="1244.6327" target-y="589.7485"></path><path d="M 1366.20 681.17 C 1366.20 698.84 1351.87 713.17 1334.20 713.17 C 1316.53 713.17 1302.20 698.84 1302.20 681.17 C 1302.20 663.50 1316.53 649.17 1334.20 649.17 C 1351.87 649.17 1366.20 663.50 1366.20 681.17 Z" fill="#fe9f39" fill-rule="nonzero" node-id="147" stroke="none" target-height="64" target-width="64" target-x="1302.2" target-y="649.17"></path><g node-id="165"><path d="M 1409.91 673.57 L 1507.66 680.54 C 1515.38 681.09 1521.18 687.79 1520.63 695.50 L 1520.63 695.50 C 1520.08 703.22 1513.38 709.02 1505.67 708.47 L 1407.92 701.50 C 1400.21 700.95 1394.40 694.25 1394.95 686.54 L 1394.95 686.54 C 1395.50 678.83 1402.20 673.02 1409.91 673.57 Z" fill="url(#未命名的渐变_49)" fill-rule="nonzero" group-id="2" node-id="151" stroke="none" target-height="36.001892" target-width="126.781006" target-x="1394.4021" target-y="673.0207"></path></g><path d="M 313.00 968.00 C 313.00 959.23 323.00 895.00 353.00 861.00 C 392.61 808.52 449.17 772.00 537.00 772.00 C 638.62 772.00 721.00 824.38 721.00 889.00 C 721.00 953.62 638.62 1006.00 537.00 1006.00 C 463.00 1006.00 406.24 987.00 377.00 947.00 C 351.00 935.00 316.00 979.00 313.00 968.00 Z" fill="#3a3a77" fill-rule="nonzero" node-id="154" stroke="none" target-height="234" target-width="408" target-x="313" target-y="772"></path><path d="M 453.00 846.00 L 556.00 846.00 C 562.63 846.00 568.00 851.37 568.00 858.00 L 568.00 858.00 C 568.00 864.63 562.63 870.00 556.00 870.00 L 453.00 870.00 C 446.37 870.00 441.00 864.63 441.00 858.00 L 441.00 858.00 C 441.00 851.37 446.37 846.00 453.00 846.00 Z" fill="url(#未命名的渐变_94)" fill-rule="nonzero" node-id="156" stroke="none" target-height="24" target-width="127" target-x="441" target-y="846"></path><path d="M 632.00 857.00 C 632.00 866.94 623.94 875.00 614.00 875.00 C 604.06 875.00 596.00 866.94 596.00 857.00 C 596.00 847.06 604.06 839.00 614.00 839.00 C 623.94 839.00 632.00 847.06 632.00 857.00 Z" fill="#fe9f39" fill-rule="nonzero" node-id="158" stroke="none" target-height="36" target-width="36" target-x="596" target-y="839"></path><path d="M 453.00 908.00 L 556.00 908.00 C 562.63 908.00 568.00 913.37 568.00 920.00 L 568.00 920.00 C 568.00 926.63 562.63 932.00 556.00 932.00 L 453.00 932.00 C 446.37 932.00 441.00 926.63 441.00 920.00 L 441.00 920.00 C 441.00 913.37 446.37 908.00 453.00 908.00 Z" fill="url(#未命名的渐变_94-2)" fill-rule="nonzero" node-id="160" stroke="none" target-height="24" target-width="127" target-x="441" target-y="908"></path><path d="M 632.00 916.00 C 632.00 925.94 623.94 934.00 614.00 934.00 C 604.06 934.00 596.00 925.94 596.00 916.00 C 596.00 906.06 604.06 898.00 614.00 898.00 C 623.94 898.00 632.00 906.06 632.00 916.00 Z" fill="#fe9f39" fill-rule="nonzero" node-id="162" stroke="none" target-height="36" target-width="36" target-x="596" target-y="898"></path><g node-id="166"><g node-id="168"><g node-id="170"><path d="M 1473.46 1303.00 L 1440.61 1284.09 C 1438.14 1282.67 1438.46 1280.16 1441.31 1278.52 L 1472.56 1260.52 C 1475.42 1258.87 1479.80 1258.69 1482.21 1260.12 L 1515.05 1279.04 C 1517.53 1280.47 1517.22 1282.96 1514.36 1284.61 L 1483.12 1302.61 C 1480.25 1304.27 1475.94 1304.45 1473.46 1303.00 Z" fill="#a0b3f8" fill-opacity="0.3" fill-rule="nonzero" group-id="3,5,7" id="路径-4" node-id="51" stroke="none" target-height="45.76001" target-width="79.390015" target-x="1438.14" target-y="1258.69"></path></g><path d="M 1516.66 1266.00 C 1516.67 1265.90 1516.67 1265.80 1516.66 1265.70 L 1516.66 1149.70 L 1439.00 1149.70 L 1439.00 1266.08 C 1439.07 1267.12 1439.71 1268.04 1440.66 1268.48 L 1473.51 1287.40 C 1475.99 1288.83 1480.30 1288.60 1483.15 1287.00 L 1514.34 1269.00 C 1515.54 1268.46 1516.41 1267.38 1516.69 1266.10 L 1516.69 1266.10 Z" fill="url(#未命名的渐变_23)" fill-rule="nonzero" group-id="3,5" id="路径-5" node-id="52" stroke="none" target-height="139.13" target-width="77.68994" target-x="1439" target-y="1149.7"></path><path d="M 1473.46 1171.24 L 1440.61 1152.32 C 1438.14 1150.90 1438.46 1148.41 1441.31 1146.77 L 1472.50 1128.77 C 1475.36 1127.12 1479.74 1126.94 1482.15 1128.36 L 1514.99 1147.28 C 1517.47 1148.71 1517.16 1151.20 1514.30 1152.85 L 1483.11 1170.85 C 1480.25 1172.48 1475.94 1172.66 1473.46 1171.24 Z" fill="url(#未命名的渐变_49-2)" fill-rule="nonzero" group-id="3,5" id="路径-6" node-id="53" stroke="none" target-height="45.720093" target-width="79.329956" target-x="1438.14" target-y="1126.94"></path></g><g node-id="169"><g node-id="171"><path d="M 1327.70 1321.11 L 1260.81 1282.63 C 1255.81 1279.72 1256.40 1274.63 1262.22 1271.29 L 1325.75 1234.69 C 1331.57 1231.34 1340.38 1230.97 1345.43 1233.87 L 1412.31 1272.42 C 1417.31 1275.32 1416.72 1280.42 1410.90 1283.75 L 1347.37 1320.28 C 1341.55 1323.65 1332.74 1324.00 1327.70 1321.11 Z" fill="#a0b3f8" fill-opacity="0.3" fill-rule="nonzero" group-id="3,6,8" id="路径-7" node-id="55" stroke="none" target-height="93.03003" target-width="161.5" target-x="1255.81" target-y="1230.97"></path></g><path d="M 1415.69 1245.72 C 1415.71 1245.52 1415.71 1245.31 1415.69 1245.11 L 1415.69 856.72 L 1257.41 856.72 L 1257.41 1245.84 C 1257.41 1247.68 1258.53 1249.45 1260.81 1250.75 L 1327.70 1289.23 C 1332.70 1292.14 1341.55 1291.78 1347.37 1288.42 L 1410.90 1251.82 C 1413.84 1250.12 1415.45 1247.99 1415.72 1245.91 Z" fill="url(#未命名的渐变_23-2)" fill-rule="nonzero" group-id="3,6" id="路径-8" node-id="56" stroke="none" target-height="435.4201" target-width="158.30994" target-x="1257.41" target-y="856.7199"></path><path d="M 1327.70 900.59 L 1260.81 862.11 C 1255.81 859.21 1256.40 854.11 1262.22 850.78 L 1325.75 814.17 C 1331.57 810.82 1340.38 810.46 1345.43 813.37 L 1412.31 851.85 C 1417.31 854.75 1416.72 859.85 1410.90 863.18 L 1347.37 899.79 C 1341.55 903.14 1332.74 903.50 1327.70 900.59 Z" fill="url(#未命名的渐变_49-3)" fill-rule="nonzero" group-id="3,6" id="路径-9" node-id="57" stroke="none" target-height="93.03998" target-width="161.5" target-x="1255.81" target-y="810.46"></path></g></g></svg>