<?xml version="1.0" standalone="no"?><!DOCTYPE svg PUBLIC "-//W3C//DTD SVG 1.1//EN" "http://www.w3.org/Graphics/SVG/1.1/DTD/svg11.dtd"><svg height="1500" node-id="1" sillyvg="true" template-height="1500" template-width="1716" version="1.1" viewBox="0 0 1716 1500" width="1716" xmlns="http://www.w3.org/2000/svg" xmlns:xlink="http://www.w3.org/1999/xlink"><defs node-id="57"><linearGradient gradientUnits="objectBoundingBox" id="未命名的渐变_94" node-id="5" spreadMethod="pad" x1="583" x2="1335.33" y1="682.27" y2="682.27"><stop offset="0" stop-color="#ebf4ff"></stop><stop offset="1" stop-color="#ebe1ff"></stop></linearGradient><linearGradient gradientUnits="objectBoundingBox" id="未命名的渐变_23" node-id="8" spreadMethod="pad" x1="1444.17" x2="1446.73" y1="553.9" y2="553.9"><stop offset="0" stop-color="#548fff"></stop><stop offset="1" stop-color="#949fff"></stop></linearGradient><linearGradient gradientUnits="objectBoundingBox" id="未命名的渐变_49" node-id="11" spreadMethod="pad" x1="1340.48" x2="1501.44" y1="816.88" y2="816.88"><stop offset="0" stop-color="#ebf4ff"></stop><stop offset="1" stop-color="#ebebff"></stop></linearGradient><linearGradient gradientUnits="objectBoundingBox" id="未命名的渐变_49-2" node-id="14" spreadMethod="pad" x1="749" x2="915" y1="1146.24" y2="1146.24"><stop offset="0" stop-color="#ebf4ff"></stop><stop offset="1" stop-color="#ebebff"></stop></linearGradient><linearGradient gradientUnits="objectBoundingBox" id="未命名的渐变_49-3" node-id="15" spreadMethod="pad" x1="1022" x2="1139" y1="624" y2="624"><stop offset="0" stop-color="#ebf4ff"></stop><stop offset="1" stop-color="#ebebff"></stop></linearGradient><linearGradient gradientUnits="objectBoundingBox" id="未命名的渐变_17" node-id="16" spreadMethod="pad" x1="1398.17" x2="1400.76" y1="561.36" y2="561.36"><stop offset="0" stop-color="#eaeff5"></stop><stop offset="0.99" stop-color="#dee1f0"></stop></linearGradient><linearGradient gradientUnits="objectBoundingBox" id="未命名的渐变_23-2" node-id="19" spreadMethod="pad" x1="1394.17" x2="1396.73" y1="540.71" y2="540.71"><stop offset="0" stop-color="#548fff"></stop><stop offset="1" stop-color="#949fff"></stop></linearGradient><linearGradient gradientUnits="objectBoundingBox" id="未命名的渐变_49-4" node-id="20" spreadMethod="pad" x1="345.95" x2="423.67" y1="1092.82" y2="1092.82"><stop offset="0" stop-color="#ebf4ff"></stop><stop offset="1" stop-color="#ebebff"></stop></linearGradient><linearGradient gradientUnits="objectBoundingBox" id="未命名的渐变_23-3" node-id="21" spreadMethod="pad" x1="1430.1" x2="1432.66" y1="563.68" y2="563.68"><stop offset="0" stop-color="#548fff"></stop><stop offset="1" stop-color="#949fff"></stop></linearGradient><linearGradient gradientUnits="objectBoundingBox" id="未命名的渐变_49-5" node-id="22" spreadMethod="pad" x1="503.4" x2="661.71" y1="781.98" y2="781.98"><stop offset="0" stop-color="#ebf4ff"></stop><stop offset="1" stop-color="#ebebff"></stop></linearGradient></defs><path d="M 792.00 236.53 C 665.63 325.15 583.00 471.92 583.00 638.00 C 583.00 908.62 802.38 1128.00 1073.00 1128.00 C 1165.90 1128.15 1256.92 1101.76 1335.33 1051.93 Z" fill="url(#未命名的渐变_94)" fill-rule="nonzero" node-id="121" stroke="#5d83ff" stroke-linecap="butt" stroke-width="18" target-height="891.61707" target-width="752.32996" target-x="583" target-y="236.53"></path><path d="M 1203.11 440.36 C 1253.87 469.03 1287.99 520.12 1295.00 578.00 L 1270.92 578.00 C 1264.03 529.59 1235.44 486.97 1193.26 462.23 L 1203.14 440.36 M 1194.46 415.88 L 1169.79 470.44 C 1219.89 492.42 1252.82 541.31 1254.36 596.00 L 1314.24 596.00 C 1312.69 517.78 1265.97 447.54 1194.43 415.88 Z" fill="#fe9f39" fill-rule="nonzero" node-id="123" stroke="none" target-height="180.12003" target-width="144.44995" target-x="1169.79" target-y="415.87997"></path><path d="M 1250.78 334.93 C 1342.67 382.73 1403.24 474.71 1410.86 578.00 L 1352.47 578.00 C 1344.90 497.67 1297.74 426.42 1226.75 388.08 L 1250.75 334.93 M 1242.00 310.70 L 1203.19 396.55 C 1282.31 431.66 1333.90 509.45 1335.45 596.00 L 1429.63 596.00 C 1428.05 468.75 1351.44 359.58 1241.98 310.70 Z" fill="#fe9f39" fill-rule="nonzero" node-id="125" stroke="none" target-height="285.3" target-width="226.44006" target-x="1203.19" target-y="310.7"></path><path d="M 1320.20 181.37 C 1472.25 256.68 1571.50 408.51 1579.48 578.00 L 1471.05 578.00 C 1463.27 451.55 1388.50 337.64 1275.56 280.12 L 1320.20 181.37 M 1311.33 157.28 L 1251.90 288.76 C 1369.71 341.42 1452.13 459.00 1453.70 596.00 L 1598.00 596.00 C 1596.42 400.51 1479.19 232.58 1311.36 157.28 Z" fill="#fe9f39" fill-rule="nonzero" node-id="127" stroke="none" target-height="438.72" target-width="346.09998" target-x="1251.9" target-y="157.28"></path><g node-id="155"><g node-id="157"><path d="M 1411.94 1035.41 L 1343.94 996.23 C 1338.80 993.29 1339.44 988.13 1345.37 984.71 L 1410.00 947.50 C 1415.92 944.09 1424.87 943.73 1430.00 946.67 L 1498.00 985.85 C 1503.12 988.80 1502.48 993.96 1496.56 997.38 L 1431.96 1034.58 C 1426.00 1038.00 1417.07 1038.36 1411.94 1035.41 Z" fill="#a0b3f8" fill-opacity="0.3" fill-rule="nonzero" group-id="1,3" id="路径" node-id="31" stroke="none" target-height="94.630005" target-width="164.31982" target-x="1338.8" target-y="943.73"></path></g><path d="M 1501.41 964.78 C 1501.43 964.57 1501.43 964.37 1501.41 964.16 L 1501.41 816.69 L 1340.49 816.69 L 1340.49 964.90 C 1340.49 966.77 1341.62 968.51 1343.95 969.90 L 1411.95 1009.06 C 1417.07 1012.06 1426.03 1011.65 1431.95 1008.24 L 1496.55 971.00 C 1499.55 969.28 1501.17 967.10 1501.37 965.00 L 1501.37 965.00 Z" fill="url(#未命名的渐变_23)" fill-rule="nonzero" group-id="1" id="路径-2" node-id="32" stroke="none" target-height="195.37006" target-width="160.94006" target-x="1340.49" target-y="816.68994"></path><path d="M 1411.94 861.30 L 1343.94 822.08 C 1338.80 819.08 1339.44 813.96 1345.37 810.56 L 1410.00 773.28 C 1415.92 769.88 1424.88 769.50 1430.00 772.46 L 1498.00 811.63 C 1503.12 814.63 1502.48 819.75 1496.57 823.15 L 1431.96 860.43 C 1426.00 863.88 1417.07 864.26 1411.94 861.30 Z" fill="url(#未命名的渐变_49)" fill-rule="nonzero" group-id="1" id="路径-3" node-id="33" stroke="none" target-height="94.75995" target-width="164.31982" target-x="1338.8" target-y="769.50006"></path></g><path d="M 642.00 394.30 C 708.72 400.87 715.77 426.07 694.47 458.82 C 724.89 412.05 697.47 380.66 521.03 397.00 C 143.00 432.00 113.00 649.00 113.00 649.00 C 164.00 523.00 467.00 464.00 486.00 518.00 C 527.00 604.00 155.00 734.00 113.00 908.00 C 71.00 1082.00 476.00 1061.00 651.00 1036.00 C 826.00 1011.00 857.00 965.00 1226.00 992.00 C 1673.00 1040.00 1424.00 1142.00 1270.00 1164.00 C 1116.00 1186.00 1139.00 1241.00 1139.00 1241.00 L 1424.00 1241.00 C 1424.00 1196.00 1466.00 1178.00 1466.00 1178.00 C 1493.00 1136.00 1692.00 1135.00 1607.00 1016.00 C 1310.00 845.00 734.00 938.00 500.00 894.00 C 266.00 850.00 407.00 716.00 500.00 631.00 C 520.14 612.59 550.27 589.54 581.27 565.08 L 579.16 566.75 C 588.01 505.90 608.32 447.29 639.00 394.00" fill="#3a3a77" fill-rule="nonzero" node-id="137" stroke="none" target-height="860.33997" target-width="1621" target-x="71" target-y="380.66"></path><path d="M 749.00 1241.00 L 809.96 1051.48 L 886.10 1091.09 L 915.00 1241.00 L 749.00 1241.00 Z" fill="url(#未命名的渐变_49-2)" fill-rule="nonzero" node-id="139" stroke="#5d83ff" stroke-linecap="round" stroke-width="18" target-height="189.52002" target-width="166" target-x="749" target-y="1051.48"></path><path d="M 1512.50 1286.00 L 234.50 1286.00 C 222.09 1285.97 212.03 1275.91 212.00 1263.50 L 212.00 1263.50 C 212.03 1251.09 222.09 1241.03 234.50 1241.00 L 1512.50 1241.00 C 1524.91 1241.03 1534.97 1251.09 1535.00 1263.50 L 1535.00 1263.50 C 1534.97 1275.91 1524.91 1285.97 1512.50 1286.00 Z" fill="none" node-id="141" stroke="#d3dcf4" stroke-linecap="butt" stroke-width="20" target-height="45" target-width="1323" target-x="212" target-y="1241"></path><path d="M 1148.00 1327.00 L 1222.85 1327.00 C 1246.37 1327.00 1270.48 1325.32 1293.90 1327.85 C 1301.27 1328.64 1309.97 1329.30 1316.73 1332.94 C 1323.06 1336.35 1322.15 1341.78 1319.65 1347.47 C 1316.07 1355.61 1312.25 1363.14 1312.87 1372.32 C 1313.54 1382.12 1321.60 1386.03 1330.37 1387.88 C 1356.37 1393.37 1383.73 1389.80 1410.00 1389.00 C 1421.56 1388.65 1421.61 1370.64 1410.00 1371.00 C 1386.19 1371.73 1361.89 1374.61 1338.17 1371.08 C 1337.38 1370.96 1327.93 1368.08 1328.01 1368.00 C 1327.57 1368.39 1331.85 1371.50 1330.87 1372.32 C 1330.91 1371.56 1330.89 1370.80 1330.80 1370.04 C 1330.81 1368.11 1331.15 1366.19 1331.80 1364.37 C 1334.32 1356.61 1339.14 1349.99 1339.72 1341.60 C 1341.20 1320.25 1319.27 1313.23 1302.30 1310.92 C 1278.92 1307.75 1255.30 1309.00 1231.71 1309.00 L 1148.00 1309.00 C 1136.42 1309.00 1136.40 1327.00 1148.00 1327.00 Z" fill="#d3dcf4" fill-rule="nonzero" node-id="143" stroke="none" target-height="85.62012" target-width="285.20996" target-x="1136.4" target-y="1307.75"></path><path d="M 400.00 1335.00 L 660.00 1335.00 C 671.58 1335.00 671.60 1317.00 660.00 1317.00 L 400.00 1317.00 C 388.42 1317.00 388.40 1335.00 400.00 1335.00 Z" fill="#d3dcf4" fill-rule="nonzero" node-id="145" stroke="none" target-height="18" target-width="283.19998" target-x="388.4" target-y="1317"></path><path d="M 1022.00 586.00 L 1139.00 576.00 L 1082.00 672.00 L 1022.00 586.00 Z" fill="url(#未命名的渐变_49-3)" fill-rule="nonzero" node-id="147" stroke="#5d83ff" stroke-linecap="round" stroke-width="18" target-height="96" target-width="117" target-x="1022" target-y="576"></path><path d="M 1203.00 566.00 C 1203.00 589.75 1183.75 609.00 1160.00 609.00 C 1136.25 609.00 1117.00 589.75 1117.00 566.00 C 1117.00 542.25 1136.25 523.00 1160.00 523.00 C 1183.75 523.00 1203.00 542.25 1203.00 566.00 Z" fill="#fe9f39" fill-rule="nonzero" node-id="149" stroke="none" target-height="86" target-width="86" target-x="1117" target-y="523"></path><path d="M 959.00 164.00 L 897.00 122.00 L 885.00 206.00 L 959.00 164.00 Z" fill="#d3dcf4" fill-rule="nonzero" node-id="151" stroke="none" target-height="84" target-width="74" target-x="885" target-y="122"></path><path d="M 1034.00 182.00 L 899.00 237.00 L 1034.00 274.00 L 1034.00 182.00 Z" fill="#d3dcf4" fill-rule="nonzero" node-id="153" stroke="none" target-height="92" target-width="135" target-x="899" target-y="182"></path><g node-id="156"><g node-id="158"><g node-id="161"><path d="M 443.70 1200.13 L 410.91 1181.22 C 408.50 1179.79 408.75 1177.31 411.60 1175.66 L 442.75 1157.66 C 445.60 1156.02 449.97 1155.84 452.37 1157.27 L 485.17 1176.17 C 487.65 1177.60 487.33 1180.09 484.48 1181.74 L 453.34 1199.74 C 450.49 1201.33 446.18 1201.55 443.70 1200.13 Z" fill="#c9cfe5" fill-opacity="0.3" fill-rule="nonzero" group-id="2,4,7" id="路径-4" node-id="45" stroke="none" target-height="45.710083" target-width="79.14993" target-x="408.50003" target-y="1155.84"></path></g><path d="M 486.84 1163.14 C 486.85 1163.04 486.85 1162.94 486.84 1162.84 L 486.84 819.84 L 409.25 819.84 L 409.25 1163.21 C 409.32 1164.26 409.96 1165.18 410.91 1165.62 L 443.70 1184.52 C 446.18 1185.94 450.49 1185.73 453.33 1184.12 L 484.47 1166.12 C 485.66 1165.57 486.53 1164.50 486.82 1163.22 Z" fill="url(#未命名的渐变_17)" fill-rule="nonzero" group-id="2,4" id="路径-5" node-id="46" stroke="none" target-height="366.0999" target-width="77.60004" target-x="409.25" target-y="819.84"></path><path d="M 443.70 841.35 L 410.91 822.44 C 408.50 821.01 408.75 818.52 411.60 816.88 L 442.75 798.88 C 445.60 797.23 449.97 797.05 452.37 798.47 C 453.98 799.42 464.92 805.73 485.17 817.39 C 487.65 818.81 487.33 821.30 484.48 822.94 L 453.34 840.94 C 450.49 842.60 446.18 842.76 443.70 841.35 Z" fill="#fafbfd" fill-rule="nonzero" group-id="2,4" id="路径-6" node-id="47" stroke="none" target-height="45.710022" target-width="79.14993" target-x="408.50003" target-y="797.05"></path></g><g node-id="159"><g node-id="162"><path d="M 380.46 1246.00 L 347.61 1227.09 C 345.14 1225.67 345.46 1223.16 348.31 1221.52 L 379.56 1203.52 C 382.42 1201.87 386.80 1201.69 389.21 1203.12 L 422.05 1222.04 C 424.53 1223.47 424.22 1225.96 421.36 1227.61 L 390.12 1245.61 C 387.25 1247.27 382.94 1247.45 380.46 1246.00 Z" fill="#a0b3f8" fill-opacity="0.3" fill-rule="nonzero" group-id="2,5,8" id="路径-7" node-id="49" stroke="none" target-height="45.76001" target-width="79.389984" target-x="345.14" target-y="1201.69"></path></g><path d="M 423.66 1209.00 C 423.67 1208.90 423.67 1208.80 423.66 1208.70 L 423.66 1092.70 L 346.00 1092.70 L 346.00 1209.08 C 346.07 1210.12 346.71 1211.04 347.66 1211.48 L 380.51 1230.40 C 382.99 1231.83 387.30 1231.60 390.15 1230.00 L 421.34 1212.00 C 422.54 1211.46 423.41 1210.38 423.69 1209.10 L 423.69 1209.10 Z" fill="url(#未命名的渐变_23-2)" fill-rule="nonzero" group-id="2,5" id="路径-8" node-id="50" stroke="none" target-height="139.13" target-width="77.69" target-x="346" target-y="1092.7"></path><path d="M 380.46 1114.24 L 347.61 1095.32 C 345.14 1093.90 345.46 1091.41 348.31 1089.77 L 379.50 1071.77 C 382.36 1070.12 386.74 1069.94 389.15 1071.36 L 422.00 1090.31 C 424.48 1091.74 424.17 1094.23 421.31 1095.88 L 390.12 1113.88 C 387.25 1115.48 382.94 1115.66 380.46 1114.24 Z" fill="url(#未命名的渐变_49-4)" fill-rule="nonzero" group-id="2,5" id="路径-9" node-id="51" stroke="none" target-height="45.720093" target-width="79.34003" target-x="345.14" target-y="1069.94"></path></g><g node-id="160"><g node-id="163"><path d="M 573.70 1246.11 L 506.81 1207.63 C 501.76 1204.72 502.40 1199.63 508.22 1196.29 L 571.75 1159.69 C 577.57 1156.34 586.38 1155.97 591.43 1158.87 L 658.31 1197.42 C 663.36 1200.32 662.72 1205.42 656.90 1208.75 L 593.37 1245.28 C 587.55 1248.65 578.74 1249.00 573.70 1246.11 Z" fill="#a0b3f8" fill-opacity="0.3" fill-rule="nonzero" group-id="2,6,9" id="路径-10" node-id="53" stroke="none" target-height="93.03003" target-width="161.59998" target-x="501.76" target-y="1155.97"></path></g><path d="M 661.69 1170.72 C 661.71 1170.52 661.71 1170.31 661.69 1170.11 L 661.69 781.72 L 503.41 781.72 L 503.41 1170.84 C 503.41 1172.68 504.53 1174.45 506.81 1175.75 L 573.70 1214.23 C 578.70 1217.14 587.55 1216.78 593.37 1213.42 L 656.90 1176.82 C 659.84 1175.12 661.45 1172.99 661.72 1170.91 Z" fill="url(#未命名的渐变_23-3)" fill-rule="nonzero" group-id="2,6" id="路径-11" node-id="54" stroke="none" target-height="435.42004" target-width="158.30997" target-x="503.41" target-y="781.72"></path><path d="M 573.70 825.59 L 506.81 787.11 C 501.76 784.21 502.40 779.11 508.22 775.78 L 571.75 739.17 C 577.57 735.82 586.38 735.46 591.43 738.37 L 658.31 776.85 C 663.36 779.75 662.72 784.85 656.90 788.18 L 593.37 824.79 C 587.55 828.14 578.74 828.50 573.70 825.59 Z" fill="url(#未命名的渐变_49-5)" fill-rule="nonzero" group-id="2,6" id="路径-12" node-id="55" stroke="none" target-height="93.03998" target-width="161.59998" target-x="501.76" target-y="735.45996"></path></g></g></svg>