<?xml version="1.0" standalone="no"?><!DOCTYPE svg PUBLIC "-//W3C//DTD SVG 1.1//EN" "http://www.w3.org/Graphics/SVG/1.1/DTD/svg11.dtd"><svg height="1500" node-id="1" sillyvg="true" template-height="1500" template-width="1726" version="1.1" viewBox="0 0 1726 1500" width="1726" xmlns="http://www.w3.org/2000/svg" xmlns:xlink="http://www.w3.org/1999/xlink"><defs node-id="51"><linearGradient gradientUnits="objectBoundingBox" id="未命名的渐变_94" node-id="5" spreadMethod="pad" x1="466.95" x2="858.95" y1="783" y2="783"><stop offset="0" stop-color="#ebf4ff"></stop><stop offset="1" stop-color="#ebe1ff"></stop></linearGradient><linearGradient gradientUnits="objectBoundingBox" id="未命名的渐变_49" node-id="8" spreadMethod="pad" x1="858.45" x2="988.92" y1="785" y2="785"><stop offset="0" stop-color="#ebf4ff"></stop><stop offset="1" stop-color="#ebebff"></stop></linearGradient><linearGradient gradientUnits="objectBoundingBox" id="未命名的渐变_49-2" node-id="11" spreadMethod="pad" x1="230.04" x2="475.05" y1="901.2" y2="901.2"><stop offset="0" stop-color="#ebf4ff"></stop><stop offset="1" stop-color="#ebebff"></stop></linearGradient><linearGradient gradientUnits="objectBoundingBox" id="未命名的渐变_17" node-id="12" spreadMethod="pad" x1="-301.31" x2="-298.72" y1="2179.31" y2="2179.31"><stop offset="0" stop-color="#eaeff5"></stop><stop offset="0.99" stop-color="#dee1f0"></stop></linearGradient><linearGradient gradientUnits="objectBoundingBox" id="未命名的渐变_23" node-id="15" spreadMethod="pad" x1="-326.82" x2="-324.26" y1="2178.61" y2="2178.61"><stop offset="0" stop-color="#548fff"></stop><stop offset="1" stop-color="#949fff"></stop></linearGradient><linearGradient gradientUnits="objectBoundingBox" id="未命名的渐变_49-3" node-id="18" spreadMethod="pad" x1="529.4" x2="607.11" y1="994.82" y2="994.82"><stop offset="0" stop-color="#ebf4ff"></stop><stop offset="1" stop-color="#ebebff"></stop></linearGradient><linearGradient gradientUnits="objectBoundingBox" id="未命名的渐变_23-2" node-id="19" spreadMethod="pad" x1="-317.55" x2="-314.99" y1="2180.14" y2="2180.14"><stop offset="0" stop-color="#548fff"></stop><stop offset="1" stop-color="#949fff"></stop></linearGradient><linearGradient gradientUnits="objectBoundingBox" id="未命名的渐变_49-4" node-id="20" spreadMethod="pad" x1="1097.93" x2="1258.89" y1="862.88" y2="862.88"><stop offset="0" stop-color="#ebf4ff"></stop><stop offset="1" stop-color="#ebebff"></stop></linearGradient></defs><path d="M 1498.00 1180.00 L 220.00 1180.00 C 207.59 1179.97 197.53 1169.91 197.50 1157.50 L 197.50 1157.50 C 197.53 1145.09 207.59 1135.03 220.00 1135.00 L 1498.00 1135.00 C 1510.41 1135.04 1520.46 1145.09 1520.50 1157.50 L 1520.50 1157.50 C 1520.46 1169.91 1510.41 1179.96 1498.00 1180.00 Z" fill="none" node-id="103" stroke="#d3dcf4" stroke-linecap="butt" stroke-width="20" target-height="45" target-width="1323.0001" target-x="197.5" target-y="1135"></path><path d="M 1133.45 1221.00 L 1208.29 1221.00 C 1231.82 1221.00 1255.93 1219.32 1279.35 1221.85 C 1286.72 1222.64 1295.42 1223.30 1302.18 1226.94 C 1308.51 1230.35 1307.59 1235.78 1305.10 1241.47 C 1301.52 1249.61 1297.69 1257.14 1298.32 1266.32 C 1298.99 1276.12 1307.04 1280.03 1315.82 1281.88 C 1341.82 1287.37 1369.17 1283.80 1395.45 1283.00 C 1407.00 1282.65 1407.05 1264.64 1395.45 1265.00 C 1371.64 1265.73 1347.34 1268.61 1323.62 1265.08 C 1322.83 1264.96 1313.38 1262.08 1313.46 1262.00 C 1313.02 1262.39 1317.30 1265.50 1316.32 1266.32 C 1316.36 1265.56 1316.34 1264.80 1316.25 1264.04 C 1316.25 1262.11 1316.59 1260.19 1317.25 1258.37 C 1319.76 1250.61 1324.59 1243.99 1325.17 1235.60 C 1326.64 1214.25 1304.72 1207.23 1287.75 1204.92 C 1264.37 1201.75 1240.75 1203.00 1217.16 1203.00 L 1133.45 1203.00 C 1121.87 1203.00 1121.85 1221.00 1133.45 1221.00 Z" fill="#d3dcf4" fill-rule="nonzero" node-id="105" stroke="none" target-height="85.619995" target-width="285.20007" target-x="1121.85" target-y="1201.75"></path><path d="M 385.45 1229.00 L 645.45 1229.00 C 657.03 1229.00 657.05 1211.00 645.45 1211.00 L 385.45 1211.00 C 373.87 1211.00 373.85 1229.00 385.45 1229.00 Z" fill="#d3dcf4" fill-rule="nonzero" node-id="107" stroke="none" target-height="18" target-width="283.2" target-x="373.84998" target-y="1211"></path><path d="M 484.00 476.50 C 484.00 476.50 670.00 436.50 711.00 418.50 C 752.00 400.50 859.00 321.50 859.00 321.50 L 859.00 1244.50 C 859.00 1244.50 749.00 1182.50 727.00 1176.50 C 705.00 1170.50 575.00 1065.50 562.00 991.50 C 549.00 917.50 529.00 645.50 526.00 627.50 C 523.00 609.50 467.00 475.50 467.00 475.50 Z" fill="url(#未命名的渐变_94)" fill-rule="nonzero" node-id="109" stroke="none" target-height="923" target-width="392" target-x="467" target-y="321.5"></path><path d="M 1233.45 478.50 C 1233.45 478.50 1047.45 438.50 1006.45 420.50 C 965.45 402.50 858.45 323.50 858.45 323.50 L 858.45 1246.50 C 858.45 1246.50 968.45 1184.50 990.45 1178.50 C 1012.45 1172.50 1142.45 1067.50 1155.45 993.50 C 1168.45 919.50 1188.45 647.50 1191.45 629.50 C 1194.45 611.50 1250.45 477.50 1250.45 477.50 Z" fill="#d7d7f4" fill-rule="nonzero" node-id="111" stroke="none" target-height="923" target-width="391.99994" target-x="858.45" target-y="323.5"></path><path d="M 859.86 314.50 L 859.00 314.50 C 859.00 314.50 795.00 426.50 460.00 472.50 C 547.00 631.50 523.00 670.50 541.00 853.50 C 559.00 1036.50 606.00 1076.50 662.00 1136.50 C 718.00 1196.50 763.00 1178.50 859.00 1255.50 L 860.00 1255.50 C 956.00 1178.50 1000.91 1196.50 1056.91 1136.50 C 1112.91 1076.50 1159.91 1036.50 1177.91 853.50 C 1195.91 670.50 1171.91 631.50 1258.91 472.50 C 923.86 426.50 859.86 314.50 859.86 314.50 Z" fill="none" node-id="113" stroke="#5d83ff" stroke-linecap="butt" stroke-width="24" target-height="941" target-width="798.91003" target-x="460" target-y="314.5"></path><path d="M 858.36 503.76 C 869.75 503.76 881.09 505.26 892.08 508.24 L 892.08 508.24 C 893.08 508.50 894.08 508.79 895.08 509.08 L 895.08 509.08 C 896.08 509.37 897.02 509.67 897.98 509.98 L 898.06 509.98 C 899.00 510.29 899.93 510.60 900.87 510.98 L 901.02 510.98 C 901.94 511.30 902.85 511.64 903.76 511.98 L 903.96 512.05 C 904.85 512.39 905.74 512.74 906.62 513.05 L 906.87 513.15 L 909.42 514.22 L 909.77 514.37 C 910.60 514.74 911.43 515.11 912.26 515.50 L 912.63 515.66 C 913.44 516.04 914.23 516.42 915.03 516.82 L 915.48 517.03 L 917.77 518.20 L 918.29 518.47 C 919.04 518.87 919.78 519.27 920.51 519.68 L 921.08 519.99 C 921.78 520.38 922.49 520.79 923.19 521.20 L 923.83 521.58 C 924.50 521.97 925.17 522.39 925.83 522.80 L 926.54 523.24 C 927.18 523.64 927.82 524.05 928.45 524.47 L 929.23 524.97 C 929.85 525.38 930.46 525.80 931.06 526.22 L 931.89 526.78 C 932.46 527.18 933.03 527.60 933.59 528.01 C 933.90 528.23 934.21 528.44 934.51 528.67 C 935.03 529.05 935.51 529.45 936.06 529.84 L 937.06 530.62 L 938.50 531.77 C 938.87 532.07 939.24 532.35 939.60 532.65 L 940.97 533.80 L 942.10 534.80 C 942.51 535.15 942.91 535.51 943.31 535.87 C 943.71 536.23 944.15 536.60 944.56 536.98 L 945.49 537.85 C 945.99 538.30 946.49 538.76 946.98 539.23 L 947.51 539.75 C 948.13 540.35 948.74 540.94 949.35 541.55 C 952.35 544.55 955.11 547.63 957.72 550.82 C 958.04 551.21 958.36 551.60 958.72 552.00 C 959.67 553.19 960.59 554.39 961.50 555.60 C 993.32 598.51 995.29 656.64 966.43 701.60 C 965.85 702.51 965.25 703.41 964.64 704.31 C 963.41 706.12 962.12 707.90 960.79 709.66 C 952.03 721.22 941.38 731.23 929.30 739.26 C 926.98 740.79 924.62 742.26 922.24 743.62 C 915.14 747.69 907.66 751.07 899.91 753.71 L 899.80 753.71 C 897.45 754.51 895.08 755.23 892.69 755.89 L 892.17 756.04 L 891.97 842.25 L 930.71 842.34 C 940.96 842.39 950.66 847.04 957.12 855.00 C 957.47 855.42 957.80 855.85 958.12 856.30 C 959.11 857.62 960.00 859.02 960.79 860.47 C 961.32 861.47 961.79 862.47 962.24 863.47 C 962.83 864.88 963.32 866.32 963.72 867.79 C 963.79 868.07 963.87 868.35 963.93 868.63 C 964.29 870.09 964.55 871.58 964.71 873.08 C 964.71 873.20 964.71 873.31 964.71 873.43 C 964.82 874.54 964.87 875.66 964.87 876.79 C 964.78 892.71 953.79 906.49 938.29 910.11 C 937.63 910.26 936.97 910.40 936.29 910.51 L 935.29 910.67 C 933.73 910.89 932.16 911.00 930.59 911.00 L 930.51 911.00 L 911.08 911.00 L 891.78 910.95 L 891.69 949.95 L 954.69 950.09 C 969.40 950.11 982.46 959.51 987.13 973.46 C 991.80 987.41 987.04 1002.79 975.31 1011.66 L 974.64 1012.16 C 974.15 1012.51 973.65 1012.84 973.14 1013.16 C 967.62 1016.74 961.19 1018.65 954.61 1018.65 L 954.53 1018.65 L 891.53 1018.50 L 891.53 1018.50 L 891.53 1032.03 C 891.53 1032.61 891.53 1033.19 891.53 1033.77 C 891.53 1033.95 891.53 1034.13 891.53 1034.32 C 891.53 1034.71 891.47 1035.10 891.43 1035.48 C 891.39 1035.86 891.38 1035.93 891.35 1036.15 C 891.32 1036.37 891.27 1036.84 891.21 1037.15 C 891.15 1037.46 891.13 1037.64 891.08 1037.88 C 891.03 1038.12 890.98 1038.51 890.91 1038.82 C 890.84 1039.13 890.80 1039.32 890.74 1039.58 C 890.68 1039.84 890.61 1040.16 890.54 1040.45 C 890.47 1040.74 890.39 1040.97 890.32 1041.23 L 890.08 1042.06 L 889.81 1042.85 C 889.72 1043.11 889.64 1043.37 889.55 1043.62 C 889.46 1043.87 889.34 1044.16 889.23 1044.43 C 889.12 1044.70 889.04 1044.92 888.94 1045.16 C 888.84 1045.40 888.70 1045.70 888.58 1045.97 C 888.46 1046.24 888.38 1046.43 888.27 1046.65 C 888.16 1046.87 888.00 1047.20 887.86 1047.47 L 887.53 1048.11 C 887.38 1048.39 887.22 1048.66 887.06 1048.94 C 886.90 1049.22 886.84 1049.33 886.72 1049.52 L 886.20 1050.35 C 886.08 1050.53 885.97 1050.72 885.85 1050.89 C 885.73 1051.06 885.47 1051.45 885.27 1051.72 L 884.92 1052.22 L 884.28 1053.05 C 884.16 1053.20 884.05 1053.35 883.93 1053.49 C 883.81 1053.63 883.47 1054.05 883.23 1054.32 L 882.88 1054.72 C 882.64 1055.00 882.38 1055.27 882.12 1055.54 C 881.86 1055.81 881.90 1055.78 881.78 1055.89 C 881.51 1056.17 881.24 1056.44 880.96 1056.70 L 880.63 1057.01 C 880.34 1057.28 880.05 1057.55 879.75 1057.81 L 879.43 1058.08 L 878.43 1058.85 L 878.13 1059.09 C 877.80 1059.35 877.46 1059.59 877.13 1059.84 L 876.85 1060.04 L 875.77 1060.76 L 875.51 1060.93 L 874.37 1061.62 L 874.13 1061.75 C 873.74 1061.98 873.33 1062.20 872.93 1062.41 L 872.71 1062.52 C 872.30 1062.73 871.87 1062.93 871.45 1063.13 L 871.26 1063.21 C 870.82 1063.41 870.38 1063.60 869.93 1063.78 L 869.77 1063.84 C 869.31 1064.02 868.85 1064.19 868.38 1064.35 L 868.24 1064.35 C 867.76 1064.51 867.24 1064.67 866.80 1064.81 L 866.68 1064.81 C 866.19 1064.95 865.68 1065.08 865.19 1065.20 L 865.10 1065.20 C 864.58 1065.32 864.10 1065.43 863.55 1065.53 L 863.48 1065.53 C 862.95 1065.63 862.42 1065.72 861.88 1065.79 L 861.88 1065.79 C 861.33 1065.87 860.78 1065.93 860.22 1065.98 L 860.22 1065.98 C 859.22 1066.06 858.30 1066.11 857.32 1066.11 L 857.25 1066.11 C 838.39 1066.03 823.11 1050.77 823.00 1031.91 L 823.64 755.91 C 761.87 738.55 722.38 678.27 731.14 614.71 C 739.91 551.14 794.23 503.80 858.40 503.80 M 858.59 691.98 C 864.31 691.98 870.00 691.16 875.49 689.55 L 875.49 689.55 C 876.41 689.28 877.32 688.99 878.22 688.67 L 878.35 688.67 C 879.22 688.37 880.08 688.05 880.94 687.67 L 881.15 687.58 C 881.98 687.24 882.80 686.89 883.61 686.52 L 884.24 686.21 C 884.91 685.89 885.58 685.57 886.24 685.21 L 887.13 684.71 C 887.69 684.41 888.26 684.11 888.81 683.78 L 889.91 683.10 C 890.38 682.80 890.91 682.52 891.33 682.21 C 891.75 681.90 892.20 681.61 892.64 681.31 C 893.08 681.01 893.41 680.79 893.78 680.51 C 894.47 680.01 895.14 679.51 895.78 678.95 L 896.14 678.67 C 909.28 668.03 917.30 652.32 918.21 635.44 C 919.11 618.55 912.81 602.08 900.88 590.10 C 900.15 589.37 899.40 588.66 898.65 587.97 C 898.48 587.82 898.31 587.69 898.15 587.54 C 897.55 587.01 896.95 586.48 896.33 585.98 C 896.12 585.80 895.90 585.64 895.68 585.47 C 895.11 585.02 894.53 584.56 893.95 584.12 L 893.28 583.66 C 892.69 583.23 892.09 582.81 891.49 582.40 L 890.88 582.02 C 890.24 581.61 889.61 581.20 888.96 580.82 L 888.44 580.53 C 887.76 580.13 887.07 579.74 886.38 579.37 L 885.97 579.17 C 885.23 578.79 884.49 578.42 883.73 578.07 L 883.43 577.94 C 882.64 577.57 881.85 577.22 881.04 576.94 L 880.83 576.85 C 879.99 576.52 879.15 576.20 878.31 575.90 L 878.20 575.90 C 877.32 575.59 876.43 575.30 875.54 575.04 L 875.54 575.04 C 870.02 573.41 864.29 572.59 858.54 572.59 L 858.44 572.59 C 825.75 573.01 799.47 599.63 799.47 632.33 C 799.47 665.02 825.75 691.64 858.44 692.06 L 858.54 692.06 M 858.35 483.88 L 858.35 483.88 C 787.14 483.91 725.97 534.50 712.59 604.45 C 699.21 674.40 737.38 743.99 803.55 770.31 L 802.95 1031.98 C 802.93 1061.94 827.15 1086.27 857.11 1086.40 L 857.23 1086.40 C 858.60 1086.40 860.00 1086.34 861.48 1086.22 L 861.48 1086.22 L 861.80 1086.22 C 862.62 1086.15 863.46 1086.06 864.29 1085.95 L 864.55 1085.95 L 864.71 1085.95 C 865.47 1085.84 866.25 1085.71 867.02 1085.57 L 867.16 1085.57 C 867.92 1085.42 868.73 1085.25 869.53 1085.07 L 869.64 1085.07 L 869.74 1085.07 C 870.50 1084.89 871.27 1084.68 872.04 1084.47 L 872.29 1084.39 L 872.29 1084.39 C 873.05 1084.17 873.82 1083.93 874.59 1083.67 L 874.59 1083.67 L 874.77 1083.61 C 875.50 1083.36 876.23 1083.09 876.96 1082.80 L 877.26 1082.68 C 877.93 1082.42 878.64 1082.12 879.33 1081.80 L 879.39 1081.80 L 879.59 1081.71 L 879.64 1081.71 C 880.30 1081.40 880.98 1081.07 881.64 1080.71 L 881.98 1080.54 L 883.89 1079.54 L 884.24 1079.34 C 884.86 1078.98 885.47 1078.61 886.06 1078.24 L 886.45 1077.99 C 887.06 1077.60 887.63 1077.21 888.18 1076.83 L 888.53 1076.58 L 888.59 1076.58 L 888.59 1076.58 L 888.59 1076.58 C 889.14 1076.19 889.67 1075.79 890.18 1075.40 L 890.59 1075.08 L 890.59 1075.08 C 891.12 1074.66 891.59 1074.25 892.10 1073.85 L 892.53 1073.48 L 892.53 1073.48 C 893.02 1073.05 893.53 1072.64 893.93 1072.22 L 894.41 1071.77 L 894.47 1071.71 C 894.90 1071.30 895.32 1070.89 895.73 1070.47 L 896.23 1069.95 L 896.29 1069.89 C 896.70 1069.46 897.10 1069.03 897.49 1068.58 C 897.64 1068.43 897.80 1068.24 897.97 1068.05 L 898.03 1067.98 C 898.41 1067.54 898.78 1067.10 899.14 1066.66 C 899.30 1066.46 899.47 1066.25 899.63 1066.03 L 899.69 1065.96 C 900.04 1065.52 900.37 1065.09 900.69 1064.65 L 901.17 1063.97 L 901.24 1063.88 C 901.56 1063.43 901.86 1063.00 902.15 1062.56 C 902.32 1062.31 902.48 1062.06 902.64 1061.81 L 902.71 1061.71 L 903.53 1060.40 C 903.69 1060.14 903.84 1059.86 904.00 1059.59 L 904.06 1059.48 L 904.13 1059.36 C 904.36 1058.97 904.58 1058.57 904.80 1058.17 C 905.02 1057.77 905.12 1057.57 905.27 1057.28 L 905.27 1057.16 L 905.34 1057.03 C 905.54 1056.64 905.74 1056.25 905.93 1055.86 C 906.12 1055.47 906.24 1055.20 906.38 1054.86 L 906.44 1054.74 L 906.44 1054.65 C 906.62 1054.25 906.80 1053.86 906.97 1053.45 C 907.14 1053.04 907.24 1052.79 907.38 1052.45 L 907.38 1052.33 L 907.38 1052.24 C 907.54 1051.84 907.70 1051.44 907.85 1051.03 C 908.00 1050.62 908.10 1050.33 908.22 1049.97 L 908.22 1049.83 L 908.27 1049.70 C 908.40 1049.32 908.52 1048.95 908.64 1048.57 C 908.76 1048.19 908.87 1047.79 908.98 1047.41 L 908.98 1047.26 L 908.98 1047.11 L 909.28 1046.02 L 909.58 1044.77 L 909.58 1044.62 L 909.58 1044.52 C 909.67 1044.15 909.76 1043.78 909.83 1043.41 C 909.90 1043.04 910.00 1042.53 910.08 1042.08 L 910.08 1041.92 L 910.08 1041.85 C 910.15 1041.50 910.21 1041.15 910.27 1040.79 C 910.33 1040.43 910.41 1039.79 910.46 1039.33 L 910.46 1039.18 L 910.46 1039.18 C 910.46 1039.18 910.46 1039.13 910.46 1039.11 L 953.83 1039.21 L 953.96 1039.21 C 964.66 1039.19 975.12 1035.98 984.00 1030.00 C 984.81 1029.47 985.61 1028.92 986.37 1028.37 C 986.72 1028.12 987.08 1027.86 987.43 1027.59 C 1005.98 1013.52 1013.49 989.19 1006.09 967.11 C 998.69 945.04 978.02 930.15 954.74 930.11 L 940.74 930.11 C 941.44 929.97 942.14 929.83 942.83 929.67 C 967.38 923.94 984.78 902.12 984.90 876.91 C 984.91 875.13 984.82 873.35 984.65 871.58 C 984.65 871.41 984.65 871.25 984.65 871.09 L 984.65 871.00 C 984.39 868.62 983.98 866.26 983.41 863.93 C 983.30 863.47 983.19 863.04 983.07 862.60 C 982.44 860.26 981.65 857.97 980.71 855.74 C 980.03 854.12 979.26 852.52 978.43 850.98 C 977.18 848.68 975.77 846.48 974.21 844.38 C 973.69 843.69 973.15 843.00 972.61 842.38 C 962.35 829.83 947.01 822.54 930.80 822.51 L 912.00 822.39 L 912.12 770.60 C 919.04 767.90 925.75 764.70 932.19 761.00 C 934.95 759.41 937.69 757.72 940.35 756.00 C 948.52 750.57 956.14 744.36 963.09 737.44 C 967.98 732.55 972.54 727.34 976.72 721.83 C 978.26 719.83 979.72 717.73 981.17 715.64 C 981.87 714.64 982.57 713.56 983.25 712.51 C 1016.62 660.53 1014.35 593.33 977.55 543.72 C 976.49 542.30 975.41 540.90 974.33 539.56 C 973.97 539.10 973.61 538.65 973.24 538.21 C 970.18 534.47 966.93 530.87 963.57 527.50 C 962.87 526.79 962.16 526.11 961.46 525.43 L 961.40 525.37 C 961.21 525.19 961.03 525.00 960.83 524.82 L 959.45 523.53 L 959.13 523.23 L 958.87 522.99 L 958.05 522.22 L 956.96 521.22 L 956.61 520.91 L 956.27 520.61 C 955.92 520.29 955.57 519.98 955.21 519.68 C 954.85 519.38 954.56 519.12 954.21 518.85 L 953.88 518.57 L 953.53 518.27 L 952.31 517.27 C 952.00 517.01 951.67 516.76 951.31 516.50 L 951.00 516.25 L 950.66 515.98 L 949.33 514.92 L 948.44 514.25 L 948.15 514.03 L 947.81 513.77 L 946.34 512.66 L 945.52 512.07 L 945.28 511.90 L 945.01 511.70 L 943.31 510.48 L 942.55 509.96 L 942.35 509.83 L 942.19 509.71 L 940.25 508.40 L 939.51 507.92 L 939.34 507.81 L 939.14 507.67 L 937.14 506.39 L 936.45 505.97 L 936.31 505.88 C 935.54 505.40 934.77 504.93 933.99 504.47 L 933.35 504.09 L 933.24 504.03 C 932.43 503.56 931.62 503.09 930.80 502.63 L 930.20 502.30 L 930.12 502.30 C 929.30 501.84 928.44 501.37 927.58 500.92 L 927.00 500.62 L 926.93 500.62 C 926.09 500.18 925.21 499.73 924.32 499.29 L 923.78 499.03 L 923.78 499.03 C 922.90 498.60 921.98 498.15 921.06 497.72 L 920.56 497.50 C 919.50 497.01 918.56 496.60 917.74 496.23 L 917.27 496.03 C 916.20 495.57 915.27 495.18 914.39 494.82 L 914.02 494.67 C 912.95 494.23 912.02 493.85 911.02 493.49 L 910.69 493.37 C 909.63 492.97 908.63 492.60 907.63 492.25 L 907.56 492.25 L 907.48 492.25 L 907.37 492.25 C 906.25 491.86 905.22 491.51 904.20 491.19 L 904.05 491.14 L 903.98 491.14 C 902.98 490.80 901.88 490.47 900.84 490.14 L 900.61 490.07 L 900.51 490.07 C 899.51 489.76 898.43 489.47 897.41 489.19 L 897.33 489.19 L 897.22 489.19 C 884.54 485.77 871.46 484.03 858.33 484.03 Z M 858.54 672.06 L 858.44 672.06 C 836.74 671.72 819.33 654.03 819.33 632.33 C 819.33 610.62 836.74 592.93 858.44 592.59 L 858.50 592.59 C 862.33 592.59 866.13 593.14 869.80 594.22 L 870.11 594.31 L 870.11 594.31 L 871.60 594.80 L 871.84 594.88 C 872.29 595.04 872.78 595.23 873.34 595.45 L 873.67 595.58 C 874.06 595.75 874.53 595.95 875.07 596.20 L 875.45 596.37 C 875.79 596.53 876.20 596.74 876.74 597.02 L 877.19 597.24 L 878.38 597.92 L 878.88 598.20 C 879.19 598.39 879.56 598.62 880.00 598.91 L 880.54 599.25 L 881.54 599.96 L 881.54 599.96 L 882.10 600.35 C 882.37 600.55 882.71 600.82 883.10 601.11 L 883.17 601.16 L 883.73 601.60 C 884.05 601.86 884.44 602.21 884.81 602.54 L 885.30 602.97 C 885.76 603.38 886.21 603.82 886.64 604.25 C 894.09 611.71 898.26 621.83 898.23 632.38 C 898.21 642.92 893.99 653.02 886.51 660.45 C 885.60 661.35 884.64 662.22 883.66 663.03 L 883.24 663.36 C 882.68 663.81 882.24 664.13 881.92 664.36 L 881.69 664.52 L 881.12 664.91 L 880.61 665.27 L 880.24 665.53 L 879.80 665.80 L 879.32 666.09 L 878.72 666.47 L 878.53 666.59 C 878.29 666.73 878.04 666.86 877.79 666.99 L 877.47 667.17 L 876.82 667.53 L 876.82 667.53 L 875.61 668.12 L 875.02 668.41 C 874.59 668.60 874.11 668.81 873.56 669.03 L 873.20 669.18 C 872.75 669.36 872.26 669.54 871.71 669.73 L 871.66 669.73 L 871.42 669.82 C 870.95 669.98 870.48 670.13 870.00 670.27 L 869.70 670.35 L 869.50 670.42 C 865.92 671.44 862.22 671.96 858.50 671.95 Z" fill="#fe9f39" fill-rule="nonzero" node-id="115" stroke="none" target-height="602.52" target-width="317.41003" target-x="699.20966" target-y="483.88"></path><path d="M 857.17 1066.28 C 876.08 1066.26 891.44 1050.98 891.54 1032.07 L 891.54 1018.51 L 954.54 1018.66 C 973.48 1018.70 988.87 1003.39 988.91 984.45 C 988.95 965.51 973.64 950.12 954.70 950.08 L 891.70 949.94 L 891.79 910.94 L 930.52 911.03 C 949.46 911.07 964.85 895.76 964.89 876.82 C 964.93 857.88 949.62 842.49 930.68 842.45 L 892.00 842.35 L 892.20 756.14 C 954.19 739.23 994.15 679.12 985.75 615.42 C 977.35 551.71 923.16 504.02 858.91 503.77 C 794.65 503.51 740.10 550.78 731.19 614.41 C 722.29 678.05 761.77 738.48 823.63 755.87 L 822.99 1031.87 C 822.98 1050.79 838.25 1066.16 857.17 1066.28 Z M 816.41 589.87 C 839.79 566.60 877.61 566.70 900.88 590.08 C 924.15 613.46 924.06 651.27 900.68 674.54 C 877.30 697.81 839.48 697.73 816.21 674.35 C 805.03 663.12 798.77 647.91 798.81 632.07 C 798.85 616.23 805.18 601.05 816.41 589.87 Z" fill="#ffffff" fill-rule="nonzero" node-id="117" stroke="none" target-height="562.7659" target-width="271.86548" target-x="722.2871" target-y="503.5141"></path><path d="M 954.71 950.08 L 891.71 949.94 L 891.80 910.94 L 930.53 911.03 C 942.92 911.27 954.47 904.81 960.75 894.13 C 967.03 883.45 967.06 870.21 960.83 859.50 C 954.60 848.79 943.08 842.28 930.69 842.46 L 892.00 842.35 L 892.20 756.14 C 954.28 739.22 994.26 678.98 985.74 615.20 C 977.22 551.42 922.83 503.79 858.48 503.76 L 858.48 572.47 C 880.01 572.19 900.02 583.52 910.86 602.11 C 921.70 620.71 921.70 643.70 910.86 662.30 C 900.02 680.89 880.01 692.22 858.48 691.94 L 858.48 1066.25 C 876.88 1065.55 891.47 1050.48 891.57 1032.07 L 891.57 1018.51 L 954.57 1018.66 C 973.51 1018.70 988.90 1003.39 988.94 984.45 C 988.98 965.51 973.67 950.12 954.73 950.08 Z" fill="url(#未命名的渐变_49)" fill-rule="nonzero" node-id="119" stroke="none" target-height="562.49" target-width="135.78497" target-x="858.48" target-y="503.76"></path><path d="M 1489.39 692.67 L 1470.74 685.45 C 1469.78 680.49 1468.37 675.63 1466.53 670.93 L 1478.40 653.71 C 1479.92 652.11 1479.86 650.59 1478.29 649.10 L 1456.20 628.10 C 1454.86 626.95 1452.87 627.00 1451.59 628.21 L 1435.00 640.93 C 1430.32 639.52 1424.94 638.93 1420.29 637.46 L 1412.13 619.19 C 1411.01 617.80 1409.16 617.25 1407.46 617.78 L 1378.46 626.21 C 1376.92 626.21 1376.21 628.58 1376.26 630.10 L 1379.08 650.82 L 1373.83 656.35 L 1368.58 661.87 L 1347.76 660.08 C 1346.24 660.08 1344.67 660.16 1343.97 662.49 L 1336.97 691.90 C 1336.25 694.24 1336.31 695.76 1338.61 696.49 L 1357.28 703.71 C 1358.23 708.67 1359.63 713.53 1361.49 718.23 L 1350.41 736.23 C 1348.90 737.81 1348.94 739.32 1350.52 740.82 L 1372.60 761.82 C 1373.94 762.97 1375.92 762.93 1377.21 761.72 L 1393.81 748.98 C 1398.60 750.60 1403.53 751.76 1408.53 752.46 L 1416.70 770.74 C 1417.47 771.47 1419.06 772.99 1421.36 772.15 L 1450.36 763.73 C 1451.90 763.73 1452.62 761.35 1452.56 759.82 L 1449.73 739.11 L 1454.98 733.58 C 1456.47 732.01 1458.72 729.64 1459.43 727.30 L 1480.27 729.08 C 1481.80 729.08 1483.36 729.02 1484.05 726.70 L 1491.05 697.28 C 1491.76 694.92 1491.70 693.39 1489.39 692.67 Z M 1429.78 709.59 C 1421.50 718.31 1407.72 718.66 1399.00 710.38 C 1390.29 702.10 1389.93 688.32 1398.21 679.60 C 1406.49 670.88 1420.27 670.53 1428.99 678.81 C 1437.67 687.11 1438.02 700.86 1429.78 709.59 Z" fill="#3a3a77" fill-rule="nonzero" node-id="121" stroke="none" target-height="155.745" target-width="155.51013" target-x="1336.25" target-y="617.245"></path><path d="M 477.34 736.82 C 417.86 725.50 359.44 753.49 323.17 800.46 C 290.36 842.94 270.46 920.36 322.26 957.03 C 345.72 973.65 378.15 972.49 395.80 948.32 C 411.09 927.39 409.62 897.57 394.11 877.32 C 376.85 854.78 346.88 844.01 319.22 843.09 C 287.91 842.04 259.13 855.45 241.81 881.84 C 226.31 905.44 221.59 935.06 221.54 962.84 C 221.48 991.96 226.71 1022.78 242.35 1047.84 C 246.30 1054.16 250.90 1060.05 256.08 1065.40 C 264.15 1073.75 276.87 1061.01 268.81 1052.68 C 251.38 1034.63 243.26 1009.49 240.65 984.95 C 238.10 960.95 239.22 935.64 246.92 912.59 C 254.71 889.29 270.92 869.93 295.30 863.59 C 318.12 857.65 344.30 862.01 364.30 874.42 C 382.09 885.42 392.79 904.92 386.89 925.81 C 384.40 934.58 379.11 942.55 371.04 947.06 C 361.95 952.14 350.90 951.37 341.53 947.39 C 318.74 937.71 308.61 914.26 308.53 890.68 C 308.53 866.03 317.38 841.44 330.59 820.86 C 356.75 780.12 403.99 750.77 453.10 752.11 C 459.61 752.29 466.09 753.00 472.48 754.22 C 477.25 755.13 482.19 752.89 483.55 747.93 C 484.76 743.54 482.06 737.77 477.26 736.86 Z" fill="url(#未命名的渐变_49-2)" fill-rule="nonzero" node-id="123" stroke="none" target-height="348.25" target-width="263.28003" target-x="221.48" target-y="725.5"></path><path d="M 1184.45 374.00 L 1274.45 323.00 L 1229.45 269.00 L 1184.45 374.00 Z" fill="#d3dcf4" fill-rule="nonzero" node-id="125" stroke="none" target-height="105" target-width="90" target-x="1184.45" target-y="269"></path><path d="M 1203.38 381.30 L 1334.52 360.29 L 1316.13 427.23 L 1203.38 381.30 Z" fill="#d3dcf4" fill-rule="nonzero" node-id="127" stroke="none" target-height="66.94" target-width="131.14001" target-x="1203.38" target-y="360.29"></path><g node-id="129"><g node-id="130"><g node-id="133"><path d="M 1269.15 1118.13 L 1236.35 1099.22 C 1233.95 1097.79 1234.20 1095.31 1237.05 1093.66 L 1268.20 1075.66 C 1271.05 1074.02 1275.42 1073.84 1277.82 1075.27 L 1310.62 1094.17 C 1313.10 1095.60 1312.78 1098.09 1309.93 1099.74 L 1278.79 1117.74 C 1275.93 1119.33 1271.63 1119.55 1269.15 1118.13 Z" fill="#c9cfe5" fill-opacity="0.3" fill-rule="nonzero" group-id="1,2,5" id="路径" node-id="39" stroke="none" target-height="45.710083" target-width="79.150024" target-x="1233.95" target-y="1073.84"></path></g><path d="M 1312.29 1081.14 L 1312.29 737.81 L 1234.69 737.81 L 1234.69 1081.18 C 1234.77 1082.22 1235.40 1083.14 1236.35 1083.59 L 1269.15 1102.49 C 1271.63 1103.91 1275.93 1103.70 1278.77 1102.09 L 1309.92 1084.09 C 1311.11 1083.54 1311.98 1082.47 1312.26 1081.19 Z" fill="url(#未命名的渐变_17)" fill-rule="nonzero" group-id="1,2" id="路径-2" node-id="40" stroke="none" target-height="366.10004" target-width="77.6001" target-x="1234.69" target-y="737.81"></path><path d="M 1269.15 759.35 L 1236.35 740.44 C 1233.95 739.01 1234.20 736.52 1237.05 734.88 L 1268.20 716.88 C 1271.05 715.23 1275.42 715.05 1277.82 716.47 C 1279.43 717.42 1290.37 723.73 1310.62 735.39 C 1313.10 736.81 1312.78 739.30 1309.93 740.94 L 1278.79 758.94 C 1275.93 760.60 1271.63 760.76 1269.15 759.35 Z" fill="#fafbfd" fill-rule="nonzero" group-id="1,2" id="路径-3" node-id="41" stroke="none" target-height="45.70996" target-width="79.150024" target-x="1233.95" target-y="715.05005"></path></g><g node-id="131"><g node-id="134"><path d="M 563.91 1136.00 L 531.06 1117.09 C 528.59 1115.67 528.90 1113.16 531.76 1111.52 L 563.01 1093.52 C 565.87 1091.87 570.24 1091.69 572.66 1093.12 L 605.50 1112.04 C 607.98 1113.47 607.67 1115.96 604.81 1117.61 L 573.57 1135.61 C 570.70 1137.27 566.39 1137.45 563.91 1136.00 Z" fill="#a0b3f8" fill-opacity="0.3" fill-rule="nonzero" group-id="1,3,6" id="路径-4" node-id="43" stroke="none" target-height="45.76001" target-width="79.38995" target-x="528.59" target-y="1091.69"></path></g><path d="M 607.11 1099.00 C 607.12 1098.90 607.12 1098.80 607.11 1098.70 L 607.11 994.70 L 529.40 994.70 L 529.40 1099.08 C 529.47 1100.12 530.11 1101.04 531.06 1101.48 L 563.91 1120.40 C 566.39 1121.83 570.70 1121.60 573.55 1120.00 L 604.74 1102.00 C 605.94 1101.46 606.81 1100.38 607.09 1099.10 L 607.09 1099.10 Z" fill="url(#未命名的渐变_23)" fill-rule="nonzero" group-id="1,3" id="路径-5" node-id="44" stroke="none" target-height="127.129944" target-width="77.71997" target-x="529.4" target-y="994.7"></path><path d="M 563.91 1016.24 L 531.06 997.32 C 528.59 995.90 528.90 993.41 531.76 991.77 L 562.95 973.77 C 565.81 972.12 570.18 971.94 572.59 973.36 L 605.44 992.28 C 607.92 993.71 607.61 996.20 604.75 997.85 L 573.56 1015.85 C 570.70 1017.48 566.39 1017.66 563.91 1016.24 Z" fill="url(#未命名的渐变_49-3)" fill-rule="nonzero" group-id="1,3" id="路径-6" node-id="45" stroke="none" target-height="45.71997" target-width="79.329956" target-x="528.59" target-y="971.94"></path></g><g node-id="132"><g node-id="135"><path d="M 1170.39 1161.41 L 1102.39 1122.23 C 1097.25 1119.29 1097.89 1114.13 1103.82 1110.71 L 1168.41 1073.50 C 1174.33 1070.09 1183.28 1069.73 1188.41 1072.67 L 1256.41 1111.85 C 1261.53 1114.85 1260.89 1119.96 1254.97 1123.38 L 1190.37 1160.58 C 1184.47 1164.00 1175.52 1164.36 1170.39 1161.41 Z" fill="#a0b3f8" fill-opacity="0.3" fill-rule="nonzero" group-id="1,4,7" id="路径-7" node-id="47" stroke="none" target-height="94.630005" target-width="164.28003" target-x="1097.25" target-y="1069.73"></path></g><path d="M 1259.86 1090.78 C 1259.88 1090.57 1259.88 1090.37 1259.86 1090.16 L 1259.86 861.69 L 1098.94 861.69 L 1098.94 1090.90 C 1098.94 1092.77 1100.07 1094.51 1102.40 1095.90 L 1170.40 1135.06 C 1175.52 1138.06 1184.47 1137.65 1190.40 1134.24 L 1255.00 1097.00 C 1258.00 1095.28 1259.63 1093.10 1259.83 1091.00 L 1259.83 1091.00 Z" fill="url(#未命名的渐变_23-2)" fill-rule="nonzero" group-id="1,4" id="路径-8" node-id="48" stroke="none" target-height="276.37006" target-width="160.94006" target-x="1098.94" target-y="861.69"></path><path d="M 1169.39 907.30 L 1101.39 868.08 C 1096.25 865.08 1096.89 859.96 1102.82 856.56 L 1167.41 819.28 C 1173.33 815.88 1182.28 815.50 1187.41 818.46 L 1255.41 857.63 C 1260.53 860.63 1259.89 865.75 1253.97 869.15 L 1189.37 906.43 C 1183.47 909.88 1174.52 910.26 1169.39 907.30 Z" fill="url(#未命名的渐变_49-4)" fill-rule="nonzero" group-id="1,4" id="路径-9" node-id="49" stroke="none" target-height="94.75995" target-width="164.28003" target-x="1096.25" target-y="815.5"></path></g></g></svg>