<?xml version="1.0" standalone="no"?><!DOCTYPE svg PUBLIC "-//W3C//DTD SVG 1.1//EN" "http://www.w3.org/Graphics/SVG/1.1/DTD/svg11.dtd"><svg height="1500" node-id="1" sillyvg="true" template-height="1500" template-width="1734" version="1.1" viewBox="0 0 1734 1500" width="1734" xmlns="http://www.w3.org/2000/svg" xmlns:xlink="http://www.w3.org/1999/xlink"><defs node-id="67"><linearGradient gradientUnits="objectBoundingBox" id="未命名的渐变_17" node-id="5" spreadMethod="pad" x1="-293.8" x2="-291.22" y1="3793.68" y2="3793.68"><stop offset="0" stop-color="#eaeff5"></stop><stop offset="0.99" stop-color="#dee1f0"></stop></linearGradient><linearGradient gradientUnits="objectBoundingBox" id="未命名的渐变_94" node-id="8" spreadMethod="pad" x1="417.12" x2="1308.48" y1="753.65" y2="753.65"><stop offset="0" stop-color="#ebf4ff"></stop><stop offset="1" stop-color="#ebe1ff"></stop></linearGradient><linearGradient gradientUnits="objectBoundingBox" id="未命名的渐变_49" node-id="11" spreadMethod="pad" x1="989.12" x2="1349.12" y1="789" y2="789"><stop offset="0" stop-color="#ebf4ff"></stop><stop offset="1" stop-color="#ebebff"></stop></linearGradient><linearGradient gradientUnits="objectBoundingBox" id="未命名的渐变_23" node-id="14" spreadMethod="pad" x1="-316.57" x2="-314.01" y1="3800.45" y2="3800.45"><stop offset="0" stop-color="#548fff"></stop><stop offset="1" stop-color="#949fff"></stop></linearGradient></defs><path d="M 1592.62 1276.00 L 314.62 1276.00 C 302.21 1275.96 292.16 1265.91 292.12 1253.50 L 292.12 1253.50 C 292.16 1241.09 302.21 1231.04 314.62 1231.00 L 1592.62 1231.00 C 1605.03 1231.03 1615.09 1241.09 1615.12 1253.50 L 1615.12 1253.50 C 1615.09 1265.91 1605.03 1275.97 1592.62 1276.00 Z" fill="none" node-id="95" stroke="#d3dcf4" stroke-linecap="butt" stroke-width="20" target-height="45" target-width="1323" target-x="292.12" target-y="1231"></path><path d="M 1228.12 1317.00 L 1303.00 1317.00 C 1326.52 1317.00 1350.64 1315.32 1374.00 1317.85 C 1381.38 1318.64 1390.08 1319.30 1396.83 1322.94 C 1403.17 1326.35 1402.25 1331.78 1399.75 1337.47 C 1396.17 1345.61 1392.35 1353.14 1392.97 1362.32 C 1393.64 1372.12 1401.70 1376.03 1410.47 1377.88 C 1436.47 1383.37 1463.83 1379.80 1490.10 1379.00 C 1501.66 1378.65 1501.71 1360.64 1490.10 1361.00 C 1466.29 1361.73 1441.99 1364.61 1418.27 1361.08 C 1417.48 1360.96 1408.03 1358.08 1408.11 1358.00 C 1407.67 1358.39 1411.95 1361.50 1410.97 1362.32 C 1411.01 1361.56 1410.99 1360.80 1410.90 1360.04 C 1410.91 1358.11 1411.25 1356.19 1411.90 1354.37 C 1414.42 1346.61 1419.24 1339.99 1419.82 1331.60 C 1421.30 1310.25 1399.37 1303.23 1382.40 1300.92 C 1359.02 1297.75 1335.35 1299.00 1311.81 1299.00 L 1228.10 1299.00 C 1216.52 1299.00 1216.50 1317.00 1228.10 1317.00 Z" fill="#d3dcf4" fill-rule="nonzero" node-id="97" stroke="none" target-height="85.61987" target-width="285.20996" target-x="1216.5" target-y="1297.75"></path><path d="M 480.12 1325.00 L 740.12 1325.00 C 751.70 1325.00 751.72 1307.00 740.12 1307.00 L 480.12 1307.00 C 468.54 1307.00 468.52 1325.00 480.12 1325.00 Z" fill="#d3dcf4" fill-rule="nonzero" node-id="99" stroke="none" target-height="18" target-width="283.19998" target-x="468.52" target-y="1307"></path><g node-id="191"><g node-id="200"><path d="M 1271.82 829.13 L 1239.00 810.22 C 1236.59 808.79 1236.84 806.31 1239.69 804.66 L 1270.84 786.66 C 1273.69 785.02 1278.06 784.84 1280.47 786.27 L 1313.26 805.17 C 1315.74 806.60 1315.42 809.09 1312.57 810.74 L 1281.43 828.74 C 1278.61 830.33 1274.30 830.55 1271.82 829.13 Z" fill="#c9cfe5" fill-opacity="0.3" fill-rule="nonzero" group-id="1,10" id="路径" node-id="24" stroke="none" target-height="45.70996" target-width="79.150024" target-x="1236.59" target-y="784.84"></path></g><path d="M 1315.00 792.14 C 1315.01 792.04 1315.01 791.94 1315.00 791.84 L 1315.00 448.84 L 1237.41 448.84 L 1237.41 792.18 C 1237.48 793.23 1238.12 794.15 1239.07 794.59 L 1271.86 813.49 C 1274.34 814.91 1278.65 814.70 1281.49 813.09 L 1312.63 795.09 C 1313.82 794.54 1314.69 793.47 1314.98 792.19 Z" fill="url(#未命名的渐变_17)" fill-rule="nonzero" group-id="1" id="路径-2" node-id="25" stroke="none" target-height="366.07004" target-width="77.599976" target-x="1237.41" target-y="448.84"></path><path d="M 1271.82 470.35 L 1239.00 451.44 C 1236.59 450.01 1236.84 447.52 1239.69 445.88 L 1270.84 427.88 C 1273.69 426.23 1278.06 426.05 1280.47 427.47 C 1282.07 428.42 1293.00 434.72 1313.26 446.39 C 1315.74 447.81 1315.42 450.30 1312.57 451.94 L 1281.43 469.94 C 1278.61 471.60 1274.30 471.76 1271.82 470.35 Z" fill="#fafbfd" fill-rule="nonzero" group-id="1" id="路径-3" node-id="26" stroke="none" target-height="45.710022" target-width="79.150024" target-x="1236.59" target-y="426.05"></path></g><g node-id="192"><path d="M 605.12 1185.00 C 605.12 1185.00 653.12 1100.00 624.12 1008.00 C 595.12 916.00 512.63 675.00 476.88 615.49 C 454.40 577.68 434.43 538.44 417.12 498.00 L 1135.50 322.30 C 1135.50 322.30 1251.58 632.63 1270.85 712.81 C 1290.12 792.99 1327.20 946.00 1297.16 993.50 C 1267.12 1041.00 605.12 1185.00 605.12 1185.00 Z" fill="url(#未命名的渐变_94)" fill-rule="nonzero" group-id="2" node-id="110" stroke="#5d83ff" stroke-linecap="butt" stroke-width="18" target-height="862.7" target-width="910.07996" target-x="417.12" target-y="322.3"></path></g><g node-id="193"><path d="M 1240.62 272.50 L 1259.62 176.50 L 1308.62 203.50 L 1240.62 276.50" fill="#d3dcf4" fill-rule="nonzero" group-id="3" node-id="114" stroke="none" target-height="100" target-width="68" target-x="1240.62" target-y="176.5"></path><path d="M 1253.62 286.50 L 1412.62 243.50 L 1422.62 303.50 L 1253.62 286.50 Z" fill="#d3dcf4" fill-rule="nonzero" group-id="3" node-id="116" stroke="none" target-height="60.000015" target-width="169" target-x="1253.62" target-y="243.49998"></path></g><g node-id="194"><path d="M 304.26 712.00 C 283.11 720.00 261.99 729.00 243.26 741.81 C 224.82 754.37 207.12 771.81 204.78 795.13 C 202.78 815.13 212.73 834.45 231.57 842.07 C 250.21 849.60 272.20 846.73 291.23 842.31 C 311.89 837.51 332.87 829.90 351.09 818.90 C 356.04 815.90 351.52 808.12 346.55 811.12 C 332.22 819.78 316.23 825.96 300.20 830.64 C 282.46 835.82 262.57 839.96 244.11 836.37 C 226.65 832.97 214.81 820.89 213.64 802.75 C 212.26 781.28 227.64 764.20 243.88 752.34 C 262.88 738.48 284.79 728.98 306.68 720.68 C 312.04 718.68 309.68 709.95 304.29 712.00 Z" fill="#d3dcf4" fill-rule="nonzero" group-id="4" node-id="120" stroke="none" target-height="139.6499" target-width="153.26001" target-x="202.78" target-y="709.95"></path><path d="M 344.73 817.77 C 358.10 837.41 377.17 847.89 400.26 852.01 C 405.92 853.01 408.35 844.34 402.65 843.33 C 381.96 839.64 364.57 830.96 352.51 813.23 C 349.27 808.47 341.46 812.97 344.73 817.77 Z" fill="#d3dcf4" fill-rule="nonzero" group-id="4" node-id="122" stroke="none" target-height="44.54004" target-width="66.890045" target-x="341.46" target-y="808.47"></path><path d="M 388.12 791.50 C 385.96 810.77 390.68 828.65 396.45 846.86 C 398.19 852.36 406.88 850.01 405.13 844.47 C 399.57 826.92 395.04 810.08 397.13 791.47 C 397.78 785.72 388.77 785.77 388.13 791.47 Z" fill="#d3dcf4" fill-rule="nonzero" group-id="4" node-id="124" stroke="none" target-height="66.640015" target-width="20.920013" target-x="385.96" target-y="785.72"></path><path d="M 306.82 720.84 C 322.28 715.73 338.19 711.39 354.39 709.42 C 368.17 707.74 382.84 707.35 396.10 712.08 C 406.74 715.87 416.99 723.62 421.33 734.32 C 425.01 743.42 423.91 753.75 419.52 762.40 C 413.45 774.33 402.62 782.57 390.52 787.78 C 385.21 790.06 389.79 797.78 395.06 795.55 C 417.61 785.85 437.41 762.85 431.52 736.86 C 424.85 707.46 391.33 698.18 365.06 699.49 C 344.38 700.49 324.01 705.69 304.42 712.16 C 298.95 713.97 301.30 722.66 306.82 720.84 Z" fill="#d3dcf4" fill-rule="nonzero" group-id="4" node-id="126" stroke="none" target-height="99.60004" target-width="138.45999" target-x="298.95" target-y="698.18"></path><path d="M 272.12 781.33 C 266.54 781.23 261.93 782.94 258.46 787.44 C 255.49 791.41 254.76 796.62 256.53 801.25 C 258.34 805.98 261.83 809.71 266.83 811.04 C 271.52 812.19 276.47 811.39 280.56 808.82 C 288.95 803.30 288.56 789.01 280.05 783.82 C 276.61 781.71 271.89 781.54 268.11 782.73 C 262.07 784.44 258.52 790.66 260.11 796.73 C 261.47 801.49 266.40 804.28 271.18 803.00 C 275.90 801.59 278.68 796.71 277.47 791.93 C 278.32 795.25 276.56 798.68 273.38 799.93 C 274.83 799.38 271.71 800.04 272.68 800.00 C 273.94 799.94 272.61 800.00 272.11 799.86 C 270.65 799.47 268.45 797.66 268.48 796.09 C 268.58 796.39 268.66 796.69 268.71 797.00 C 268.84 797.67 268.80 797.36 268.59 796.07 C 268.86 796.07 268.20 798.45 268.68 796.74 C 268.81 795.96 268.78 795.96 268.60 796.74 L 269.01 795.66 C 269.43 794.62 270.30 793.83 271.37 793.50 C 272.04 793.27 271.95 793.28 271.11 793.50 C 269.37 793.86 272.04 793.50 270.94 793.50 C 269.84 793.50 272.57 793.99 271.02 793.50 C 272.09 793.76 273.02 794.44 273.58 795.39 C 272.68 793.96 273.75 797.06 273.47 795.24 L 273.60 796.39 C 273.60 795.57 273.60 795.55 273.51 796.39 C 273.22 797.23 272.82 798.03 272.32 798.76 C 273.25 797.66 271.64 798.91 271.14 799.20 L 270.37 799.33 L 272.12 799.33 C 276.83 799.42 281.34 795.13 281.12 790.33 C 281.03 785.40 277.05 781.42 272.12 781.33 Z" fill="#d3dcf4" fill-rule="nonzero" group-id="4" node-id="128" stroke="none" target-height="30.956787" target-width="34.187286" target-x="254.76273" target-y="781.23"></path><path d="M 320.79 757.33 C 315.54 757.33 310.18 758.54 307.19 763.33 C 304.65 767.38 304.38 773.03 305.95 777.52 C 307.82 783.22 312.87 787.28 318.84 787.89 C 324.80 788.51 330.57 785.56 333.57 780.37 C 338.26 771.92 333.76 760.43 324.12 758.55 C 315.12 756.80 304.82 762.23 306.84 772.63 C 307.64 775.72 310.04 778.12 313.13 778.92 L 313.73 779.03 C 318.34 779.91 323.66 777.75 324.80 772.75 C 325.80 768.31 323.46 762.61 318.51 761.67 L 317.91 761.56 L 324.20 767.85 C 324.82 771.05 323.96 774.19 321.14 775.92 C 322.33 775.19 318.93 776.42 320.32 776.22 C 320.58 776.14 320.84 776.07 321.11 776.02 C 322.03 775.86 321.65 775.91 319.98 776.17 C 320.42 776.22 320.85 776.22 321.29 776.17 C 319.63 775.90 319.29 775.87 320.19 776.06 C 321.09 776.25 320.75 776.17 319.19 775.58 C 320.55 776.35 317.71 774.03 318.69 775.11 C 317.97 774.41 317.47 773.52 317.24 772.55 C 317.47 773.41 317.45 773.11 317.24 771.63 C 317.74 771.43 316.52 774.70 317.36 773.09 C 317.85 772.16 317.89 770.90 318.97 770.29 C 319.45 770.07 319.98 769.98 320.50 770.03 C 321.50 770.22 321.73 770.23 321.10 770.03 C 320.47 769.83 320.66 769.92 321.77 770.32 C 322.77 771.18 322.91 771.32 322.22 770.64 C 323.00 771.74 323.15 771.88 322.65 771.06 C 323.11 772.24 323.24 772.50 323.04 771.85 C 322.95 771.56 322.88 771.26 322.84 770.96 C 323.01 772.33 323.07 772.49 323.02 771.46 C 322.97 770.43 323.02 770.59 322.90 771.82 C 322.64 772.65 322.10 773.36 321.37 773.82 C 320.85 774.61 320.03 775.15 319.10 775.33 C 320.04 775.10 319.80 775.10 318.37 775.33 C 319.18 775.37 319.99 775.34 320.80 775.25 C 325.50 775.25 330.02 771.12 329.80 766.25 C 329.71 761.32 325.73 757.34 320.80 757.25 Z" fill="#d3dcf4" fill-rule="nonzero" group-id="4" node-id="130" stroke="none" target-height="31.710327" target-width="33.880005" target-x="304.38" target-y="756.8"></path><path d="M 372.48 742.64 C 368.16 738.19 361.83 738.37 356.59 740.92 C 352.29 743.00 349.18 746.95 348.18 751.63 C 346.76 757.63 348.78 763.63 354.33 766.63 C 358.72 768.92 363.84 769.36 368.56 767.85 C 378.77 764.48 384.03 753.05 377.56 743.76 C 374.15 738.85 368.56 736.00 362.56 737.76 C 357.20 739.32 352.26 743.55 352.47 749.59 C 352.53 753.61 355.21 757.13 359.07 758.26 C 360.27 758.60 361.51 758.75 362.75 758.69 C 367.42 758.27 371.98 754.84 371.75 749.69 C 371.54 745.17 367.75 740.24 362.75 740.69 L 363.86 740.91 L 370.47 749.59 C 370.39 747.18 369.02 756.35 366.75 755.30 C 366.70 755.30 369.22 755.24 367.23 755.09 C 365.76 754.88 364.31 754.54 362.90 754.09 C 362.38 753.35 362.29 753.25 362.63 753.80 C 362.97 754.35 362.91 754.23 362.51 753.33 C 362.70 755.22 362.62 751.95 362.62 751.84 L 363.04 750.84 C 362.60 751.53 362.58 751.58 362.97 751.00 C 363.36 750.42 363.34 750.45 362.76 751.05 L 363.47 750.45 C 361.26 751.13 365.37 750.19 363.08 750.65 C 361.36 751.00 364.24 750.73 363.13 750.65 C 362.02 750.57 364.94 751.22 363.27 750.72 C 362.93 750.65 362.60 750.56 362.27 750.45 C 361.63 750.26 361.80 750.33 362.78 750.67 L 365.67 755.53 C 365.46 756.59 365.47 756.59 365.72 755.53 C 364.52 756.72 366.72 755.10 365.29 756.12 C 364.88 756.42 363.13 757.62 364.49 756.99 C 366.23 756.18 362.82 757.06 364.77 756.84 C 362.95 757.16 361.08 756.58 359.77 755.28 C 363.32 758.58 368.84 758.49 372.27 755.06 C 375.70 751.63 375.79 746.11 372.49 742.56 Z" fill="#d3dcf4" fill-rule="nonzero" group-id="4" node-id="132" stroke="none" target-height="33.358826" target-width="37.269928" target-x="346.76004" target-y="736"></path></g><g node-id="195"><path d="M 742.12 612.00 C 742.12 635.20 723.32 654.00 700.12 654.00 C 676.92 654.00 658.12 635.20 658.12 612.00 C 658.12 588.80 676.92 570.00 700.12 570.00 C 723.32 570.00 742.12 588.80 742.12 612.00 Z" fill="#fe9f39" fill-rule="nonzero" group-id="5" node-id="136" stroke="none" target-height="84" target-width="84" target-x="658.12" target-y="570"></path><path d="M 801.12 759.00 C 801.12 782.20 782.32 801.00 759.12 801.00 C 735.92 801.00 717.12 782.20 717.12 759.00 C 717.12 735.80 735.92 717.00 759.12 717.00 C 782.32 717.00 801.12 735.80 801.12 759.00 Z" fill="#fe9f39" fill-rule="nonzero" group-id="5" node-id="138" stroke="none" target-height="84" target-width="84" target-x="717.12" target-y="717"></path><path d="M 855.12 907.00 C 855.12 930.20 836.32 949.00 813.12 949.00 C 789.92 949.00 771.12 930.20 771.12 907.00 C 771.12 883.80 789.92 865.00 813.12 865.00 C 836.32 865.00 855.12 883.80 855.12 907.00 Z" fill="#fe9f39" fill-rule="nonzero" group-id="5" node-id="140" stroke="none" target-height="84" target-width="84.00006" target-x="771.12" target-y="865"></path><g node-id="201"><path d="M 815.16 541.24 L 1028.42 487.20 C 1049.84 481.78 1071.59 494.74 1077.02 516.15 L 1077.02 516.15 C 1082.45 537.56 1069.49 559.32 1048.07 564.75 L 834.81 618.79 C 813.40 624.22 791.64 611.26 786.21 589.84 L 786.21 589.84 C 780.79 568.43 793.75 546.67 815.16 541.24 Z" fill="#5d83ff" fill-rule="nonzero" group-id="5,11" node-id="144" stroke="none" target-height="142.44412" target-width="301.6612" target-x="780.7863" target-y="481.77524"></path></g><path d="M 1039.08 728.75 L 888.82 767.75 C 867.42 773.11 845.70 760.18 840.22 738.81 L 840.22 738.81 C 834.86 717.40 847.79 695.69 869.17 690.21 L 1019.42 651.21 C 1040.82 645.85 1062.54 658.78 1068.02 680.15 L 1068.02 680.15 C 1073.38 701.55 1060.45 723.27 1039.08 728.75 Z" fill="#5d83ff" fill-rule="nonzero" group-id="5" node-id="147" stroke="none" target-height="127.26465" target-width="238.52399" target-x="834.85834" target-y="645.84766"></path><g node-id="202"><path d="M 922.17 836.24 L 1135.43 782.20 C 1156.84 776.77 1178.60 789.73 1184.03 811.15 L 1184.03 811.15 C 1189.45 832.56 1176.49 854.32 1155.08 859.75 L 941.82 913.79 C 920.41 919.22 898.65 906.26 893.22 884.84 L 893.22 884.84 C 887.79 863.43 900.75 841.67 922.17 836.24 Z" fill="#5d83ff" fill-rule="nonzero" group-id="5,12" node-id="151" stroke="none" target-height="142.44415" target-width="301.66125" target-x="887.7932" target-y="776.7722"></path></g></g><path d="M 445.00 507.18 L 463.35 502.58 L 513.00 490.13 L 586.71 471.64 L 676.20 449.18 L 774.69 424.47 L 873.69 399.64 L 966.41 376.37 L 1044.41 356.80 L 1100.79 342.65 C 1109.65 340.43 1118.63 338.47 1127.42 335.97 C 1127.81 335.86 1128.20 335.78 1128.59 335.68 C 1139.82 332.86 1135.06 315.50 1123.81 318.32 L 1105.46 322.92 L 1055.86 335.37 L 982.16 353.86 L 892.67 376.32 L 794.09 401.00 L 695.09 425.83 L 602.36 449.10 L 524.36 468.67 L 468.00 482.85 C 459.14 485.07 450.16 487.03 441.37 489.53 C 440.98 489.64 440.59 489.72 440.20 489.82 C 429.00 492.64 433.76 510.00 445.00 507.18 Z" fill="#5d83ff" fill-rule="nonzero" node-id="155" stroke="none" target-height="194.5" target-width="710.81995" target-x="429" target-y="315.5"></path><path d="M 430.71 324.31 L 448.64 320.20 L 497.74 309.00 L 570.00 292.40 L 658.66 272.10 L 755.34 250.00 L 853.34 227.55 L 944.34 206.71 L 1021.61 189.00 L 1076.90 176.34 C 1085.63 174.34 1094.50 172.64 1103.16 170.34 C 1103.54 170.23 1103.93 170.16 1104.31 170.07 C 1115.60 167.49 1110.82 150.13 1099.53 152.71 L 1081.60 156.82 L 1032.50 168.00 L 960.21 184.60 L 871.55 204.90 L 774.91 227.00 L 676.91 249.45 L 585.91 270.29 L 508.63 288.00 L 453.34 300.66 C 444.61 302.66 435.74 304.36 427.08 306.66 C 426.70 306.77 426.31 306.84 425.93 306.93 C 414.64 309.51 419.42 326.87 430.71 324.29 Z" fill="#5d83ff" fill-rule="nonzero" node-id="157" stroke="none" target-height="176.73999" target-width="700.95996" target-x="414.64" target-y="150.13"></path><path d="M 380.58 343.86 C 393.10 331.74 410.26 324.11 427.39 326.42 C 445.73 328.89 459.99 341.71 468.48 357.58 C 477.26 374.00 481.00 393.20 481.00 411.70 C 481.00 430.20 477.44 449.32 467.56 465.20 C 459.00 479.00 445.09 487.86 430.00 492.00 C 423.68 493.83 417.07 494.43 410.53 493.78 C 409.96 493.78 409.38 493.67 408.82 493.60 C 410.82 493.85 408.02 493.45 407.82 493.41 C 406.16 493.08 404.52 492.73 402.90 492.28 C 401.56 491.91 400.23 491.48 398.90 491.01 C 398.12 490.73 397.34 490.43 396.57 490.11 C 398.26 490.83 395.81 489.73 395.69 489.67 C 392.96 488.31 390.31 486.78 387.77 485.09 C 385.35 483.49 383.10 481.65 381.06 479.59 C 376.43 475.35 372.45 470.47 369.22 465.09 C 361.78 453.26 357.55 441.44 354.98 427.15 C 352.30 411.98 352.94 396.40 356.84 381.50 C 360.97 366.57 368.34 354.12 380.57 343.88 C 384.30 340.76 383.79 334.38 380.57 331.16 C 376.88 327.46 371.57 328.03 367.84 331.16 C 342.06 352.73 332.57 388.44 336.07 420.95 C 339.44 452.27 353.56 485.51 381.49 502.44 C 411.98 520.91 454.63 510.49 476.63 483.32 C 504.14 449.32 504.82 396.80 488.37 357.82 C 479.48 336.76 463.83 318.82 441.73 311.41 C 421.64 304.64 398.99 308.68 381.45 320.19 C 376.58 323.42 372.02 327.10 367.84 331.19 C 359.51 339.26 372.25 351.98 380.57 343.91 Z" fill="#5d83ff" fill-rule="nonzero" node-id="159" stroke="none" target-height="216.26996" target-width="172.25" target-x="332.57" target-y="304.64"></path><path d="M 1101.62 170.50 C 1104.49 170.70 1107.33 171.20 1110.10 171.99 C 1111.54 172.38 1112.97 172.81 1114.37 173.31 C 1115.89 173.76 1117.35 174.37 1118.74 175.13 C 1121.37 176.42 1123.91 177.91 1126.33 179.56 C 1127.30 180.16 1128.22 180.83 1129.10 181.56 C 1130.59 182.78 1132.03 184.06 1133.41 185.39 C 1142.41 194.09 1149.36 205.88 1153.51 217.33 C 1158.37 230.28 1160.69 244.04 1160.35 257.87 C 1160.14 270.22 1157.60 283.33 1152.12 293.69 C 1149.30 299.47 1145.28 304.59 1140.32 308.69 C 1139.91 309.05 1139.48 309.39 1139.06 309.69 C 1140.48 308.56 1137.84 310.54 1137.57 310.69 C 1136.19 311.61 1134.77 312.47 1133.30 313.26 C 1132.56 313.65 1131.81 314.02 1131.05 314.39 C 1128.59 315.58 1132.64 313.83 1130.05 314.83 C 1128.14 315.57 1126.19 316.20 1124.21 316.72 C 1113.04 319.72 1117.78 337.10 1128.99 334.08 C 1160.75 325.51 1175.85 294.60 1178.06 263.91 C 1180.32 232.63 1170.42 198.21 1148.64 175.14 C 1136.36 161.96 1119.60 153.85 1101.64 152.40 C 1096.79 152.01 1092.64 156.82 1092.64 161.40 C 1092.64 166.60 1096.78 170.01 1101.64 170.40 Z" fill="#5d83ff" fill-rule="nonzero" node-id="161" stroke="none" target-height="185.09001" target-width="87.67993" target-x="1092.64" target-y="152.01"></path><path d="M 1282.00 1017.18 C 1308.07 1010.45 1313.64 977.80 1315.52 955.18 C 1318.97 913.69 1312.61 871.13 1305.63 830.34 C 1296.21 775.27 1282.92 720.87 1267.91 667.08 C 1251.60 608.60 1233.09 550.79 1212.39 493.64 C 1193.48 441.37 1172.90 389.64 1149.23 339.29 C 1146.66 333.82 1144.05 328.37 1141.38 322.95 C 1136.29 312.55 1120.76 321.66 1125.84 332.03 C 1149.03 379.36 1168.98 428.23 1187.38 477.60 C 1208.05 533.14 1226.68 589.40 1243.29 646.37 C 1258.96 700.18 1272.94 754.57 1283.61 809.61 C 1291.89 852.34 1298.84 894.22 1298.30 938.06 C 1298.23 945.90 1297.75 953.74 1296.89 961.53 C 1296.79 962.41 1296.50 964.43 1296.80 962.33 C 1296.68 963.16 1296.56 964.00 1296.43 964.82 C 1296.15 966.62 1295.84 968.41 1295.43 970.19 C 1294.83 973.19 1294.11 976.19 1293.23 979.19 C 1292.83 980.51 1292.41 981.83 1291.94 983.13 C 1291.72 983.75 1291.47 984.37 1291.24 984.99 C 1290.34 987.49 1291.80 983.99 1291.04 985.51 C 1289.99 987.74 1288.82 989.90 1287.53 992.00 C 1287.23 992.46 1286.88 992.91 1286.59 993.38 C 1285.46 995.17 1287.69 992.20 1286.76 993.18 C 1285.83 994.16 1285.23 994.97 1284.38 995.80 C 1283.53 996.63 1280.86 998.46 1283.62 996.62 C 1282.74 997.20 1281.91 997.82 1281.00 998.34 C 1279.77 999.04 1277.58 999.62 1280.17 998.87 C 1279.17 999.16 1278.17 999.57 1277.17 999.87 C 1265.96 1002.77 1270.71 1020.13 1281.95 1017.23 Z" fill="#5d83ff" fill-rule="nonzero" node-id="163" stroke="none" target-height="707.58" target-width="198.20996" target-x="1120.76" target-y="312.55"></path><path d="M 414.85 507.00 C 431.15 538.84 446.51 571.17 461.56 603.61 C 486.90 658.26 510.49 712.33 532.56 767.66 C 557.00 828.81 579.63 890.87 597.42 954.31 C 605.42 982.71 612.37 1011.44 617.29 1040.54 C 617.80 1043.55 618.28 1046.55 618.74 1049.54 C 618.98 1051.16 619.22 1052.77 619.45 1054.39 C 619.57 1055.19 619.68 1055.99 619.79 1056.80 C 619.99 1058.26 619.69 1055.93 620.00 1058.38 C 620.78 1064.55 621.47 1070.74 622.00 1076.94 C 623.02 1088.50 623.36 1100.10 623.00 1111.70 C 622.82 1116.81 622.46 1121.92 621.89 1127.01 C 621.81 1127.70 621.25 1131.73 621.67 1128.85 C 621.50 1130.03 621.33 1131.22 621.14 1132.39 C 620.76 1134.69 620.33 1136.97 619.84 1139.24 C 618.88 1143.70 617.66 1148.09 616.16 1152.40 C 615.82 1153.40 615.46 1154.40 615.08 1155.33 C 614.82 1155.99 613.60 1158.75 614.82 1156.02 C 613.94 1158.02 613.04 1159.95 612.02 1161.86 C 611.11 1163.56 610.14 1165.22 609.09 1166.86 C 608.62 1167.59 608.09 1168.31 607.63 1169.02 C 607.41 1169.33 607.17 1169.64 606.95 1170.02 C 605.61 1172.02 607.95 1168.88 606.95 1170.02 C 604.49 1172.94 601.82 1175.67 598.95 1178.19 C 598.67 1178.44 598.36 1178.66 598.07 1178.91 C 597.18 1179.66 600.01 1177.54 598.62 1178.47 C 597.86 1178.98 597.14 1179.55 596.38 1180.05 C 594.71 1181.15 592.98 1182.15 591.19 1183.05 C 590.36 1183.48 589.49 1183.86 588.65 1184.28 C 586.65 1185.28 590.48 1183.69 587.72 1184.66 C 585.86 1185.31 584.02 1185.96 582.12 1186.49 C 580.22 1187.02 578.12 1187.49 576.12 1187.84 C 575.40 1187.97 571.73 1188.45 574.84 1188.08 C 573.75 1188.21 572.66 1188.33 571.57 1188.43 C 566.73 1188.87 562.57 1192.26 562.57 1197.43 C 562.57 1201.96 566.70 1206.87 571.57 1206.43 C 589.45 1204.82 606.65 1198.07 618.51 1184.13 C 630.59 1169.94 636.51 1151.85 639.05 1133.64 C 642.38 1110.23 641.35 1086.52 638.57 1063.11 C 635.19 1034.53 629.43 1006.30 622.45 978.40 C 606.36 914.11 584.34 851.32 560.45 789.57 C 537.56 730.45 512.59 672.13 486.26 614.46 C 469.37 577.46 451.99 540.68 433.66 504.38 C 432.57 502.21 431.47 500.04 430.36 497.89 C 425.08 487.57 409.54 496.67 414.82 506.97 Z" fill="#5d83ff" fill-rule="nonzero" node-id="165" stroke="none" target-height="719.3" target-width="232.84" target-x="409.54" target-y="487.57"></path><path d="M 1280.94 1005.89 C 1280.19 1002.92 1281.00 999.78 1283.09 997.54 C 1282.28 998.38 1284.19 995.98 1284.54 996.46 C 1284.22 996.68 1283.88 996.88 1283.54 997.07 C 1283.03 997.28 1282.54 997.57 1282.04 997.81 C 1279.66 999.00 1283.11 997.44 1281.94 997.87 C 1277.78 999.41 1273.65 1000.98 1269.45 1002.40 C 1255.36 1007.17 1241.10 1011.47 1226.85 1015.74 C 1186.57 1027.80 1146.10 1039.19 1105.60 1050.48 C 1069.30 1060.60 1032.97 1070.60 996.60 1080.48 C 951.96 1092.59 907.37 1104.85 862.92 1117.65 C 784.81 1140.13 706.50 1162.65 626.39 1176.89 C 616.39 1178.68 606.34 1180.35 596.24 1181.89 C 591.43 1182.62 588.77 1188.68 589.95 1192.96 C 591.37 1198.11 596.20 1199.96 601.02 1199.25 C 683.47 1186.79 764.02 1164.77 844.02 1141.84 C 894.27 1127.44 944.61 1113.36 995.02 1099.59 C 1030.70 1089.94 1066.34 1080.16 1101.95 1070.25 C 1143.48 1058.70 1184.95 1047.04 1226.30 1034.75 C 1241.39 1030.26 1256.48 1025.75 1271.42 1020.75 C 1276.04 1019.21 1280.67 1017.65 1285.20 1015.88 C 1288.67 1014.52 1292.74 1013.22 1295.52 1010.58 C 1298.06 1008.16 1299.11 1004.57 1298.28 1001.16 C 1297.36 996.38 1291.63 993.66 1287.21 994.87 C 1282.21 996.25 1280.00 1001.15 1280.92 1005.94 Z" fill="#5d83ff" fill-rule="nonzero" node-id="167" stroke="none" target-height="206.29999" target-width="710.34216" target-x="588.77" target-y="993.66"></path><path d="M 490.62 1031.50 C 535.04 1034.44 583.62 1026.35 621.16 1001.27 C 630.75 994.87 621.75 979.27 612.08 985.73 C 576.93 1009.20 532.16 1016.25 490.62 1013.50 C 479.06 1012.73 479.10 1030.74 490.62 1031.50 Z" fill="#5d83ff" fill-rule="nonzero" node-id="169" stroke="none" target-height="55.16992" target-width="151.69" target-x="479.06" target-y="979.27"></path><path d="M 483.26 1020.14 C 448.58 1056.74 427.33 1113.37 455.08 1160.14 C 476.08 1195.54 519.41 1209.54 558.73 1207.52 C 577.73 1206.52 598.35 1202.40 614.16 1191.23 C 618.16 1188.43 620.00 1183.37 617.39 1178.92 C 615.10 1175.00 609.07 1172.92 605.08 1175.69 C 593.93 1183.56 580.26 1187.38 566.70 1188.88 C 549.84 1190.87 532.76 1189.45 516.46 1184.71 C 500.59 1179.97 485.46 1171.29 475.22 1157.99 C 462.22 1141.12 457.66 1118.99 461.33 1098.14 C 465.69 1073.41 478.86 1050.90 495.98 1032.82 C 503.98 1024.42 491.24 1011.67 483.26 1020.10 Z" fill="#5d83ff" fill-rule="nonzero" node-id="171" stroke="none" target-height="197.87006" target-width="192.67001" target-x="427.33" target-y="1011.67"></path><g node-id="196"><path d="M 1400.25 980.65 L 1522.26 1144.29 C 1538.09 1165.51 1533.71 1195.55 1512.49 1211.38 L 1512.48 1211.38 C 1491.25 1227.21 1461.22 1222.83 1445.39 1201.61 L 1323.37 1037.97 C 1307.55 1016.75 1311.92 986.71 1333.15 970.88 L 1333.16 970.88 C 1354.38 955.05 1384.42 959.43 1400.25 980.65 Z" fill="#5d83ff" fill-rule="nonzero" group-id="6" node-id="175" stroke="none" target-height="272.1607" target-width="230.54138" target-x="1307.5479" target-y="955.05"></path></g><g node-id="197"><path d="M 1404.95 944.77 C 1421.84 974.14 1405.44 1015.25 1368.33 1036.58 C 1331.21 1057.91 1287.44 1051.38 1270.56 1022.01 C 1253.67 992.63 1270.07 951.52 1307.18 930.19 C 1344.30 908.87 1388.07 915.39 1404.95 944.77 Z" fill="#fe9f39" fill-rule="nonzero" group-id="7" node-id="180" stroke="none" target-height="149.04199" target-width="168.1643" target-x="1253.6731" target-y="908.86523"></path></g><path d="M 1176.62 564.00 C 1050.98 564.00 949.12 665.86 949.12 791.50 C 949.12 917.14 1051.00 1019.00 1176.62 1019.00 C 1302.24 1019.00 1404.12 917.14 1404.12 791.50 C 1404.12 665.86 1302.27 564.00 1176.62 564.00 Z M 1176.62 958.60 C 1084.33 958.60 1009.52 883.79 1009.52 791.50 C 1009.52 699.21 1084.33 624.40 1176.62 624.40 C 1268.91 624.40 1343.72 699.21 1343.72 791.50 C 1343.72 883.79 1268.91 958.60 1176.62 958.60 Z" fill="#5d83ff" fill-rule="nonzero" node-id="183" stroke="none" target-height="455" target-width="455.00006" target-x="949.11993" target-y="564"></path><path d="M 1169.12 563.00 C 1044.30 563.00 943.12 664.18 943.12 789.00 C 943.12 913.82 1044.30 1015.00 1169.12 1015.00 C 1293.94 1015.00 1395.12 913.82 1395.12 789.00 C 1395.12 664.18 1293.94 563.00 1169.12 563.00 Z M 1169.12 955.00 C 1077.44 955.00 1003.12 880.68 1003.12 789.00 C 1003.12 697.32 1077.44 623.00 1169.12 623.00 C 1260.80 623.00 1335.12 697.32 1335.12 789.00 C 1335.12 880.68 1260.80 955.00 1169.12 955.00 Z" fill="#3a3a77" fill-rule="nonzero" node-id="185" stroke="none" target-height="452" target-width="452" target-x="943.12" target-y="563"></path><g node-id="198"><path d="M 1349.12 789.00 C 1349.12 888.41 1268.53 969.00 1169.12 969.00 C 1069.71 969.00 989.12 888.41 989.12 789.00 C 989.12 689.59 1069.71 609.00 1169.12 609.00 C 1268.53 609.00 1349.12 689.59 1349.12 789.00 Z" fill="url(#未命名的渐变_49)" fill-opacity="0.64" fill-rule="nonzero" group-id="8" node-id="189" stroke="none" target-height="360" target-width="360" target-x="989.12" target-y="609"></path></g><g node-id="199"><g node-id="203"><g node-id="204"><path d="M 762.06 1270.41 L 694.06 1231.23 C 688.92 1228.29 689.56 1223.13 695.49 1219.71 L 760.08 1182.50 C 766.00 1179.09 774.95 1178.73 780.08 1181.67 L 848.08 1220.85 C 853.20 1223.85 852.56 1228.96 846.64 1232.38 L 782.04 1269.58 C 776.15 1273.00 767.19 1273.36 762.06 1270.41 Z" fill="#a0b3f8" fill-opacity="0.3" fill-rule="nonzero" group-id="9,13,14" id="路径-4" node-id="63" stroke="none" target-height="94.630005" target-width="164.28003" target-x="688.92" target-y="1178.73"></path></g><path d="M 851.54 1199.78 C 851.54 1199.58 851.54 1199.37 851.54 1199.16 L 851.54 1051.69 L 690.61 1051.69 L 690.61 1199.90 C 690.61 1201.77 691.74 1203.51 694.07 1204.90 L 762.07 1244.06 C 767.19 1247.06 776.15 1246.65 782.07 1243.24 L 846.67 1206.00 C 849.67 1204.28 851.29 1202.10 851.49 1200.00 L 851.49 1200.00 Z" fill="url(#未命名的渐变_23)" fill-rule="nonzero" group-id="9,13" id="路径-5" node-id="64" stroke="none" target-height="195.37012" target-width="160.93" target-x="690.61" target-y="1051.69"></path><path d="M 762.06 1096.30 L 694.06 1057.08 C 688.92 1054.08 689.56 1048.96 695.49 1045.56 L 760.08 1008.28 C 766.00 1004.88 774.96 1004.50 780.08 1007.46 L 848.08 1046.63 C 853.20 1049.63 852.56 1054.75 846.65 1058.15 L 782.04 1095.43 C 776.15 1098.88 767.19 1099.26 762.06 1096.30 Z" fill="#ffffff" fill-rule="nonzero" group-id="9,13" id="路径-6" node-id="65" stroke="none" target-height="94.76001" target-width="164.28003" target-x="688.92" target-y="1004.5"></path></g></g></svg>