<svg viewBox="0 0 1024 1024" version="1.1" xmlns="http://www.w3.org/2000/svg">
  <path d="M511.986205 511.986205m-511.986205 0a511.986205 511.986205 0 1 0 1023.97241 0 511.986205 511.986205 0 1 0-1023.97241 0Z" fill="rgba(255,255,255,0.18)"/>
  <path d="M502.030918 179.195172c150.751494-25.59931 264.526206 99.552873 280.170228 221.860688 7.11092 52.620804 36.976781 183.461723 69.687011 250.304367 18.488391 35.554598 42.665517 42.665517 71.109196 71.109195s0 85.331034 0 85.331034c-7.11092-31.288046-14.221839-42.665517-52.620805-65.420459-14.221839-8.533103-29.865862-34.132414-46.932069-76.797931 14.221839 42.665517 28.443678 71.109195 42.665517 85.331034s27.021494 41.243333 28.443679 56.887356c1.422184 9.955287 0 29.865862-4.266552 48.354253-15.644023 15.644023-19.910575 21.332759-36.976782 36.976782-4.266552-27.021494-7.11092-68.264827-15.644023-85.331035 14.221839 56.887356 7.11092 91.01977 2.844368 98.13069-21.332759 21.332759-48.354253 39.821149-81.064482 55.465172-130.840919 58.30954-329.946665 68.264827-405.322412 38.398965-58.30954-83.90885-105.241609-191.994827-113.774713-261.681838-14.221839-127.996551-14.221839-199.105746 9.955288-335.635401s118.041264-248.882183 251.726551-223.282872z" fill="#5a3e2b"/>
  <!-- ?? ??? -->
  <path d="M511.986205 807.800456c108.085977 0 203.372298 61.153908 250.304367 150.751494-21.332759 12.799655-126.574367 66.842643-250.304367 65.42046-150.751494-1.422184-241.771263-62.576092-250.304367-65.42046 46.932069-89.597586 142.21839-150.751494 250.304367-150.751494z" fill="#8c9199"/>
  <path d="M509.141837 694.025744h5.688736c38.398965 0 68.264827 29.865862 68.264827 68.264828v102.397241H440.87701v-102.397241c0-38.398965 29.865862-68.264827 68.264827-68.264828z" fill="#FADBD3"/>
  <path d="M301.502987 506.297469c15.644023 0 27.021494 12.799655 27.021494 27.021494v1.422184l-1.422183 32.71023c0 11.377471-9.955287 19.910575-21.332759 19.910575-2.844368 0-4.266552 0-7.11092-1.422184l-4.266551-2.844368c-12.799655-5.688736-21.332759-17.066207-21.332759-31.288046v-17.066207c0-15.644023 12.799655-28.443678 28.443678-28.443678zM733.846894 506.297469c15.644023 0 28.443678 12.799655 28.443678 28.443678v22.754943c0 11.377471-5.688736 21.332759-14.221839 27.021494l-11.377472 8.533103c-7.11092 5.688736-18.488391 4.266552-24.177126-4.266551-1.422184-2.844368-2.844368-5.688736-2.844368-8.533104l-2.844368-45.509885c-1.422184-14.221839 9.955287-27.021494 25.599311-28.443678h1.422184z" fill="#FADBD3"/>
  <path d="M517.67494 785.045514c76.797931 1.422184 196.261379-110.930344 214.74977-248.882183s-76.797931-248.882183-214.74977-248.882183S295.814252 402.478044 312.880458 540.429883c14.221839 113.774712 99.552873 241.771263 204.794482 244.615631z" fill="#FCE6DF"/>
  <path d="M284.43678 511.986205c123.729999-28.443678 199.105746-89.597586 227.549425-184.883907 18.488391 75.375747 99.552873 137.951839 241.771263 184.883907-34.132414-213.327585-115.196896-317.14701-241.771263-312.880459s-203.372298 109.50816-227.549425 312.880459z" fill="#5a3e2b"/>
  <!-- ???? -->
  <path d="M440.87701 810.644824c-11.377471 0-39.821149 14.221839-42.665517 18.488391-1.422184 2.844368 14.221839 35.554598 48.354252 99.552873 4.266552 7.11092 8.533103 7.11092 15.644023 0s22.754942-28.443678 49.776437-63.998275c-18.488391 1.422184-42.665517-15.644023-71.109195-54.042989zM583.0954 810.644824c11.377471 0 39.821149 14.221839 42.665517 18.488391 1.422184 2.844368-14.221839 35.554598-48.354253 99.552873-4.266552 7.11092-8.533103 7.11092-15.644023 0s-22.754942-28.443678-49.776436-63.998275c15.644023-2.844368 38.398965-21.332759 71.109195-54.042989z" fill="#FFFFFF"/>
</svg>
