<?xml version="1.0" standalone="no"?><!DOCTYPE svg PUBLIC "-//W3C//DTD SVG 1.1//EN" "http://www.w3.org/Graphics/SVG/1.1/DTD/svg11.dtd"><svg t="1744278266264" class="icon" viewBox="0 0 1536 1024" version="1.1" xmlns="http://www.w3.org/2000/svg" p-id="2662"  xmlns:xlink="http://www.w3.org/1999/xlink"><path d="M750.7968 334.82752a14.6432 14.6432 0 0 1-4.85376-0.8192L720.896 325.3248a14.92992 14.92992 0 0 1-9.728-11.24352l-5.0176-26.07104a14.86848 14.86848 0 0 1 4.87424-14.04928l20.04992-17.36704a14.9504 14.9504 0 0 1 14.62272-2.82624l25.06752 8.704a14.88896 14.88896 0 0 1 9.74848 11.24352l4.99712 26.05056a14.97088 14.97088 0 0 1-4.85376 14.06976l-20.0704 17.36704a14.90944 14.90944 0 0 1-9.78944 3.62496zM727.04 310.12864l23.42912 8.192 18.75968-16.22016-4.68992-24.35072-23.42912-8.192-18.7392 16.24064zM1043.33312 259.15392a14.6432 14.6432 0 0 1-4.85376-0.8192l-12.6976-4.4032a14.88896 14.88896 0 0 1-9.728-11.24352l-2.53952-13.18912a14.90944 14.90944 0 0 1 4.85376-14.04928l10.24-8.8064a14.88896 14.88896 0 0 1 14.60224-2.80576l12.67712 4.4032a14.88896 14.88896 0 0 1 9.74848 11.24352l2.53952 13.18912a14.86848 14.86848 0 0 1-4.87424 14.04928l-10.24 8.8064a15.01184 15.01184 0 0 1-9.728 3.62496z m-11.3664-20.48l11.0592 3.82976 8.82688-7.65952-2.21184-11.4688-11.03872-3.82976-8.84736 7.7824z" fill="#F5F5F5" p-id="2663"></path><path d="M1394.03264 452.13696a10.8544 10.8544 0 0 1-8.41728-4.096l-7.14752-8.92928a10.81344 10.81344 0 0 1-1.6384-10.6496l4.096-10.6496a10.77248 10.77248 0 0 1 8.3968-6.73792l11.30496-1.7408a10.83392 10.83392 0 0 1 10.05568 3.91168l7.14752 8.92928a10.81344 10.81344 0 0 1 1.6384 10.6496l-4.096 10.6496a10.752 10.752 0 0 1-8.41728 6.73792l-11.30496 1.7408a10.56768 10.56768 0 0 1-1.61792 0.18432z m8.2944-34.67264h-0.38912l-11.30496 1.7408a2.62144 2.62144 0 0 0-2.048 1.61792l-4.096 10.6496a2.58048 2.58048 0 0 0 0.38912 2.56l7.14752 8.92928a2.6624 2.6624 0 0 0 2.41664 0.94208l11.30496-1.7408a2.58048 2.58048 0 0 0 2.048-1.61792l4.096-10.6496a2.62144 2.62144 0 0 0-0.38912-2.56l-7.14752-8.92928a2.64192 2.64192 0 0 0-2.02752-0.94208zM118.1696 541.14304a13.96736 13.96736 0 0 1-10.83392-5.18144l-16.7936-20.97152a13.88544 13.88544 0 0 1-2.048-13.68064L98.304 476.2624a13.88544 13.88544 0 0 1 10.79296-8.66304l26.624-4.096a13.90592 13.90592 0 0 1 12.9024 5.03808L165.2736 489.472a13.90592 13.90592 0 0 1 2.048 13.70112L157.696 528.24064a13.88544 13.88544 0 0 1-10.81344 8.68352l-26.624 4.096a11.96032 11.96032 0 0 1-2.08896 0.12288z m-16.26112-34.816l16.384 20.48 26.0096-3.97312 9.54368-24.576-16.384-20.48-26.0096 3.9936z m52.18304-7.76192z" fill="#E0E0E0" p-id="2664"></path><path d="M186.12224 357.5808h-15.83104a10.79296 10.79296 0 0 1-9.33888-5.3248l-7.92576-13.70112a10.91584 10.91584 0 0 1 0-10.79296l7.92576-13.70112a10.77248 10.77248 0 0 1 9.33888-5.38624h15.83104a10.77248 10.77248 0 0 1 9.33888 5.38624l7.92576 13.6192a10.91584 10.91584 0 0 1 0 10.79296L195.46112 352.256a10.81344 10.81344 0 0 1-9.33888 5.3248z m-15.83104-40.79616a2.62144 2.62144 0 0 0-2.2528 1.29024L160.13312 331.776a2.58048 2.58048 0 0 0 0 2.60096l7.90528 13.78304a2.64192 2.64192 0 0 0 2.2528 1.31072h15.83104A2.64192 2.64192 0 0 0 188.416 348.16l7.90528-13.70112a2.58048 2.58048 0 0 0 0-2.60096L188.416 318.07488a2.62144 2.62144 0 0 0-2.2528-1.29024zM456.25344 202.6496l-30.88384-19.43552-37.90848-63.97952-52.736-32.27648-10.19904 11.03872 5.34528 7.20896 16.65024 22.3232 66.08896 88.71936 26.95168 14.82752 16.6912-28.42624zM417.44384 248.64768l-8.84736-29.45024-97.11616-110.96064-12.94336 7.65952 20.50048 58.34752 56.38144 55.37792 12.63616 34.57024 29.3888-15.54432z" fill="#EBEBEB" p-id="2665"></path><path d="M470.05696 208.13824s109.6704 60.19072 131.76832 80.50688 73.728 104.91904 68.48512 115.73248-9.25696 12.288-21.15584 1.80224-50.36032-68.44416-60.68224-77.824S449.65888 243.712 449.65888 243.712z" fill="#E0E0E0" p-id="2666"></path><path d="M395.69408 199.18848m-34.73408 0a34.73408 34.73408 0 1 0 69.46816 0 34.73408 34.73408 0 1 0-69.46816 0Z" fill="#EBEBEB" p-id="2667"></path><path d="M387.072 232.79616a51.69152 51.69152 0 0 0 8.47872 0.88064 33.1776 33.1776 0 0 0 9.8304-1.45408 34.38592 34.38592 0 0 0 24.576-36.22912 32.5632 32.5632 0 0 0-2.53952-9.6256 37.43744 37.43744 0 0 0-2.21184-4.56704 35.40992 35.40992 0 0 0-3.01056-4.23936 34.03776 34.03776 0 0 0-39.13728-10.24 40.7552 40.7552 0 0 0-4.66944 2.23232 38.07232 38.07232 0 0 0-4.096 2.92864 31.8464 31.8464 0 0 0-6.69696 7.20896 34.42688 34.42688 0 0 0-6.00064 17.03936 34.65216 34.65216 0 0 0 9.728 26.5216 33.3824 33.3824 0 0 0 7.8848 6.144 53.248 53.248 0 0 0 7.84384 3.35872 2.19136 2.19136 0 0 1-0.55296 0l-1.59744-0.45056a15.79008 15.79008 0 0 1-2.53952-0.88064 24.80128 24.80128 0 0 1-3.33824-1.55648 32.768 32.768 0 0 1-8.192-6.00064 35.08224 35.08224 0 0 1-10.24-27.01312 35.26656 35.26656 0 0 1 6.144-17.53088 33.34144 33.34144 0 0 1 6.88128-7.45472 32.5632 32.5632 0 0 1 9.1136-5.34528 35.08224 35.08224 0 0 1 40.32512 10.48576 39.30112 39.30112 0 0 1 3.072 4.38272 37.04832 37.04832 0 0 1 2.27328 4.73088 32.37888 32.37888 0 0 1 2.37568 9.8304 34.816 34.816 0 0 1-13.37344 30.88384 34.44736 34.44736 0 0 1-11.91936 6.02112 32.3584 32.3584 0 0 1-9.99424 1.29024 24.28928 24.28928 0 0 1-3.6864-0.26624 16.65024 16.65024 0 0 1-2.68288-0.4096l-1.61792-0.38912a1.86368 1.86368 0 0 1-0.43008-0.28672z" fill="#E0E0E0" p-id="2668"></path><path d="M390.77888 218.17344a19.61984 19.61984 0 1 1 23.90016-14.04928 19.61984 19.61984 0 0 1-23.90016 14.04928z" fill="#E0E0E0" p-id="2669"></path><path d="M390.77888 218.17344c0-0.14336 1.69984 0.4096 4.77184 0.4096a19.51744 19.51744 0 0 0 17.48992-11.22304 19.31264 19.31264 0 0 0 1.67936-9.95328 19.1488 19.1488 0 0 0-4.23936-10.24 18.98496 18.98496 0 0 0-21.83168-5.67296 17.46944 17.46944 0 0 0-4.93568 2.82624 17.79712 17.79712 0 0 0-3.74784 4.096 19.37408 19.37408 0 0 0-3.3792 9.50272 19.06688 19.06688 0 0 0 1.39264 8.72448 19.49696 19.49696 0 0 0 8.41728 9.58464 41.51296 41.51296 0 0 0 4.38272 2.048 14.78656 14.78656 0 0 1-4.58752-1.61792 19.51744 19.51744 0 0 1-8.9088-9.64608 19.72224 19.72224 0 0 1-1.57696-9.09312 20.13184 20.13184 0 0 1 3.44064-10.01472 19.10784 19.10784 0 0 1 3.82976-4.34176 18.90304 18.90304 0 0 1 5.20192-3.05152 19.968 19.968 0 0 1 23.04 5.98016 20.13184 20.13184 0 0 1 4.52608 10.81344 20.13184 20.13184 0 0 1-1.86368 10.42432 19.84512 19.84512 0 0 1-5.79584 7.168 19.59936 19.59936 0 0 1-12.4928 4.096 14.62272 14.62272 0 0 1-4.8128-0.8192z" fill="#E0E0E0" p-id="2670"></path><path d="M426.945954 239.291571m7.529689-13.105115l14.192138-24.700832q7.529689-13.105115 20.634804-5.575426l1.331821 0.765212q13.105115 7.529689 5.575425 20.634804l-14.192138 24.700833q-7.529689 13.105115-20.634804 5.575426l-1.33182-0.765213q-13.105115-7.529689-5.575426-20.634804Z" fill="#EBEBEB" p-id="2671"></path><path d="M434.46272 226.2016a20.31616 20.31616 0 0 0-1.69984 5.75488 15.74912 15.74912 0 0 0 0.9216 6.90176 16.11776 16.11776 0 0 0 2.048 3.80928 14.92992 14.92992 0 0 0 3.56352 3.29728 21.95456 21.95456 0 0 0 4.79232 2.43712 14.62272 14.62272 0 0 0 16.52736-5.26336c4.7104-7.84384 9.68704-16.83456 15.0528-26.07104a14.66368 14.66368 0 0 0 0-14.336 14.336 14.336 0 0 0-4.62848-5.24288 17.69472 17.69472 0 0 0-6.28736-2.78528 14.68416 14.68416 0 0 0-12.02176 2.8672c-3.21536 2.43712-4.62848 6.144-6.51264 9.13408l-8.43776 14.336-2.33472 3.87072a7.74144 7.74144 0 0 1-0.88064 1.31072 13.43488 13.43488 0 0 1 0.69632-1.4336c0.55296-0.98304 1.26976-2.31424 2.17088-3.95264 2.048-3.52256 4.73088-8.43776 8.192-14.47936l2.70336-4.79232a16.19968 16.19968 0 0 1 3.91168-4.66944A15.54432 15.54432 0 0 1 464.896 193.7408a18.55488 18.55488 0 0 1 6.59456 2.8672 15.17568 15.17568 0 0 1 5.2224 5.50912 15.60576 15.60576 0 0 1 0 15.44192c-5.38624 9.27744-10.24 18.1248-15.17568 26.13248a15.74912 15.74912 0 0 1-11.55072 6.28736 15.95392 15.95392 0 0 1-6.0416-0.8192 22.99904 22.99904 0 0 1-4.93568-2.62144 15.5648 15.5648 0 0 1-3.70688-3.50208 16.93696 16.93696 0 0 1-2.048-4.096 14.78656 14.78656 0 0 1 0.53248-11.50976 8.35584 8.35584 0 0 1 0.67584-1.2288zM392.13056 281.68192s41.55392 118.00576 58.01984 143.11424 91.52512 89.78432 103.03488 86.38464 13.53728-7.14752 5.2224-20.48-59.392-60.80512-66.92864-72.54016-61.05088-150.7328-61.05088-150.7328z" fill="#E0E0E0" p-id="2672"></path><path d="M374.897622 264.813693m14.155239-5.29806l26.680134-9.98591q14.15524-5.29806 19.453299 8.85718l0.538421 1.438541q5.29806 14.15524-8.85718 19.453299l-26.680133 9.98591q-14.15524 5.29806-19.4533-8.85718l-0.538421-1.438541q-5.29806-14.15524 8.85718-19.453299Z" fill="#EBEBEB" p-id="2673"></path><path d="M415.744 249.50784a7.20896 7.20896 0 0 1 1.47456-0.57344 15.09376 15.09376 0 0 1 4.52608-0.57344 15.40096 15.40096 0 0 1 6.92224 1.90464 17.1008 17.1008 0 0 1 3.60448 2.7648 16.384 16.384 0 0 1 2.8672 4.21888 22.1184 22.1184 0 0 1 1.76128 5.30432 15.38048 15.38048 0 0 1-0.16384 6.144 15.68768 15.68768 0 0 1-8.192 10.36288c-8.68352 3.50208-18.20672 6.92224-28.24192 10.73152a15.74912 15.74912 0 0 1-15.2576-2.4576 15.5648 15.5648 0 0 1-4.58752-6.144 18.432 18.432 0 0 1-1.76128-7.04512 15.52384 15.52384 0 0 1 5.16096-12.0832 16.1792 16.1792 0 0 1 5.24288-3.09248l5.16096-1.90464 15.60576-5.65248 4.25984-1.49504a8.6016 8.6016 0 0 1 1.51552-0.45056 6.81984 6.81984 0 0 1-1.4336 0.65536l-4.096 1.67936-15.48288 5.98016c-3.21536 1.37216-7.14752 2.17088-10.07616 4.93568a14.76608 14.76608 0 0 0-4.79232 11.40736 18.04288 18.04288 0 0 0 1.7408 6.656 14.336 14.336 0 0 0 4.3008 5.65248 14.66368 14.66368 0 0 0 14.2336 2.27328c9.97376-3.7888 19.6608-7.24992 28.18048-10.60864a14.72512 14.72512 0 0 0 7.8848-15.44192 21.89312 21.89312 0 0 0-1.65888-5.14048 15.29856 15.29856 0 0 0-2.6624-4.096 15.7696 15.7696 0 0 0-3.39968-2.70336 15.2576 15.2576 0 0 0-6.656-2.048 19.84512 19.84512 0 0 0-5.98016 0.83968z" fill="#E0E0E0" p-id="2674"></path><path d="M1463.82848 928.70656c0 0.28672-312.19712 0.53248-697.22112 0.53248s-697.28256-0.24576-697.28256-0.53248 312.13568-0.53248 697.28256-0.53248 697.22112 0.24576 697.22112 0.53248z" fill="#263238" p-id="2675"></path><path d="M178.176 694.41536c0.55296-1.72032 64.36864-210.3296 64.36864-210.3296l-1.59744-25.9072 16.6912-27.48416 20.72576 6.8608-2.82624 30.72-14.7456 22.40512L196.608 700.416z" fill="#E0E0E0" p-id="2676"></path><path d="M178.176 694.41536l1.2288 0.34816 3.54304 1.10592 13.66016 4.28032-0.22528 0.12288c10.38336-34.01728 34.38592-112.7424 63.95904-209.67424l14.72512-22.38464v0.22528c0.90112-9.80992 1.86368-20.23424 2.82624-30.72l0.36864 0.55296-1.72032-0.55296-19.00544-6.28736 0.6144-0.22528-16.6912 27.48416v-0.3072q0.79872 13.25056 1.57696 25.9072v0.18432c-18.65728 60.60032-34.816 113.09056-46.30528 150.44608-5.77536 18.69824-10.40384 33.5872-13.57824 43.84768-1.57696 5.12-2.82624 9.07264-3.66592 11.776l-0.96256 3.05152-0.34816 1.04448a9.07264 9.07264 0 0 1 0.26624-1.00352c0.2048-0.7168 0.49152-1.72032 0.88064-3.01056 0.8192-2.70336 2.048-6.63552 3.52256-11.71456 3.09248-10.24 7.59808-25.14944 13.25056-43.8272 11.42784-37.4784 27.4432-90.112 45.95712-150.91712v0.18432q-0.79872-12.65664-1.61792-25.9072V458.1376l16.6912-27.48416 0.2048-0.36864 0.4096 0.14336 19.02592 6.26688 1.69984 0.57344 0.4096 0.12288v0.43008c-0.96256 10.5472-1.92512 20.97152-2.84672 30.72V468.7872l-14.72512 22.40512v-0.14336C231.424 587.776 207.21664 666.39872 196.73088 700.416v0.18432h-0.18432l-13.68064-4.52608-3.46112-1.16736z" fill="#263238" p-id="2677"></path><path d="M162.79552 704.512l-28.672 38.74816-40.07936 145.408s-5.75488 29.65504 26.99264 38.07232c36.864 9.46176 45.2608-18.71872 45.2608-18.71872l38.912-141.98784L204.8 716.8l9.60512-10.83392a4.096 4.096 0 0 0-1.7408-6.53312l-46.03904-15.19616a4.096 4.096 0 0 0-5.30432 4.23936z" fill="#90CAF9" p-id="2678"></path><path d="M205.04576 718.49984c-0.1024 0.28672-9.74848-2.51904-21.54496-6.26688s-21.31968-7.02464-21.21728-7.31136 9.728 2.53952 21.54496 6.28736 21.2992 7.00416 21.21728 7.29088zM205.29152 766.0544a13.66016 13.66016 0 0 1-2.8672-0.49152c-1.8432-0.38912-4.46464-1.024-7.72096-1.8432-6.51264-1.61792-15.44192-4.096-25.16992-7.20896s-18.432-6.26688-24.71936-8.704c-3.11296-1.2288-5.632-2.2528-7.35232-2.99008a14.60224 14.60224 0 0 1-2.62144-1.24928 14.90944 14.90944 0 0 1 2.78528 0.86016l7.45472 2.6624c6.30784 2.2528 15.03232 5.30432 24.76032 8.3968s18.61632 5.69344 25.04704 7.51616l7.63904 2.1504a15.872 15.872 0 0 1 2.7648 0.90112z" fill="#263238" p-id="2679"></path><path d="M143.954361 756.5021m6.486749 1.896857l1.002497 0.293151q6.486748 1.896858 4.58989 8.383606l-35.574707 121.656012q-1.896858 6.486748-8.383606 4.58989l-1.002498-0.293151q-6.486748-1.896858-4.58989-8.383605l35.574708-121.656012q1.896858-6.486748 8.383606-4.589891Z" opacity=".3" p-id="2680"></path><path d="M164.500997 763.164557m6.486748 1.896858l1.002497 0.293151q6.486748 1.896858 4.58989 8.383606l-35.574707 121.656012q-1.896858 6.486748-8.383606 4.58989l-1.002497-0.293151q-6.486748-1.896858-4.589891-8.383606l35.574708-121.656012q1.896858-6.486748 8.383606-4.58989Z" opacity=".3" p-id="2681"></path><path d="M182.987042 769.253047m6.480422 1.918358l1.00152 0.296474q6.480422 1.918358 4.562064 8.39878l-35.977938 121.537373q-1.918358 6.480422-8.39878 4.562064l-1.00152-0.296473q-6.480422-1.918358-4.562064-8.398781l35.977938-121.537373q1.918358-6.480422 8.39878-4.562064Z" opacity=".3" p-id="2682"></path><path d="M260.64896 490.7008a42.76224 42.76224 0 0 1-9.13408-2.60096 40.96 40.96 0 0 1-8.76544-3.60448 44.27776 44.27776 0 0 1 9.1136 2.60096 41.49248 41.49248 0 0 1 8.78592 3.60448zM278.40512 437.5552a16.62976 16.62976 0 0 1-0.7168 2.8672c-0.59392 2.048-1.37216 4.62848-2.33472 7.82336l-8.192 26.624-0.16384 0.512-0.512-0.16384-9.44128-3.29728-9.70752-3.39968-0.47104-0.16384 0.14336-0.47104c2.94912-10.52672 5.55008-19.7632 7.4752-26.624 0.94208-3.1744 1.69984-5.79584 2.29376-7.76192a18.75968 18.75968 0 0 1 0.94208-2.78528 16.62976 16.62976 0 0 1-0.59392 2.88768l-2.048 7.84384c-1.82272 6.81984-4.28032 16.0768-7.10656 26.624l-0.32768-0.63488 9.728 3.39968 9.4208 3.29728-0.67584 0.34816 8.6016-26.43968c1.06496-3.1744 2.048-5.75488 2.62144-7.72096a17.55136 17.55136 0 0 1 1.06496-2.7648z" fill="#263238" p-id="2683"></path><path d="M882.4832 229.21216a14.6432 14.6432 0 0 1-4.85376-0.8192l-25.088-8.68352a14.92992 14.92992 0 0 1-9.728-11.24352l-5.0176-26.07104a14.86848 14.86848 0 0 1 4.87424-14.04928l20.0704-17.36704a14.90944 14.90944 0 0 1 14.60224-2.80576l25.06752 8.68352a14.92992 14.92992 0 0 1 9.74848 11.24352l5.0176 26.07104a14.97088 14.97088 0 0 1-4.87424 14.04928l-20.0704 17.36704a14.90944 14.90944 0 0 1-9.74848 3.62496z m-23.7568-24.69888l23.4496 8.192 18.7392-16.22016L896.22528 172.032l-23.42912-8.192-18.78016 16.384z" fill="#E0E0E0" p-id="2684"></path><path d="M858.7264 204.51328a13.02528 13.02528 0 0 1-0.4096-1.61792l-1.024-4.8128c-0.88064-4.32128-2.048-10.40384-3.62496-17.83808a0.4096 0.4096 0 0 1 0.12288-0.38912l18.67776-16.384a0.53248 0.53248 0 0 1 0.49152 0l23.42912 8.192 0.36864 0.4096v0.75776l0.16384 0.79872 0.3072 1.59744c0.2048 1.04448 0.38912 2.048 0.59392 3.15392 0.4096 2.048 0.79872 4.096 1.18784 6.144 0.77824 4.096 1.536 8.02816 2.2528 11.81696a0.49152 0.49152 0 0 1-0.16384 0.47104l-18.67776 16.1792a0.38912 0.38912 0 0 1-0.38912 0l-17.14176-6.144-4.608-1.72032a11.59168 11.59168 0 0 1-1.55648-0.63488 12.43136 12.43136 0 0 1 1.72032 0.49152l4.73088 1.51552 17.12128 5.7344h-0.38912l18.67776-16.384-0.16384 0.49152c-0.73728-3.80928-1.51552-7.74144-2.29376-11.81696-0.38912-2.048-0.79872-4.096-1.20832-6.144-0.2048-1.04448-0.38912-2.048-0.59392-3.15392l-0.3072-1.59744-0.16384-0.79872V172.07296s0.65536 0.75776 0.32768 0.38912l-23.40864-8.192h0.49152l-18.82112 16.15872 0.14336-0.38912c1.3312 7.41376 2.43712 13.45536 3.21536 17.77664 0.34816 2.048 0.63488 3.66592 0.83968 4.89472a9.80992 9.80992 0 0 1 0.08192 1.80224z" fill="#263238" p-id="2685"></path><path d="M882.4832 229.21216s0.88064 0 2.53952-0.32768a14.90944 14.90944 0 0 0 6.53312-3.01056l20.3776-17.83808a14.5408 14.5408 0 0 0 4.56704-7.33184 15.03232 15.03232 0 0 0 0.49152-4.608 43.008 43.008 0 0 0-0.8192-4.8128c-1.29024-6.61504-2.6624-13.66016-4.096-21.07392a20.7872 20.7872 0 0 0-1.49504-5.38624 14.336 14.336 0 0 0-8.192-7.51616l-5.77536-2.048-11.85792-4.096-6.144-2.048a16.50688 16.50688 0 0 0-6.144-1.29024 14.56128 14.56128 0 0 0-6.144 1.35168 20.23424 20.23424 0 0 0-5.07904 3.62496l-9.48224 8.192-9.15456 7.92576a14.45888 14.45888 0 0 0-4.66944 9.87136 21.23776 21.23776 0 0 0 0.6144 5.4272c0.34816 1.82272 0.67584 3.60448 1.024 5.36576 0.65536 3.52256 1.31072 6.92224 1.92512 10.24s1.20832 6.51264 1.8432 9.50272a14.6432 14.6432 0 0 0 4.58752 7.29088 14.90944 14.90944 0 0 0 3.42016 2.19136c1.20832 0.53248 2.49856 0.9216 3.6864 1.37216l6.8608 2.41664 10.97728 3.8912a58.49088 58.49088 0 0 0 6.9632 2.31424c1.6384 0.3072 2.53952 0.28672 2.53952 0.32768a10.71104 10.71104 0 0 1-2.58048 0 52.6336 52.6336 0 0 1-7.04512-2.1504l-10.93632-3.74784-6.88128-2.33472c-1.2288-0.43008-2.47808-0.79872-3.76832-1.35168a15.7696 15.7696 0 0 1-3.62496-2.27328 15.38048 15.38048 0 0 1-4.89472-7.63904c-0.69632-3.11296-1.24928-6.26688-1.90464-9.56416s-1.31072-6.71744-2.048-10.24q-0.53248-2.60096-1.04448-5.34528a22.03648 22.03648 0 0 1-0.65536-5.65248 15.50336 15.50336 0 0 1 4.97664-10.58816l9.13408-7.94624 9.48224-8.192c0.8192-0.69632 1.57696-1.39264 2.4576-2.048a16.87552 16.87552 0 0 1 2.8672-1.72032 15.42144 15.42144 0 0 1 6.51264-1.4336 17.59232 17.59232 0 0 1 6.49216 1.35168l6.144 2.048 11.85792 4.096 5.77536 2.048a15.48288 15.48288 0 0 1 5.26336 3.1744 15.19616 15.19616 0 0 1 3.54304 4.87424 21.44256 21.44256 0 0 1 1.55648 5.632q2.048 11.1616 3.9936 21.0944a39.95648 39.95648 0 0 1 0.79872 4.93568 15.38048 15.38048 0 0 1-5.40672 12.4928l-20.60288 17.59232a15.09376 15.09376 0 0 1-6.77888 2.90816 10.52672 10.52672 0 0 1-2.58048 0.06144z" fill="#263238" p-id="2686"></path><path d="M707.93216 186.5728a10.79296 10.79296 0 0 1-8.43776-4.096l-7.14752-8.9088a10.8544 10.8544 0 0 1-1.6384-10.67008l4.096-10.6496a10.79296 10.79296 0 0 1 8.41728-6.73792l11.28448-1.7408a10.83392 10.83392 0 0 1 10.05568 3.91168l7.14752 8.92928a10.81344 10.81344 0 0 1 1.6384 10.6496l-4.096 10.67008A10.83392 10.83392 0 0 1 720.896 184.7296l-11.30496 1.72032a10.9568 10.9568 0 0 1-1.65888 0.12288z m8.192-34.67264h-0.38912L704.512 153.6a2.62144 2.62144 0 0 0-2.048 1.61792L698.368 165.888a2.62144 2.62144 0 0 0 0.38912 2.56l7.14752 8.9088a2.62144 2.62144 0 0 0 2.41664 0.94208l11.30496-1.7408a2.60096 2.60096 0 0 0 2.048-1.61792l4.096-10.6496a2.58048 2.58048 0 0 0-0.38912-2.56l-7.14752-8.9088a2.62144 2.62144 0 0 0-2.02752-0.9216z" fill="#E0E0E0" p-id="2687"></path><path d="M716.20608 151.90016a1.47456 1.47456 0 0 1 0.88064 0 2.4576 2.4576 0 0 1 0.96256 0.512 13.33248 13.33248 0 0 1 0.98304 1.08544l5.81632 6.98368 0.94208 1.16736a2.94912 2.94912 0 0 1 0.57344 1.65888 4.096 4.096 0 0 1-0.4096 1.69984c-0.18432 0.512-0.38912 1.024-0.57344 1.55648-0.8192 2.048-1.67936 4.36224-2.58048 6.73792-0.22528 0.59392-0.45056 1.18784-0.69632 1.80224a3.072 3.072 0 0 1-1.51552 1.69984 8.06912 8.06912 0 0 1-2.048 0.47104l-2.048 0.32768c-2.7648 0.4096-5.46816 0.88064-8.54016 1.26976a3.11296 3.11296 0 0 1-2.33472-1.04448l-1.35168-1.69984-2.64192-3.2768-2.51904-3.19488-0.63488-0.77824a3.42016 3.42016 0 0 1-0.57344-0.96256 3.15392 3.15392 0 0 1 0-2.2528l2.6624-6.69696 1.20832-3.03104a7.2704 7.2704 0 0 1 0.69632-1.47456 2.90816 2.90816 0 0 1 1.31072-1.024c3.93216-0.7168 6.92224-1.00352 9.07264-1.29024a15.58528 15.58528 0 0 1 3.33824-0.28672 3.72736 3.72736 0 0 1-0.83968 0.2048l-2.41664 0.49152c-2.048 0.4096-5.28384 0.86016-8.86784 1.57696a2.3552 2.3552 0 0 0-0.96256 0.77824 8.33536 8.33536 0 0 0-0.57344 1.3312l-1.14688 3.05152-2.58048 6.73792a2.19136 2.19136 0 0 0 0 1.536 7.00416 7.00416 0 0 0 1.04448 1.45408L702.464 172.2368l2.64192 3.2768 1.3312 1.65888a2.048 2.048 0 0 0 1.536 0.67584l8.37632-1.24928 2.048-0.3072a6.79936 6.79936 0 0 0 1.82272-0.36864 2.048 2.048 0 0 0 1.04448-1.14688c0.22528-0.6144 0.47104-1.20832 0.69632-1.80224 0.94208-2.33472 1.82272-4.58752 2.6624-6.69696q0.34816-0.75776 0.6144-1.536a3.50208 3.50208 0 0 0 0.38912-1.37216 2.49856 2.49856 0 0 0-0.38912-1.2288l-0.90112-1.14688-5.55008-7.18848a3.46112 3.46112 0 0 0-2.58048-1.90464z" fill="#263238" p-id="2688"></path><path d="M707.93216 186.5728a9.37984 9.37984 0 0 1 1.35168-0.2048l3.91168-0.67584 6.144-1.04448a14.97088 14.97088 0 0 0 3.72736-0.90112 10.24 10.24 0 0 0 3.4816-2.37568 10.83392 10.83392 0 0 0 2.53952-3.97312c0.59392-1.55648 1.2288-3.19488 1.86368-4.89472 1.1264-3.42016 3.42016-6.92224 2.58048-10.83392a10.87488 10.87488 0 0 0-2.62144-5.3248l-4.096-5.07904-2.048-2.62144a11.79648 11.79648 0 0 0-2.29376-2.33472 10.24 10.24 0 0 0-6.144-2.048 22.17984 22.17984 0 0 0-3.39968 0.38912l-3.42016 0.512-6.656 1.04448a10.24 10.24 0 0 0-5.3248 3.03104 10.62912 10.62912 0 0 0-1.72032 2.4576c-0.43008 0.88064-0.77824 1.90464-1.14688 2.82624l-2.19136 5.55008a29.16352 29.16352 0 0 0-1.80224 5.20192 10.79296 10.79296 0 0 0 2.80576 8.99072l5.14048 6.5536c0.77824 0.94208 1.41312 1.88416 2.1504 2.60096a10.60864 10.60864 0 0 0 2.23232 1.67936 13.0048 13.0048 0 0 0 5.05856 1.47456H706.6624a10.38336 10.38336 0 0 1-3.85024-1.1264 11.91936 11.91936 0 0 1-2.39616-1.67936 32.768 32.768 0 0 1-2.27328-2.60096l-5.26336-6.4512a11.50976 11.50976 0 0 1-3.072-9.58464 28.52864 28.52864 0 0 1 1.78176-5.4272l2.1504-5.55008c0.38912-0.96256 0.69632-1.90464 1.16736-2.90816a11.69408 11.69408 0 0 1 1.86368-2.72384 11.4688 11.4688 0 0 1 5.69344-3.33824c2.2528-0.38912 4.44416-0.69632 6.71744-1.06496l3.42016-0.512a21.52448 21.52448 0 0 1 3.56352-0.4096A11.18208 11.18208 0 0 1 722.944 145.408a12.53376 12.53376 0 0 1 2.47808 2.51904l2.048 2.62144c1.39264 1.72032 2.74432 3.44064 4.096 5.09952a11.65312 11.65312 0 0 1 2.80576 5.79584 11.18208 11.18208 0 0 1-0.65536 6.144c-0.69632 1.78176-1.39264 3.52256-2.048 5.2224s-1.31072 3.29728-1.92512 4.87424a11.3664 11.3664 0 0 1-2.64192 4.096 12.02176 12.02176 0 0 1-7.68 3.33824l-6.144 0.86016c-1.69984 0.22528-3.03104 0.4096-3.93216 0.47104a5.98016 5.98016 0 0 1-1.41312 0.12288zM907.44832 159.8464a31.06816 31.06816 0 0 1-5.28384 6.73792 25.51808 25.51808 0 0 1-6.4512 5.67296 55.9104 55.9104 0 0 1 5.67296-6.36928 37.86752 37.86752 0 0 1 6.06208-6.0416zM869.04832 148.0704a24.43264 24.43264 0 0 1 2.72384 7.74144 24.12544 24.12544 0 0 1 1.08544 8.192 45.58848 45.58848 0 0 1-2.048-7.90528 44.70784 44.70784 0 0 1-1.76128-8.02816zM853.77024 179.75296a48.35328 48.35328 0 0 1-7.86432-2.2528 51.6096 51.6096 0 0 1-7.7824-2.58048 37.6832 37.6832 0 0 1 15.64672 4.83328zM849.408 215.28576a24.576 24.576 0 0 1 4.096-5.85728 25.10848 25.10848 0 0 1 4.99712-5.16096 23.51104 23.51104 0 0 1-4.096 5.85728 25.10848 25.10848 0 0 1-4.99712 5.16096zM883.89632 226.48832a21.2992 21.2992 0 0 1-1.4336-6.59456 21.07392 21.07392 0 0 1-0.38912-6.7584 21.95456 21.95456 0 0 1 1.4336 6.61504 21.66784 21.66784 0 0 1 0.38912 6.73792zM913.03936 200.25344a18.88256 18.88256 0 0 1-6.0416-1.76128 18.432 18.432 0 0 1-5.67296-2.74432 37.76512 37.76512 0 0 1 11.71456 4.5056z" fill="#263238" p-id="2689"></path><path d="M1319.60832 357.29408c13.86496-16.71168 27.72992-33.5872 38.54336-52.4288s18.432-39.89504 18.98496-61.60384c0-3.29728-1.3312-26.13248-4.5056-27.05408-2.2528-0.65536-3.80928 19.51744-5.65248 20.97152-17.69472 13.84448-29.184 34.38592-35.79904 55.84896a294.6048 294.6048 0 0 0-11.5712 64.26624" fill="#263238" p-id="2690"></path><path d="M1138.9952 484.31104c5.5296-14.336 32.768-86.016 32.62464-86.016s-46.91968-24.41216-30.72-74.1376c7.7824-24.02304 27.83232-72.17152 46.46912-115.54816a97.3824 97.3824 0 0 1 120.60672-53.76l4.77184 1.61792c50.50368 20.48 61.44 74.69056 39.58784 124.60032l-100.352 232.448-87.94112-27.17696z" fill="#FFBF9D" p-id="2691"></path><path d="M1171.64032 398.336s30.57664 12.288 70.88128 2.70336c0 0-27.89376 31.51872-75.776 10.38336z" fill="#FF9A6C" p-id="2692"></path><path d="M1187.28704 256.47104a7.4752 7.4752 0 0 0 4.4032 9.44128 7.14752 7.14752 0 0 0 9.44128-3.91168 7.45472 7.45472 0 0 0-4.4032-9.44128 7.12704 7.12704 0 0 0-9.44128 3.91168zM1190.93248 232.77568c0.57344 1.2288 7.2704-0.94208 14.86848 1.65888s11.89888 8.192 13.02528 7.61856c0.55296-0.26624 0.22528-2.23232-1.61792-4.83328a20.35712 20.35712 0 0 0-10.0352-7.22944 19.57888 19.57888 0 0 0-12.288-0.16384c-2.94912 1.00352-4.23936 2.39616-3.95264 2.94912zM1254.03136 283.32032a7.43424 7.43424 0 0 0 4.4032 9.4208 7.12704 7.12704 0 0 0 9.44128-3.91168 7.4752 7.4752 0 0 0-4.4032-9.44128 7.14752 7.14752 0 0 0-9.44128 3.93216zM1264.4352 261.0176c0.55296 1.2288 7.2704-0.9216 14.86848 1.65888s11.8784 8.192 13.02528 7.63904c0.53248-0.28672 0.22528-2.2528-1.61792-4.83328a20.48 20.48 0 0 0-10.05568-7.24992 19.51744 19.51744 0 0 0-12.288-0.16384c-2.8672 1.00352-4.21888 2.39616-3.93216 2.94912zM1217.39264 310.272c0.18432-0.4096-4.28032-2.82624-11.61216-6.38976-1.86368-0.86016-3.584-1.86368-3.46112-3.31776s1.536-3.3792 3.23584-5.30432l10.752-12.86144c15.09376-18.432 26.7264-33.73056 25.96864-34.34496s-13.57824 13.80352-28.672 32.17408c-3.66592 4.54656-7.18848 8.86784-10.52672 13.02528-1.47456 2.048-3.584 4.096-3.584 7.29088a5.18144 5.18144 0 0 0 2.23232 3.91168 14.56128 14.56128 0 0 0 3.15392 1.57696c7.53664 3.01056 12.32896 4.66944 12.51328 4.23936zM1238.016 323.09248c-1.2288-0.47104-4.096 7.7824-13.06624 11.24352s-17.55136-0.38912-18.00192 0.73728c-0.28672 0.47104 1.4336 2.2528 5.09952 3.62496a21.85216 21.85216 0 0 0 14.86848-0.14336 18.944 18.944 0 0 0 10.42432-9.60512c1.47456-3.31776 1.24928-5.71392 0.67584-5.85728zM1275.26912 230.2976c0 2.31424 7.9872 3.91168 16.54784 7.9872s14.97088 8.97024 16.77312 7.51616c0.8192-0.7168 0.22528-3.09248-2.048-6.144a31.8464 31.8464 0 0 0-25.37472-11.81696c-3.6864 0.28672-5.87776 1.37216-5.89824 2.4576zM1202.62656 208.54784c0.75776 2.19136 6.59456 2.048 12.92288 4.096s11.264 5.09952 13.08672 3.70688c0.83968-0.69632 0.59392-2.70336-1.18784-5.14048a19.72224 19.72224 0 0 0-20.97152-6.36928c-2.82624 1.1264-4.15744 2.6624-3.85024 3.70688z" fill="#263238" p-id="2693"></path><path d="M1335.82848 316.416c0.98304 0 37.41696 1.41312 24.92416 34.816s-43.56096 14.0288-43.25376 13.04576 18.3296-47.86176 18.3296-47.86176z" fill="#FFBF9D" p-id="2694"></path><path d="M1332.46976 355.49184c0.18432 0 0.43008 0.63488 1.24928 1.45408a6.144 6.144 0 0 0 4.32128 1.72032c4.096 0 9.09312-4.48512 11.50976-10.46528a20.48 20.48 0 0 0 1.49504-8.97024 7.12704 7.12704 0 0 0-2.72384-6.144 3.15392 3.15392 0 0 0-4.096 0.3072c-0.79872 0.77824-0.83968 1.51552-1.024 1.51552s-0.512-0.83968 0.26624-2.048a4.096 4.096 0 0 1 2.048-1.61792 4.73088 4.73088 0 0 1 3.54304 0.34816 8.78592 8.78592 0 0 1 4.096 7.4752 21.36064 21.36064 0 0 1-1.47456 10.09664c-2.74432 6.656-8.54016 11.69408-13.90592 11.28448a6.7584 6.7584 0 0 1-5.0176-2.88768c-0.53248-1.20832-0.43008-2.048-0.28672-2.06848z" fill="#FF9A6C" p-id="2695"></path><path d="M1230.11072 161.64864c-4.25984-5.03808 18.65728-16.384 34.24256-17.24416 23.552-1.39264 56.34048 4.75136 72.8064 17.1008 19.8656 14.848 34.0992 33.03424 37.49888 57.58976s-1.45408 49.78688-10.97728 72.68352c-2.90816 6.98368-6.47168 14.04928-12.53376 18.57536-7.4752 5.59104-18.20672 6.79936-21.72928 17.14176a14.9504 14.9504 0 0 1-7.3728 8.84736c-8.6016 4.096-13.7216-4.8128-14.80704-12.288-2.31424-15.89248 2.84672-31.80544 7.94624-47.104 3.62496-10.81344 7.3728-21.85216 14.336-30.9248 3.76832-4.93568 8.3968-9.17504 11.89888-14.336s5.77536-11.61216 4.096-17.57184a21.11488 21.11488 0 0 0-1.65888-3.7888 37.29408 37.29408 0 0 0-31.98976-19.82464c-21.36064-0.55296-57.344-2.94912-63.1808-12.53376-8.54016-13.80352-9.13408-20.8896-9.13408-20.8896z" fill="#263238" p-id="2696"></path><path d="M1341.44 141.06624c2.1504 1.08544 52.46976 32.17408 52.14208 77.5168s-8.62208 56.44288-8.62208 56.44288a27.89376 27.89376 0 0 1 4.096 6.8608c1.35168 3.44064-6.36928 15.11424-12.98432 11.22304-45.17888-41.92256-107.43808-66.00704-178.46272-88.064l-53.57568-19.18976c-15.68768-3.42016-19.59936-9.25696-11.93984-10.83392 5.87776-1.2288 54.53824-3.6864 54.53824-3.6864l10.50624-3.23584 32.768-23.16288s-1.26976-5.24288 5.38624-6.94272 63.83616-18.432 106.14784 3.072z" fill="#90CAF9" p-id="2697"></path><path d="M1197.09696 168.18176s0.7168 0.28672 2.048 0.73728l6.144 1.92512c5.28384 1.57696 12.8 4.23936 22.05696 7.63904A440.58624 440.58624 0 0 1 1296.384 212.23424a675.59424 675.59424 0 0 1 63.488 43.54048c7.86432 5.95968 14.11072 10.91584 18.432 14.336l5.0176 3.91168c1.14688 0.88064 1.78176 1.31072 1.78176 1.31072s-0.55296-0.53248-1.67936-1.47456l-4.89472-4.096c-4.28032-3.4816-10.48576-8.51968-18.28864-14.5408a629.43232 629.43232 0 0 0-63.488-43.8272 420.6592 420.6592 0 0 0-69.38624-33.56672 316.49792 316.49792 0 0 0-30.26944-9.64608z" fill="#263238" p-id="2698"></path><path d="M1383.09632 182.272s-55.54176-29.73696-86.2208-26.13248L1300.48 155.648l-28.672 2.37568c-4.85376 0.4096-10.40384 0.55296-13.7216-2.99008 0 0 17.38752-7.3728 44.8512-7.22944S1370.70592 157.696 1383.09632 182.272z" opacity=".3" p-id="2699"></path><path d="M1383.8336 182.76352a44.72832 44.72832 0 0 0-4.096-5.26336 77.63968 77.63968 0 0 0-13.47584-12.16512 91.60704 91.60704 0 0 0-23.94112-12.288 77.14816 77.14816 0 0 0-32.58368-4.52608 135.53664 135.53664 0 0 0-16.87552 2.78528c-5.36576 1.20832-10.58816 2.048-15.52384 3.4816a83.29216 83.29216 0 0 1-13.88544 3.31776 26.8288 26.8288 0 0 1-12.16512-1.61792c-14.52032-4.77184-22.36416-10.81344-21.38112-11.48928a2.37568 2.37568 0 0 0 0.75776 1.536 19.43552 19.43552 0 0 0 3.93216 2.9696 84.31616 84.31616 0 0 0 16.50688 7.59808 27.77088 27.77088 0 0 0 12.45184 1.76128 83.78368 83.78368 0 0 0 14.04928-3.21536c4.83328-1.3312 10.11712-2.23232 15.48288-3.44064a143.64672 143.64672 0 0 1 16.75264-2.70336 77.63968 77.63968 0 0 1 32.21504 4.4032A93.71648 93.71648 0 0 1 1365.89312 165.888a82.2272 82.2272 0 0 1 13.57824 11.85792c1.45408 1.57696 2.53952 2.84672 3.23584 3.72736s1.1264 1.29024 1.1264 1.29024z" fill="#263238" p-id="2700"></path><path d="M1392.92672 237.32224c-10.52672-3.70688-17.57184-9.17504-27.25888-15.07328-10.24-6.26688-20.70528-12.00128-30.72-18.75968-7.59808-5.12-16.7936-10.52672-20.1728-18.432a12.88192 12.88192 0 0 0-0.18432 12.67712c2.1504 4.096 11.264 11.40736 15.1552 14.04928 22.13888 15.0528 37.51936 25.33376 62.2592 35.79904a77.312 77.312 0 0 0 0.90112-10.24" opacity=".3" p-id="2701"></path><path d="M1393.4592 213.56544c5.69344 5.18144 9.1136 8.54016 7.35232 14.336-1.45408 4.79232-4.4032 10.24-9.35936 9.48224a12.0832 12.0832 0 0 1-4.096-1.80224L1319.5264 195.87072a11.24352 11.24352 0 0 1-5.61152-5.40672c-1.35168-3.85024 2.048-8.06912 5.95968-9.13408s8.0896 0 11.9808 1.35168c22.07744 7.14752 42.20928 18.1248 61.60384 30.86336" fill="#90CAF9" p-id="2702"></path><path d="M1314.65216 191.93856a7.51616 7.51616 0 0 1-0.86016-3.85024 9.64608 9.64608 0 0 1 6.144-8.192c4.34176-1.47456 10.09664-0.49152 15.74912 1.80224s12.02176 4.89472 18.432 7.86432a204.8 204.8 0 0 1 31.88736 17.69472c3.85024 2.64192 6.81984 4.97664 8.88832 6.59456l2.33472 1.90464a4.95616 4.95616 0 0 0 0.86016 0.6144s-0.22528-0.28672-0.73728-0.75776l-2.23232-2.048c-2.048-1.69984-4.89472-4.096-8.72448-6.8608a187.33056 187.33056 0 0 0-31.88736-18.00192c-6.51264-2.99008-12.8-5.57056-18.57536-7.84384s-11.69408-3.25632-16.384-1.59744a9.97376 9.97376 0 0 0-6.26688 8.78592 6.47168 6.47168 0 0 0 0.63488 2.9696 3.39968 3.39968 0 0 0 0.73728 0.9216z" fill="#263238" p-id="2703"></path><path d="M1219.62496 152.28928l46.10048 14.76608-8.2944 11.5712-49.41824-18.14528 11.61216-8.192z" fill="#FFFFFF" p-id="2704"></path><path d="M1274.92096 216.69888c0.1024-0.24576-19.29216-10.24-43.35616-22.15936S1187.84 172.97408 1187.84 173.21984s19.29216 10.24 43.35616 22.15936 43.60192 21.54496 43.7248 21.31968z" fill="#263238" p-id="2705"></path><path d="M1286.53312 465.16224l0.6144-30.26944-103.58784 38.48192s-19.1488-62.19776-19.1488-65.1264l-22.95808 14.336-38.15424-16.384-38.15424-18.8416-77.16864 135.168-80.95744 238.67392L1097.728 888.4224l141.43488-151.552 86.016-131.072 47.26784-82.98496z" fill="#90CAF9" p-id="2706"></path><path d="M1174.34368 472.92416a20.74624 20.74624 0 0 1-0.14336-3.03104c0-2.048 0-4.95616-0.12288-8.47872l0.47104 0.28672a129.78176 129.78176 0 0 0-31.19104 21.36064l-0.8192 0.77824v-1.1264c0-1.35168-0.16384-2.78528-0.24576-4.23936-0.83968-14.848-1.536-28.28288-2.048-38.03136-0.2048-4.75136-0.36864-8.64256-0.49152-11.53024v-3.13344a0.55296 0.55296 0 1 1 0.2048 0c0 0.8192 0.16384 1.86368 0.28672 3.11296 0.2048 2.88768 0.47104 6.77888 0.79872 11.50976 0.65536 9.728 1.45408 23.16288 2.29376 38.01088 0 1.45408 0.16384 2.88768 0.22528 4.23936l-0.88064-0.36864a122.38848 122.38848 0 0 1 31.62112-21.17632l0.49152-0.2048v0.512c0 3.52256-0.14336 6.36928-0.18432 8.47872a20.64384 20.64384 0 0 1-0.26624 3.03104zM1276.98944 466.61632a5.79584 5.79584 0 0 1-1.18784 0.63488l-3.46112 1.65888-12.82048 5.87776-42.51648 19.00544-20.19328 8.92928-0.86016 0.36864 0.16384-0.9216a159.17056 159.17056 0 0 0 2.33472-29.0816l0.47104 0.28672-9.56416 4.64896-2.56 1.18784c-0.57344 0.26624-0.88064 0.38912-0.90112 0.34816a3.87072 3.87072 0 0 1 0.8192-0.512l2.47808-1.35168 9.44128-4.9152 0.45056-0.24576v0.55296a148.80768 148.80768 0 0 1-2.048 29.34784l-0.69632-0.55296 20.1728-8.97024 42.63936-18.7392 12.98432-5.57056 3.54304-1.45408a5.77536 5.77536 0 0 1 1.31072-0.53248z" fill="#263238" p-id="2707"></path><path d="M285.96224 315.14624m29.83936 0l780.0832 0q29.83936 0 29.83936 29.83936l0 540.13952q0 29.83936-29.83936 29.83936l-780.0832 0q-29.83936 0-29.83936-29.83936l0-540.13952q0-29.83936 29.83936-29.83936Z" fill="#455A64" p-id="2708"></path><path d="M253.1328 876.21632h909.824v16.03584a36.4544 36.4544 0 0 1-36.4544 36.4544H289.5872a36.4544 36.4544 0 0 1-36.4544-36.4544v-16.03584z" fill="#455A64" p-id="2709"></path><path d="M308.51072 338.98496h792.33024v506.53184H308.51072zM623.06304 870.6048l11.28448 19.39456h158.86336l10.48576-19.39456h-180.6336z" fill="#263238" p-id="2710"></path><path d="M324.8128 356.12672m6.69696 0l747.9296 0q6.69696 0 6.69696 6.69696l0 474.35776q0 6.69696-6.69696 6.69696l-747.9296 0q-6.69696 0-6.69696-6.69696l0-474.35776q0-6.69696 6.69696-6.69696Z" fill="#EBEBEB" p-id="2711"></path><path d="M1085.3376 844.5952H324.01408l0.79872-452.01408h760.5248V844.5952z" fill="#FAFAFA" p-id="2712"></path><path d="M388.79232 374.96832a6.26688 6.26688 0 1 1-6.26688-6.57408 6.43072 6.43072 0 0 1 6.26688 6.57408zM350.78144 374.96832a6.26688 6.26688 0 1 1-6.26688-6.57408 6.43072 6.43072 0 0 1 6.26688 6.57408zM370.31936 374.96832a6.26688 6.26688 0 1 1-6.26688-6.57408 6.43072 6.43072 0 0 1 6.26688 6.57408zM1118.5152 870.6048c0 0.32768-186.368 0.57344-416.256 0.57344s-416.29696-0.24576-416.29696-0.57344 186.368-0.59392 416.29696-0.59392 416.256 0.26624 416.256 0.59392z" fill="#263238" p-id="2713"></path><path d="M623.69792 479.232a162.42688 162.42688 0 0 1 39.60832-17.2032l8.192-39.2192 66.23232-1.16736 9.54368 38.912a163.08224 163.08224 0 0 1 40.18176 15.81056l33.4848-21.93408 47.65696 46.01856L847.872 534.71232a162.22208 162.22208 0 0 1 17.2032 39.6288l39.19872 8.192 1.16736 66.23232-38.912 9.54368a162.28352 162.28352 0 0 1-15.83104 40.05888l21.95456 33.4848-46.01856 47.65696-34.22208-20.74624a162.22208 162.22208 0 0 1-39.6288 17.2032l-8.192 39.2192-66.2528 1.14688-9.5232-38.912a161.97632 161.97632 0 0 1-40.07936-15.70816l-33.4848 21.95456-47.65696-46.01856 20.74624-34.22208a162.28352 162.28352 0 0 1-17.22368-39.6288l-39.19872-8.192-1.16736-66.23232 38.912-9.54368a162.75456 162.75456 0 0 1 15.81056-40.18176l-21.93408-33.4848 46.01856-47.65696L623.69792 479.232z m35.30752 88.24832a71.0656 71.0656 0 1 0 100.49536-1.76128 71.0656 71.0656 0 0 0-100.49536 1.82272z" fill="#E0E0E0" p-id="2714"></path><path d="M888.32 504.56576a56.70912 56.70912 0 0 1 4.608-14.15168l-8.192-11.0592 14.82752-17.36704 12.288 6.43072a56.05376 56.05376 0 0 1 13.25056-6.73792l2.048-13.66016 22.75328-1.78176 4.096 13.16864a55.93088 55.93088 0 0 1 14.15168 4.62848l11.0592-8.192 17.36704 14.848-6.43072 12.288a55.86944 55.86944 0 0 1 6.7584 13.27104l13.63968 2.048 1.78176 22.77376-13.16864 4.096a55.3984 55.3984 0 0 1-4.62848 14.15168l8.192 11.07968-14.82752 17.34656-12.288-6.43072a55.86944 55.86944 0 0 1-13.27104 6.7584l-2.048 13.66016-22.75328 1.78176-4.096-13.18912a55.88992 55.88992 0 0 1-14.15168-4.608l-11.07968 8.192-17.32608-15.01184 6.43072-12.288a56.25856 56.25856 0 0 1-6.7584-13.27104l-13.63968-2.048-1.78176-22.77376 13.16864-4.096z m30.86336 6.90176a24.576 24.576 0 1 0 20.15232-21.87264 24.576 24.576 0 0 0-20.15232 21.87264zM389.57056 733.184a65.536 65.536 0 0 1 2.84672-17.34656l-11.61216-11.32544 14.21312-22.89664 15.40096 5.3248a66.23232 66.23232 0 0 1 14.336-10.24l-0.12288-16.2816 26.25536-6.144 7.10656 14.6432a65.39264 65.39264 0 0 1 17.34656 2.84672l11.44832-11.61216 22.89664 14.21312-5.3248 15.40096a66.23232 66.23232 0 0 1 10.24 14.336l16.2816-0.12288 6.144 26.23488-14.66368 7.0656a66.39616 66.39616 0 0 1-2.8672 17.34656l11.61216 11.42784-14.21312 22.91712-15.40096-5.3248a65.7408 65.7408 0 0 1-14.336 10.24l0.12288 16.2816-26.23488 6.144-7.12704-14.6432a65.536 65.536 0 0 1-17.28512-2.94912l-11.42784 11.61216-22.91712-14.21312 5.3248-15.40096a66.23232 66.23232 0 0 1-10.24-14.336l-16.384 0.12288-6.144-26.23488 14.6432-7.12704z m37.94944 7.3728a28.91776 28.91776 0 1 0 21.56544-34.816 28.91776 28.91776 0 0 0-21.56544 34.87744z" fill="#E0E0E0" p-id="2715"></path><path d="M436.69504 514.41664a41.24672 41.24672 0 0 1 3.4816-10.67008l-6.144-8.35584 11.18208-13.08672 9.216 4.85376a42.57792 42.57792 0 0 1 9.99424-5.09952l1.51552-10.24 17.16224-1.35168 3.072 9.9328a42.86464 42.86464 0 0 1 10.67008 3.4816l8.35584-6.144 13.06624 11.18208-4.83328 9.216a41.73824 41.73824 0 0 1 5.07904 9.99424l10.24 1.49504 1.35168 17.16224-9.91232 2.99008a42.53696 42.53696 0 0 1-3.46112 10.67008l6.144 8.33536-11.18208 13.08672-9.216-4.85376a41.79968 41.79968 0 0 1-9.99424 5.09952l-1.49504 10.24-17.16224 1.3312-3.09248-9.9328a41.51296 41.51296 0 0 1-10.67008-3.4816l-8.33536 6.144-13.08672-11.18208 4.83328-9.216a41.73824 41.73824 0 0 1-5.07904-9.99424l-10.24-1.51552-1.3312-17.16224 9.9328-3.072z m23.2448 8.33536a18.432 18.432 0 1 0 16.97792-19.84512 18.432 18.432 0 0 0-16.97792 19.84512zM889.18016 699.24864a37.04832 37.04832 0 0 1 2.99008-9.17504l-5.34528-7.168 9.60512-11.24352 7.92576 4.096a36.08576 36.08576 0 0 1 8.58112-4.38272l1.29024-8.84736 14.7456-1.14688 2.64192 8.54016a36.20864 36.20864 0 0 1 9.17504 2.99008l7.168-5.34528 11.24352 9.60512-4.096 7.90528a36.22912 36.22912 0 0 1 4.38272 8.6016l8.84736 1.29024 1.14688 14.7456-8.54016 2.64192a36.20864 36.20864 0 0 1-2.99008 9.17504l5.34528 7.168-9.60512 11.22304-7.90528-4.096a37.00736 37.00736 0 0 1-8.6016 4.38272l-1.29024 8.82688-14.7456 1.14688-2.64192-8.51968a37.04832 37.04832 0 0 1-9.17504-2.99008l-7.168 5.34528-11.28448-9.60512 4.096-7.90528a36.08576 36.08576 0 0 1-4.38272-8.58112l-8.82688-1.29024-1.16736-14.7456 8.54016-2.64192z m19.968 7.14752a15.872 15.872 0 1 0 14.49984-17.03936 15.85152 15.85152 0 0 0-14.49984 17.03936z" fill="#EBEBEB" p-id="2716"></path><path d="M708.05504 721.46944H606.208a34.2016 34.2016 0 0 1-29.5936-51.2l50.95424-88.24832 50.93376-88.24832a34.2016 34.2016 0 0 1 59.20768 0l50.95424 88.24832 50.95424 88.24832a34.2016 34.2016 0 0 1-29.61408 51.2z" fill="#90CAF9" p-id="2717"></path><path d="M817.74592 680.38656s0.26624 0.512 0.77824 1.57696a14.00832 14.00832 0 0 1-1.35168 13.14816 13.824 13.824 0 0 1-3.82976 3.80928 12.4928 12.4928 0 0 1-5.85728 1.92512c-17.36704 0.18432-42.43456 0.14336-73.44128 0.22528l-108.91264 0.12288h-15.5648a13.4144 13.4144 0 0 1-12.55424-9.09312 14.62272 14.62272 0 0 1-0.512-8.192c0.16384-0.67584 0.38912-1.35168 0.6144-2.048s0.59392-1.29024 0.90112-1.90464l2.048-3.584c2.62144-4.8128 5.28384-9.64608 7.94624-14.5408L641.024 601.23136 674.24256 540.672q8.00768-14.68416 15.7696-28.81536c1.31072-2.33472 2.51904-4.68992 3.91168-7.00416a15.74912 15.74912 0 0 1 5.7344-5.69344 16.85504 16.85504 0 0 1 15.40096-0.69632 16.11776 16.11776 0 0 1 6.144 4.87424A61.44 61.44 0 0 1 724.992 509.952c2.39616 4.38272 4.77184 8.704 7.08608 12.96384q7.00416 12.77952 13.53728 24.80128c8.74496 15.99488 16.87552 30.90432 24.28928 44.50304 14.82752 27.21792 26.80832 49.2544 35.10272 64.512l9.50272 17.55136c1.06496 2.048 1.88416 3.52256 2.43712 4.58752l0.8192 1.57696s-0.32768-0.512-0.90112-1.536l-2.53952-4.52608-9.68704-17.46944c-8.35584-15.21664-20.48-37.1712-35.38944-64.32768l-24.39168-44.46208-13.59872-24.76032c-2.33472-4.25984-4.68992-8.58112-7.10656-12.96384a65.98656 65.98656 0 0 0-3.74784-6.43072 15.23712 15.23712 0 0 0-5.7344-4.56704 15.85152 15.85152 0 0 0-14.49984 0.65536 14.97088 14.97088 0 0 0-5.36576 5.36576c-1.35168 2.23232-2.58048 4.62848-3.87072 6.9632l-15.7696 28.81536c-10.69056 19.57888-21.79072 39.8336-33.13664 60.60032l-33.15712 60.55936c-2.68288 4.89472-5.3248 9.74848-7.96672 14.5408a30.5152 30.5152 0 0 0-3.3792 7.24992 13.6192 13.6192 0 0 0 0.47104 7.68 12.288 12.288 0 0 0 11.59168 8.41728h15.5648l108.91264 0.1024 73.4208 0.1024a12.06272 12.06272 0 0 0 5.67296-1.80224 13.57824 13.57824 0 0 0 3.7888-3.6864 13.96736 13.96736 0 0 0 2.41664-7.86432 15.42144 15.42144 0 0 0-1.61792-6.71744z" fill="#263238" p-id="2718"></path><path d="M691.54816 661.504c0-9.03168 7.20896-15.7696 17.46944-15.7696s17.3056 6.73792 17.3056 15.7696-7.04512 16.0768-17.3056 16.0768-17.46944-7.168-17.46944-16.0768z m0.16384-92.50816h34.6112l-5.81632 68.15744h-23.12192zM712.92928 483.57376a27.648 27.648 0 0 0-6.47168-1.35168 23.06048 23.06048 0 0 0-14.78656 4.95616A36.6592 36.6592 0 0 0 681.984 499.712c-1.86368 3.6864-2.74432 6.144-2.90816 6.0416a6.144 6.144 0 0 1 0.43008-1.76128 43.008 43.008 0 0 1 1.80224-4.608 34.5088 34.5088 0 0 1 9.76896-13.06624 22.528 22.528 0 0 1 15.48288-4.83328 15.17568 15.17568 0 0 1 4.85376 1.18784c1.00352 0.47104 1.55648 0.83968 1.51552 0.90112zM670.33088 521.0112a14.11072 14.11072 0 0 1 2.23232-4.9152c1.49504-2.51904 2.90816-4.44416 3.1744-4.3008a13.9264 13.9264 0 0 1-2.2528 4.83328 14.11072 14.11072 0 0 1-3.15392 4.38272z" fill="#FFFFFF" p-id="2719"></path><path d="M759.17312 530.96448L600.4736 628.736l-20.60288 35.71712 190.50496-114.09408-11.20256-19.39456zM784.15872 574.30016L573.80864 698.368a22.528 22.528 0 0 0 4.56704 8.84736l209.48992-126.48448z" fill="#FFFFFF" opacity=".3" p-id="2720"></path><path d="M1304.00256 805.6832a61.97248 61.97248 0 0 0-64.8192-17.36704l-19.59936-21.504-2.72384-3.05152-155.09504-170.16832a61.952 61.952 0 0 0-65.536-85.89312l-7.5776 3.01056 26.35776 17.67424-1.41312 28.7744-21.31968 19.3536-28.7744-1.41312-18.80064-20.72576-7.76192 3.05152c-2.23232 17.34656 9.40032 39.2192 22.07744 53.248a61.93152 61.93152 0 0 0 64.7168 17.38752l157.696 173.01504 4.83328 5.38624 14.9504 16.384a61.89056 61.89056 0 0 0 11.03872 65.98656c12.61568 13.9264 29.36832 23.22432 46.7968 22.75328l7.7824-3.03104-18.82112-20.74624 1.41312-28.672 21.31968-19.3536 28.672 1.39264 11.01824 23.77728 7.7824-3.05152a61.91104 61.91104 0 0 0-14.21312-56.2176z" fill="#E0E0E0" p-id="2721"></path><path d="M1304.00256 805.6832a61.97248 61.97248 0 0 0-64.8192-17.36704l-19.59936-21.504-2.72384-3.05152-155.09504-170.16832a61.952 61.952 0 0 0-65.536-85.89312l-7.5776 3.01056 26.35776 17.67424-1.41312 28.7744-21.31968 19.3536-28.7744-1.41312-18.80064-20.72576-7.76192 3.05152c-2.23232 17.34656 9.40032 39.2192 22.07744 53.248a61.93152 61.93152 0 0 0 64.7168 17.38752l157.696 173.01504 4.83328 5.38624 14.9504 16.384a61.89056 61.89056 0 0 0 11.03872 65.98656c12.61568 13.9264 29.36832 23.22432 46.7968 22.75328l7.7824-3.03104-18.82112-20.74624 1.41312-28.672 21.31968-19.3536 28.672 1.39264 11.01824 23.77728 7.7824-3.05152a61.91104 61.91104 0 0 0-14.21312-56.2176z" opacity=".3" p-id="2722"></path><path d="M1296.22016 808.71424a61.91104 61.91104 0 0 0-64.79872-17.34656l-19.61984-21.52448-2.72384-3.05152-155.09504-170.16832a61.93152 61.93152 0 0 0-65.536-85.87264l18.80064 20.72576-1.39264 28.672-21.36064 19.43552-28.672-1.39264-18.80064-20.72576a61.91104 61.91104 0 0 0 79.01184 73.60512l157.696 173.01504 4.85376 5.38624 14.9504 16.384a61.93152 61.93152 0 0 0 65.536 85.79072L1240.24832 890.88l1.39264-28.672 21.34016-19.3536 28.672 1.41312 18.80064 20.72576a61.82912 61.82912 0 0 0-14.2336-56.27904z" fill="#E0E0E0" p-id="2723"></path><path d="M1296.22016 808.71424s0.90112 0.98304 2.60096 2.9696a64.77824 64.77824 0 0 1 6.41024 9.66656 61.97248 61.97248 0 0 1 5.5296 43.64288v0.4096l-0.28672-0.3072-18.82112-20.70528 0.16384 0.1024-28.672-1.37216h0.2048l-21.2992 19.37408v-0.22528c-0.4096 8.92928-0.88064 18.65728-1.37216 28.7744v-0.26624l18.65728 20.5824 0.49152 0.53248-0.7168 0.1024A62.1568 62.1568 0 0 1 1202.93376 890.88a61.62432 61.62432 0 0 1-14.1312-30.35136 62.73024 62.73024 0 0 1 4.21888-34.816v0.49152l-177.54112-194.74432 0.55296 0.14336a63.16032 63.16032 0 0 1-34.6112 0.98304 62.464 62.464 0 0 1-45.056-75.22304l0.24576-0.98304 0.67584 0.73728 18.80064 20.72576-0.36864-0.16384 28.7744 1.39264-0.38912 0.14336 21.46304-19.37408-0.18432 0.36864c0.47104-9.70752 0.94208-19.27168 1.41312-28.7744l0.12288 0.36864-18.80064-20.72576-0.63488-0.7168 0.94208-0.12288a62.44352 62.44352 0 0 1 59.5968 25.6 62.09536 62.09536 0 0 1 11.28448 30.16704 63.488 63.488 0 0 1-4.8128 30.72v-0.49152l177.2544 194.88768h-0.24576a62.09536 62.09536 0 0 1 50.9952 6.00064 65.08544 65.08544 0 0 1 10.73152 8.192c2.048 2.19136 3.15392 3.31776 3.15392 3.31776l-3.23584-3.23584a68.52608 68.52608 0 0 0-10.77248-8.192 62.01344 62.01344 0 0 0-50.72896-5.77536h-0.14336v-0.12288l-177.58208-194.56-0.2048-0.22528 0.12288-0.26624a62.73024 62.73024 0 0 0 4.7104-30.35136 60.86656 60.86656 0 0 0-11.14112-29.696 61.44 61.44 0 0 0-58.65472-25.16992l0.3072-0.83968 18.55488 20.93056 0.14336 0.14336v0.22528q-0.67584 14.21312-1.39264 28.672v0.22528l-0.16384 0.14336-21.31968 19.3536-0.16384 0.14336h-0.22528l-28.672-1.41312h-0.22528l-0.14336-0.16384-18.82112-20.72576 0.9216-0.22528A61.44 61.44 0 0 0 1015.808 630.5792h0.3072l0.24576 0.24576c64.47104 70.81984 124.928 137.1136 177.41824 194.82624l0.2048 0.22528-0.12288 0.28672a62.0544 62.0544 0 0 0-4.1984 34.24256 61.82912 61.82912 0 0 0 39.7312 47.90272 61.68576 61.68576 0 0 0 29.61408 3.072l-0.24576 0.63488-18.78016-20.72576-0.1024-0.12288V890.88c0.49152-10.09664 0.96256-19.82464 1.41312-28.672V861.96224l21.36064-19.31264h0.12288l28.672 1.4336c6.88128 7.61856 13.2096 14.60224 18.75968 20.76672h-0.36864a61.87008 61.87008 0 0 0-5.30432-43.43808 68.25984 68.25984 0 0 0-6.28736-9.70752c-1.18784-1.9456-2.02752-2.99008-2.02752-2.99008z" fill="#263238" p-id="2724"></path><path d="M1046.91712 606.55616a5.40672 5.40672 0 0 1-0.67584 1.536 36.10624 36.10624 0 0 1-2.39616 3.85024 49.664 49.664 0 0 1-23.47008 18.04288 33.8944 33.8944 0 0 1-4.34176 1.31072 5.14048 5.14048 0 0 1-1.6384 0.26624c0-0.18432 2.23232-0.79872 5.71392-2.27328a56.60672 56.60672 0 0 0 23.1424-17.77664c2.31424-3.01056 3.50208-5.03808 3.66592-4.95616z" fill="#263238" p-id="2725"></path><path d="M1220.11648 680.46848L1161.216 653.02528l-52.65408-6.57408 19.33312 16.384s-68.07552 23.73632-69.26336 29.0816 5.36576 19.72224 17.36704 17.05984c0 0-6.73792 8.192-3.93216 17.22368s9.0112 10.73152 20.48 8.62208c0 0-7.7824 11.65312-1.67936 17.59232s15.60576 4.44416 15.60576 4.44416 0.12288 14.19264 7.61856 15.42144 28.38528-0.22528 36.18816-2.62144l39.6288-12.288 25.68192-5.75488z" fill="#FFBF9D" p-id="2726"></path><path d="M1111.69536 698.49088c0.22528 0.77824-7.61856 3.72736-17.48992 6.61504s-18.10432 4.56704-18.3296 3.7888 7.61856-3.74784 17.48992-6.61504 18.10432-4.56704 18.3296-3.7888zM1121.71008 726.48704c0.22528 0.77824-5.98016 3.33824-13.88544 5.7344s-14.52032 3.66592-14.76608 2.88768 6.00064-3.33824 13.90592-5.71392 14.52032-3.66592 14.7456-2.90816zM1130.7008 749.7728c0.14336 0.88064-5.50912 2.048-12.14464 3.72736s-11.81696 4.096-12.288 3.25632 4.4032-4.21888 11.4688-6.144 12.86144-1.55648 12.96384-0.83968zM1138.13504 660.48c0.22528 0.79872-7.49568 3.60448-17.05984 6.90176s-17.36704 5.81632-17.69472 5.05856 7.08608-4.52608 16.75264-7.84384 17.79712-4.89472 18.00192-4.11648z" fill="#FF9A6C" p-id="2727"></path><path d="M1209.01632 675.30752l127.56992 46.20288-7.45472 87.552-140.45184-56.6272 20.33664-77.12768z" fill="#FFBF9D" p-id="2728"></path><path d="M1372.69248 522.09664s16.62976 17.18272 26.3168 48.08704 55.296 161.91488 54.19008 203.59168c-1.20832 43.1104-30.22848 73.87136-94.0032 56.832-38.05184-10.24-83.39456-26.624-83.39456-26.624l32.23552-105.96352L1333.248 704.512l-40.71424-76.43136z" fill="#90CAF9" p-id="2729"></path><path d="M1343.488 572.17024c0.24576 0.18432-17.408 25.31328-39.40352 56.13568S1264.08704 684.032 1263.84128 683.8272s17.408-25.31328 39.40352-56.13568 40.01792-55.68512 40.2432-55.52128zM1392.31232 718.848s-1.10592-0.53248-3.09248-1.45408a58.0608 58.0608 0 0 0-8.74496-3.09248c-3.7888-1.04448-8.37632-2.048-13.47584-3.13344l-16.54784-3.64544c-11.73504-2.62144-22.36416-5.05856-30.02368-6.88128l-9.07264-2.21184a19.21024 19.21024 0 0 1-3.29728-0.94208 21.42208 21.42208 0 0 1 3.3792 0.55296l9.15456 1.86368c7.72096 1.6384 18.432 3.95264 30.1056 6.57408l16.52736 3.74784c5.07904 1.14688 9.66656 2.21184 13.45536 3.35872a50.25792 50.25792 0 0 1 8.72448 3.44064 20.84864 20.84864 0 0 1 2.19136 1.29024 3.42016 3.42016 0 0 1 0.7168 0.53248z" fill="#263238" p-id="2730"></path><path d="M1424.91648 723.51744a15.79008 15.79008 0 0 0-8.76544-11.71456 42.45504 42.45504 0 0 0-14.66368-3.93216c-22.91712-3.15392-46.10048-4.096-69.2224-4.89472l2.048 0.9216a431.57504 431.57504 0 0 1 83.456 24.33024 6.43072 6.43072 0 0 0 4.83328 0.57344 5.05856 5.05856 0 0 0 2.31424-5.28384zM899.35872 317.27616c-21.504-3.66592-47.22688 2.58048-68.73088-1.08544-3.19488-0.53248-6.71744-1.04448-9.54368 0.59392-3.39968 1.9456-4.56704 6.28736-4.73088 10.24a38.912 38.912 0 0 0 12.288 28.99968 55.07072 55.07072 0 0 0 28.89728 13.80352c8.58112 1.45408 17.8176 1.16736 25.45664-2.9696 13.43488-7.29088 19.88608-34.816 16.36352-49.58208z" opacity=".3" p-id="2731"></path><path d="M815.90272 356.61824s-13.04576-15.29856-14.92992-22.34368c-1.24928-4.66944-0.63488-17.75616 0-26.05056a14.336 14.336 0 0 1 9.3184-12.6976 4.73088 4.73088 0 0 1 4.85376 0.38912 48.76288 48.76288 0 0 1 5.9392-6.67648c5.12-5.24288 7.55712-8.78592 18.82112-5.5296 0 0 8.2944-8.74496 13.06624-8.0896a73.728 73.728 0 0 1 9.48224 2.048s18.16576-0.77824 21.89312 4.99712a16.65024 16.65024 0 0 0 8.192 5.46816 22.528 22.528 0 0 1 12.96384 11.81696 46.91968 46.91968 0 0 1 3.62496 15.83104l-18.432 0.73728s1.31072 42.41408-3.33824 45.83424-6.41024 2.19136-6.41024 2.19136-3.54304 9.95328-17.36704 2.60096c0 0-11.4688 3.46112-16.384-1.26976s-22.89664-50.176-22.89664-50.176l0.512 22.528s9.48224 14.60224 4.83328 18.0224-13.74208 0.36864-13.74208 0.36864z" fill="#FFBF9D" p-id="2732"></path><path d="M838.92224 299.13088a14.336 14.336 0 0 1 1.04448 2.6624l2.49856 7.3728c2.048 6.144 4.85376 14.90944 7.84384 24.4736s5.48864 18.432 8.31488 24.24832a52.10112 52.10112 0 0 0 3.76832 6.7584c1.00352 1.536 1.6384 2.31424 1.57696 2.37568s-0.22528-0.14336-0.55296-0.512a18.88256 18.88256 0 0 1-1.35168-1.61792 41.28768 41.28768 0 0 1-4.096-6.67648c-3.05152-5.91872-5.61152-14.70464-8.64256-24.24832s-5.67296-18.26816-7.55712-24.576c-0.86016-3.01056-1.59744-5.50912-2.17088-7.4752a15.5648 15.5648 0 0 1-0.67584-2.78528zM861.5936 293.888a13.66016 13.66016 0 0 1 0.94208 2.74432l2.19136 7.59808c1.78176 6.41024 4.096 15.29856 6.79936 25.12896s4.89472 18.75968 6.49216 25.23136c0.75776 3.072 1.37216 5.65248 1.86368 7.65952a14.21312 14.21312 0 0 1 0.53248 2.8672 17.96096 17.96096 0 0 1-0.94208-2.74432c-0.57344-2.048-1.29024-4.54656-2.17088-7.59808-1.80224-6.41024-4.21888-15.29856-6.79936-25.12896s-4.89472-18.75968-6.51264-25.23136c-0.73728-3.09248-1.37216-5.65248-1.8432-7.68a15.21664 15.21664 0 0 1-0.55296-2.84672z" fill="#FF9A6C" p-id="2733"></path></svg>