<svg t="1776908068885" class="icon" viewBox="0 0 1077 1024" version="1.1" xmlns="http://www.w3.org/2000/svg" p-id="141338" width="200" height="200"><path d="M151.271747 185.4464a90.5728 90.5728 0 1 1 139.0592-115.3792l253.4656-34.1248a31.5136 31.5136 0 1 1 5.9648 22.912L306.714947 112.7168a90.1888 90.1888 0 0 1-10.4704 53.3504l153.0112 155.8272a137.9072 137.9072 0 0 1 209.1776 86.016l255.6672-19.4048a55.1424 55.1424 0 1 1 3.0208 24.96L660.762947 453.888a137.856 137.856 0 0 1-152.0896 120.96l-81.408 238.592a78.7712 78.7712 0 1 1-126.848 48.4864L168.986947 723.2a31.488 31.488 0 1 1 14.2336-11.0592l129.2032 119.424a78.72 78.72 0 0 1 59.9808-35.1232l86.4-237.056a137.8304 137.8304 0 0 1-52.8384-193.024L254.823747 204.9024a90.24 90.24 0 0 1-38.1696 8.448A90.2656 90.2656 0 0 1 179.226947 205.2352l-88.064 188.7488a31.488 31.488 0 1 1-16.3072-7.1424L151.322947 185.4464z m736 591.36a63.0272 63.0272 0 0 1-102.2208 73.6256l-170.9312 36.864a31.5136 31.5136 0 1 1-2.5856-17.6384l161.2032-47.8464a63.0272 63.0272 0 0 1 78.9248-70.6304l69.376-147.456a31.488 31.488 0 1 1 17.3312 10.5984l-51.0976 162.4832zM811.342147 197.5808a39.3728 39.3728 0 1 1 0-78.7712 39.3728 39.3728 0 0 1 0 78.7712zM23.655747 583.552a23.6288 23.6288 0 1 1 0-47.2576 23.6288 23.6288 0 0 1 0 47.2576zM701.082947 55.7824a23.6288 23.6288 0 1 1 0-47.2576 23.6288 23.6288 0 0 1 0 47.2576z m173.2864 212.6848a23.6288 23.6288 0 1 1 0-47.2576 23.6288 23.6288 0 0 1 0 47.2576z" fill="#2E66BA" p-id="141339"></path><path d="M354.894147 393.1136c-5.4272 26.4704-4.5568 54.4256 2.6112 83.8144 6.528 26.9056 17.6128 48.7424 33.2288 65.4848a51.2 51.2 0 0 1 10.112 53.9648L344.398147 737.28a25.6 25.6 0 0 1-43.1104 7.2448l-125.4912-144.7424a128 128 0 0 1-23.2704-128.512l70.5536-189.5168a25.6 25.6 0 0 1 41.8816-9.3952l75.5712 73.8816a51.2 51.2 0 0 1 14.336 46.8736z" fill="#45C2CF" p-id="141340"></path><path d="M671.950147 346.624a184.1152 184.1152 0 0 0-75.0592-66.4064c-32.128-15.744-67.584-18.7136-106.2656-8.9344a51.2 51.2 0 0 1-49.7408-14.464L389.454147 202.496a25.6 25.6 0 0 1 13.952-42.752l170.496-31.6672a128 128 0 0 1 122.752 45.2096l122.9824 151.5776a25.6 25.6 0 0 1-18.8416 41.728l-83.7888 3.4048a51.2 51.2 0 0 1-45.056-23.3472z" fill="#79D153" p-id="141341"></path><path d="M569.601347 604.3136c27.6224-5.5808 52.736-19.9168 75.264-43.008 20.6848-21.12 35.6096-40.6016 44.8-58.4704a51.2 51.2 0 0 1 37.8368-27.136l108.1088-16.4608a25.6 25.6 0 0 1 27.904 34.0992l-73.8304 202.496a128 128 0 0 1-96.768 81.9968l-182.272 34.0224a25.6 25.6 0 0 1-28.8256-33.6896l49.664-140.6976a51.2 51.2 0 0 1 38.1184-33.152z" fill="#2AABC6" p-id="141342"></path></svg>